<mxfile host="65bd71144e" scale="2" border="0">
    <diagram id="ASEf_QzkFX5I0fpl7YPQ" name="第 1 页">
        <mxGraphModel dx="756" dy="639" grid="1" gridSize="10" guides="1" tooltips="1" connect="1" arrows="1" fold="1" page="1" pageScale="1" pageWidth="827" pageHeight="1169" math="0" shadow="0">
            <root>
                <mxCell id="0"/>
                <mxCell id="1" parent="0"/>
                <mxCell id="2" value="" style="shape=image;verticalLabelPosition=bottom;labelBackgroundColor=#ffffff;verticalAlign=top;aspect=fixed;imageAspect=0;image=data:image/jpeg,/9j/4AAQSkZJRgABAQEAYABgAAD/4SUyRXhpZgAATU0AKgAAAAgABgALAAIAAAAmAAAIYgESAAMAAAABAAEAAAExAAIAAAAmAAAIiAEyAAIAAAAUAAAIrodpAAQAAAABAAAIwuocAAcAAAgMAAAAVgAAEUYc6gAAAAgAAAAAAAAAAAAAAAAAAAAAAAAAAAAAAAAAAAAAAAAAAAAAAAAAAAAAAAAAAAAAAAAAAAAAAAAAAAAAAAAAAAAAAAAAAAAAAAAAAAAAAAAAAAAAAAAAAAAAAAAAAAAAAAAAAAAAAAAAAAAAAAAAAAAAAAAAAAAAAAAAAAAAAAAAAAAAAAAAAAAAAAAAAAAAAAAAAAAAAAAAAAAAAAAAAAAAAAAAAAAAAAAAAAAAAAAAAAAAAAAAAAAAAAAAAAAAAAAAAAAAAAAAAAAAAAAAAAAAAAAAAAAAAAAAAAAAAAAAAAAAAAAAAAAAAAAAAAAAAAAAAAAAAAAAAAAAAAAAAAAAAAAAAAAAAAAAAAAAAAAAAAAAAAAAAAAAAAAAAAAAAAAAAAAAAAAAAAAAAAAAAAAAAAAAAAAAAAAAAAAAAAAAAAAAAAAAAAAAAAAAAAAAAAAAAAAAAAAAAAAAAAAAAAAAAAAAAAAAAAAAAAAAAAAAAAAAAAAAAAAAAAAAAAAAAAAAAAAAAAAAAAAAAAAAAAAAAAAAAAAAAAAAAAAAAAAAAAAAAAAAAAAAAAAAAAAAAAAAAAAAAAAAAAAAAAAAAAAAAAAAAAAAAAAAAAAAAAAAAAAAAAAAAAAAAAAAAAAAAAAAAAAAAAAAAAAAAAAAAAAAAAAAAAAAAAAAAAAAAAAAAAAAAAAAAAAAAAAAAAAAAAAAAAAAAAAAAAAAAAAAAAAAAAAAAAAAAAAAAAAAAAAAAAAAAAAAAAAAAAAAAAAAAAAAAAAAAAAAAAAAAAAAAAAAAAAAAAAAAAAAAAAAAAAAAAAAAAAAAAAAAAAAAAAAAAAAAAAAAAAAAAAAAAAAAAAAAAAAAAAAAAAAAAAAAAAAAAAAAAAAAAAAAAAAAAAAAAAAAAAAAAAAAAAAAAAAAAAAAAAAAAAAAAAAAAAAAAAAAAAAAAAAAAAAAAAAAAAAAAAAAAAAAAAAAAAAAAAAAAAAAAAAAAAAAAAAAAAAAAAAAAAAAAAAAAAAAAAAAAAAAAAAAAAAAAAAAAAAAAAAAAAAAAAAAAAAAAAAAAAAAAAAAAAAAAAAAAAAAAAAAAAAAAAAAAAAAAAAAAAAAAAAAAAAAAAAAAAAAAAAAAAAAAAAAAAAAAAAAAAAAAAAAAAAAAAAAAAAAAAAAAAAAAAAAAAAAAAAAAAAAAAAAAAAAAAAAAAAAAAAAAAAAAAAAAAAAAAAAAAAAAAAAAAAAAAAAAAAAAAAAAAAAAAAAAAAAAAAAAAAAAAAAAAAAAAAAAAAAAAAAAAAAAAAAAAAAAAAAAAAAAAAAAAAAAAAAAAAAAAAAAAAAAAAAAAAAAAAAAAAAAAAAAAAAAAAAAAAAAAAAAAAAAAAAAAAAAAAAAAAAAAAAAAAAAAAAAAAAAAAAAAAAAAAAAAAAAAAAAAAAAAAAAAAAAAAAAAAAAAAAAAAAAAAAAAAAAAAAAAAAAAAAAAAAAAAAAAAAAAAAAAAAAAAAAAAAAAAAAAAAAAAAAAAAAAAAAAAAAAAAAAAAAAAAAAAAAAAAAAAAAAAAAAAAAAAAAAAAAAAAAAAAAAAAAAAAAAAAAAAAAAAAAAAAAAAAAAAAAAAAAAAAAAAAAAAAAAAAAAAAAAAAAAAAAAAAAAAAAAAAAAAAAAAAAAAAAAAAAAAAAAAAAAAAAAAAAAAAAAAAAAAAAAAAAAAAAAAAAAAAAAAAAAAAAAAAAAAAAAAAAAAAAAAAAAAAAAAAAAAAAAAAAAAAAAAAAAAAAAAAAAAAAAAAAAAAAAAAAAAAAAAAAAAAAAAAAAAAAAAAAAAAAAAAAAAAAAAAAAAAAAAAAAAAAAAAAAAAAAAAAAAAAAAAAAAAAAAAAAAAAAAAAAAAAAAAAAAAAAAAAAAAAAAAAAAAAAAAAAAAAAAAAAAAAAAAAAAAAAAAAAAAAAAAAAAAAAAAAAAAAAAAAAAAAAAAAAAAAAAAAAAAAAAAAAAAAAAAAAAAAAAAAAAAAAAAAAAAAAAAAAAAAAAAAAAAAAAAAAAAAAAAAAAAAAAAAAAAAAAAAAAAAAAAAAAAAAAAAAAAAAAAAAAAAAAAAAAAAAAAAAAAAAAAAAAAAAAAAAAAAAAAAAAAAAAAAAAAAAAAAAAAAAAAAAAAAAAAAAAAAAAAAAAAAAAAAAAAAAAAAAAAAAAAAAAAAAAAAAAAAAAAAAAAAAAAAAAAAAAAAAAAAAAAAAAAAAAAAAAAAAAAAAAAAAAAAAAAAAAAAAAAAAAAAAAAAAAAAAAAAAAAAAAAAAAAAAAAAAAAAAAAAAAAAAAAAAAAAAAAAAAAAAAAAAAAAAAAAAAAAAAAAAAAAAAAAAAAAAAAAAAAAAAAAAAAAAAAAAAAAAAAAAAAAAAAAAAAAAAAAAAAAAAAAAAAAAAAAAAAAAAAAAAAAAAAAAAAAAAAAAAAAAAAAAAAAAAAAAAAAAAAAAAAAAAAAAAAAAAAAAAAAAAAAAAAAAAAAAAAAAAAAAAAAAAAAAAAAAAAAAAAAAAAAAAAAAAAAAAAAAAAAAAAAAAAAAAAAAAAAAAAAAAAAAAAAAAAAAAAAAAAAAAAAAAAAAAAAAAAAAAAAAAAAAAAAAAAAAAAAAAAAAAAAAAAAAAAAAAAAAAAAAAAAAAAAAAAAAAAAAAAAAAAAAAAAAAAAAAAAAAAAAAAAAAAAAAAAAAAAAAAAAAAAAAAAAAAAAAAAAAAAAAAAAAAAAAAAAAAAAAAAAAAAAAAAAAAFdpbmRvd3MgUGhvdG8gRWRpdG9yIDEwLjAuMTAwMTEuMTYzODQAV2luZG93cyBQaG90byBFZGl0b3IgMTAuMC4xMDAxMS4xNjM4NAAyMDIyOjAyOjE1IDE0OjM2OjA4AAAGkAMAAgAAABQAABEckAQAAgAAABQAABEwkpEAAgAAAAMwMAAAkpIAAgAAAAMwMAAAoAEAAwAAAAEAAQAA6hwABwAACAwAAAkQAAAAABzqAAAACAAAAAAAAAAAAAAAAAAAAAAAAAAAAAAAAAAAAAAAAAAAAAAAAAAAAAAAAAAAAAAAAAAAAAAAAAAAAAAAAAAAAAAAAAAAAAAAAAAAAAAAAAAAAAAAAAAAAAAAAAAAAAAAAAAAAAAAAAAAAAAAAAAAAAAAAAAAAAAAAAAAAAAAAAAAAAAAAAAAAAAAAAAAAAAAAAAAAAAAAAAAAAAAAAAAAAAAAAAAAAAAAAAAAAAAAAAAAAAAAAAAAAAAAAAAAAAAAAAAAAAAAAAAAAAAAAAAAAAAAAAAAAAAAAAAAAAAAAAAAAAAAAAAAAAAAAAAAAAAAAAAAAAAAAAAAAAAAAAAAAAAAAAAAAAAAAAAAAAAAAAAAAAAAAAAAAAAAAAAAAAAAAAAAAAAAAAAAAAAAAAAAAAAAAAAAAAAAAAAAAAAAAAAAAAAAAAAAAAAAAAAAAAAAAAAAAAAAAAAAAAAAAAAAAAAAAAAAAAAAAAAAAAAAAAAAAAAAAAAAAAAAAAAAAAAAAAAAAAAAAAAAAAAAAAAAAAAAAAAAAAAAAAAAAAAAAAAAAAAAAAAAAAAAAAAAAAAAAAAAAAAAAAAAAAAAAAAAAAAAAAAAAAAAAAAAAAAAAAAAAAAAAAAAAAAAAAAAAAAAAAAAAAAAAAAAAAAAAAAAAAAAAAAAAAAAAAAAAAAAAAAAAAAAAAAAAAAAAAAAAAAAAAAAAAAAAAAAAAAAAAAAAAAAAAAAAAAAAAAAAAAAAAAAAAAAAAAAAAAAAAAAAAAAAAAAAAAAAAAAAAAAAAAAAAAAAAAAAAAAAAAAAAAAAAAAAAAAAAAAAAAAAAAAAAAAAAAAAAAAAAAAAAAAAAAAAAAAAAAAAAAAAAAAAAAAAAAAAAAAAAAAAAAAAAAAAAAAAAAAAAAAAAAAAAAAAAAAAAAAAAAAAAAAAAAAAAAAAAAAAAAAAAAAAAAAAAAAAAAAAAAAAAAAAAAAAAAAAAAAAAAAAAAAAAAAAAAAAAAAAAAAAAAAAAAAAAAAAAAAAAAAAAAAAAAAAAAAAAAAAAAAAAAAAAAAAAAAAAAAAAAAAAAAAAAAAAAAAAAAAAAAAAAAAAAAAAAAAAAAAAAAAAAAAAAAAAAAAAAAAAAAAAAAAAAAAAAAAAAAAAAAAAAAAAAAAAAAAAAAAAAAAAAAAAAAAAAAAAAAAAAAAAAAAAAAAAAAAAAAAAAAAAAAAAAAAAAAAAAAAAAAAAAAAAAAAAAAAAAAAAAAAAAAAAAAAAAAAAAAAAAAAAAAAAAAAAAAAAAAAAAAAAAAAAAAAAAAAAAAAAAAAAAAAAAAAAAAAAAAAAAAAAAAAAAAAAAAAAAAAAAAAAAAAAAAAAAAAAAAAAAAAAAAAAAAAAAAAAAAAAAAAAAAAAAAAAAAAAAAAAAAAAAAAAAAAAAAAAAAAAAAAAAAAAAAAAAAAAAAAAAAAAAAAAAAAAAAAAAAAAAAAAAAAAAAAAAAAAAAAAAAAAAAAAAAAAAAAAAAAAAAAAAAAAAAAAAAAAAAAAAAAAAAAAAAAAAAAAAAAAAAAAAAAAAAAAAAAAAAAAAAAAAAAAAAAAAAAAAAAAAAAAAAAAAAAAAAAAAAAAAAAAAAAAAAAAAAAAAAAAAAAAAAAAAAAAAAAAAAAAAAAAAAAAAAAAAAAAAAAAAAAAAAAAAAAAAAAAAAAAAAAAAAAAAAAAAAAAAAAAAAAAAAAAAAAAAAAAAAAAAAAAAAAAAAAAAAAAAAAAAAAAAAAAAAAAAAAAAAAAAAAAAAAAAAAAAAAAAAAAAAAAAAAAAAAAAAAAAAAAAAAAAAAAAAAAAAAAAAAAAAAAAAAAAAAAAAAAAAAAAAAAAAAAAAAAAAAAAAAAAAAAAAAAAAAAAAAAAAAAAAAAAAAAAAAAAAAAAAAAAAAAAAAAAAAAAAAAAAAAAAAAAAAAAAAAAAAAAAAAAAAAAAAAAAAAAAAAAAAAAAAAAAAAAAAAAAAAAAAAAAAAAAAAAAAAAAAAAAAAAAAAAAAAAAAAAAAAAAAAAAAAAAAAAAAAAAAAAAAAAAAAAAAAAAAAAAAAAAAAAAAAAAAAAAAAAAAAAAAAAAAAAAAAAAAAAAAAAAAAAAAAAAAAAAAAAAAAAAAAAAAAAAAAAAAAAAAAAAAAAAAAAAAAAAAAAAAAAAAAAAAAAAAAAAAAAAAAAAAAAAAAAAAAAAAAAAAAAAAAAAAAAAAAAAAAAAAAAAAAAAAAAAAAAAAAAAAAAAAAAAAAAAAAAAAAAAAAAAAAAAAAAAAAAAAAAAAAAAAAAAAAAAAAAAAAAAAAAAAAAAAAAAAAAAAAAAAAAAAAAAAAAAAAAAAAAAAAAAAAAAAAAAAAAAAAAAAAAAAAAAAAAAAAAAAAAAAAAAAAAAAAAAAAAAAAAAAAAAAAAAAAAAAAAAAAAAAAAAAAAAAAAAAAAAAAAAAAAAAAAAAAAAAAAAAAAAAAAAAAAAAAAAAAAAAAAAAAAAAAAAAAAAAAAAAAAAAAAAAAAAAAAAAAAAAAAAAAAAAAAAAAAAAAAAAAAAAAAAAAAAAAAAAAAAAAAAAAAAAAAAAAAAAAAAAAAAAAAAAAAAAAAAAAAAAAAAAAAAAAAAAAAAAAAAAAAAAAAAAAAAAAAAAAAAAAAAAAAAAAAAAAAAAAAAAAAAAAAAAAAAAAAAAAAAAAAAAAAAAAAAAAAAAAAAAAAAAAAAAAAAAAAAAAAAAAAAAAAAAAAAAAAAAAAAAAAAAAAMjAyMjowMjoxNSAxNDoyNDoxMAAyMDIyOjAyOjE1IDE0OjI0OjEwAAAAAAYBAwADAAAAAQAGAAABGgAFAAAAAQAAEZQBGwAFAAAAAQAAEZwBKAADAAAAAQACAAACAQAEAAAAAQAAEaQCAgAEAAAAAQAAE4YAAAAAAAAAYAAAAAEAAABgAAAAAf/Y/9sAQwAIBgYHBgUIBwcHCQkICgwUDQwLCwwZEhMPFB0aHx4dGhwcICQuJyAiLCMcHCg3KSwwMTQ0NB8nOT04MjwuMzQy/9sAQwEJCQkMCwwYDQ0YMiEcITIyMjIyMjIyMjIyMjIyMjIyMjIyMjIyMjIyMjIyMjIyMjIyMjIyMjIyMjIyMjIyMjIy/8AAEQgAagEAAwEhAAIRAQMRAf/EAB8AAAEFAQEBAQEBAAAAAAAAAAABAgMEBQYHCAkKC//EALUQAAIBAwMCBAMFBQQEAAABfQECAwAEEQUSITFBBhNRYQcicRQygZGhCCNCscEVUtHwJDNicoIJChYXGBkaJSYnKCkqNDU2Nzg5OkNERUZHSElKU1RVVldYWVpjZGVmZ2hpanN0dXZ3eHl6g4SFhoeIiYqSk5SVlpeYmZqio6Slpqeoqaqys7S1tre4ubrCw8TFxsfIycrS09TV1tfY2drh4uPk5ebn6Onq8fLz9PX29/j5+v/EAB8BAAMBAQEBAQEBAQEAAAAAAAABAgMEBQYHCAkKC//EALURAAIBAgQEAwQHBQQEAAECdwABAgMRBAUhMQYSQVEHYXETIjKBCBRCkaGxwQkjM1LwFWJy0QoWJDThJfEXGBkaJicoKSo1Njc4OTpDREVGR0hJSlNUVVZXWFlaY2RlZmdoaWpzdHV2d3h5eoKDhIWGh4iJipKTlJWWl5iZmqKjpKWmp6ipqrKztLW2t7i5usLDxMXGx8jJytLT1NXW19jZ2uLj5OXm5+jp6vLz9PX29/j5+v/aAAwDAQACEQMRAD8A9/ooAKKACigAprusaF2OAOtAFVpZ5On7pfTqaiO3Pzztu/66EfyoAYhhkMmydmMbbXxMTtOAcHnjginxvuBMFwTgkcNuGRxQBYjuHVwkwGGOA46Z9DVmgAooAKKACigAooAKKACigAooAKKACigAooAKKACigApkyGSIqDg9RmgCBZUztk/dv3Df0PesK68E6bes7zPOxdnbIYAjcHB5x/tnH0HpQBLB4VS30+XTkuP9Dlbe+Y/3pbIP3s47f3an0rw/ZaHJNLDI370AHfgDqT2HXJNAFxz9qKxwglQwLSdhg549elX6ACigAooAKKACigAooAKKACigAooAKKACigAooAKKACigBGVXGGAI9xUP2SH+FSh9UYj+VAFK0hMl5qCPNOVjmVVBlPA8tD/Mmrq2dupz5YJ9TzQBMAAMAUtABUF1eQWabpnxnOABknAzwPwobsVGLk7IljkSaJJEO5HAZT6g06gkKKACigBCQBknFCsGUMpBBGQR3oAWigAooAKKACigAooAKKACigBCMgj1qt9hXAHn3HAI/wBYe9BLjcRrJdp/f3H3QOJD2/rWKNU3Ntey1QN8rkANwM46enqKiUuU1pYdVL+9Yn0eM3Ut9K/2iFhcZ2M5zzGnWtT7Cu0Dz7jhSv8ArD+f1qlsZyppNpMkitxE+4SSt8oXDuSOO/1p8sqQxNJIwVFGST2FMcY9EZtzf3VwRFpkYbcu7z3B2Acj88gce9La6U3lwfb2juJIclWK8gk5/Tj8qjVvyOi8acbL4hmu+IbDw9aiW7Y7m4jiT7zf/Wrz6/8AidqUzEWUENunYsN7f4VNSpy6I+fzHM/q79nDWRkSeOfEchz/AGm6+yxoP6U6Lx54iiI/4mJcejxof6Vh7WR4izXFXvc3dN+KFyjKupWkcid3h4I/A16Lpup2urWSXdnKJIn79wfQ+9b06nMe/l2YrErllpJDr6yh1C2NvOCYyckA9aowaPcWk0Zg1GfygRvST5sgfyz3q3HW57UKto8jV0a9FUYhRQAUUAFFABRQAUUAFFABRQAUUAYuj6nZXmravBbXCSSxzqXVeq/u0HPpyD+RraoAoXWqxW9zFbKjyyvIEIUH5c8kn6CoYbKa5umuZ53MJJ2REEAqRjkH/PFS9Wbpezjd9SRr5mkNrpsAmZPleQnbFH7E9z7D8cVDeaXf39jcQS6mY2ljZB5MYUKSMZ9f1qjA4Dxl4P1O1srS4hubrU1gj2SvKdzj3+lea3Vu00ysZHjKAjAJHcH+lctRNSufK5hTlSxTqNXTKy2Eg5N5MT/vH/Gk/s5ucXUgJ6kH2wf8ajmRzfWY/wApes7eUMY0aSZ3bIHJP4V6bofhvxFpugC6t9Qks2MvmzW3HzRgc9jhsCtKSblc7sqpSniHVtZHex2dw0SSQ6ncAMoI3qrdfwpSNVg5DW92o/hOY2P48j9B9a6T6UfBq1rK6wyMbe4ZtnkTYV92CcDseAeRkcVK92NxWJDIR1OcKPx/woAjMtw38ar/ALq/40n709Znz7YFACYk/wCe0n50u+ccCb8CooAeLmVeXjDj1Q4P5H/GrEciSruQ5FAD6KACigAooAKQkAEk4A6mgCs10zcQpkf334H4Dv8ApUe+4PJmwf8AZUAfrmgCrbWCWdxczwMUlunDzMFX52AxnpVsS3C9HVx6MMH8x/hQBJDJEZTmMRzN1/2vx71XvZZLm4GnWzFSRuuJR/yzT0H+0e3oMn0yDbuXYYI7eFYYUCRqMACpKBBWRf8AhfRdTJa60+FnP8YXB/MUmk9zOpShUXLNXRg3vwz0J7eU2sUqTbTsHmnGe1N03wF4YuIhIsEzOvEkckh3I3cEVHsonH/ZmHvexvwaXoegxNJFbQW4QZLbefSmNrK3mn3zRwusYQJEzD/WMwwAB+I/Oquk7I9Knh1CleKska1tGYbWKM9UQKfwFS1RJk6t4d0/Wbm2ubtJDPandA6SMuw+vBq1GUQLE/yOBjB7/SgDBuPD+uTTyMmutFG8khIVDkKxO0D5sAqDjpzgGpNQ0jU9ViVIbqfT41j8soz7mf5lOcq3oCM570ARSaBrskNrGNdKeUGDuqHc5JUgk556EfQ+tVG8I60Hmkj19hMyoqTMrFgoH3Tz3JPPpQBuaTp50WwaC5uzMTM7q7k5CljtXknoMDj0q/a7nmklClYyAAD396ALdFABRQAUUAV7y7SzhDsCzMwSNF6ux6Af57ViJp2vya3LeT6giae0a/6CihssOvzHkcY6YyaANqPZIMqenUdx9axNS0vXZ7x5LLUY4ISwAU/wrtIPGOuTnr6elACTafrM+nxWkV00U0Z/eXDsP3uVI4wOOSD26Dr0q7oen31jYtDqF19pl8wlX3FiFwMAk9cc9h+eSQCa9Uyp9nglKXBIIdACY+c554/Oo9IBs5JLC45uh+8MvecdN316Ajtx2xQBrUUAFFABVO606G5k85XkguAMCeE4YfXqGHsQRQBSn0u+neMyz2txsBA8yFlyOPvANhug7CrMGnOZ0nvJxM8f+rjRNkaH1AyST7kn2xzSsU5NqxoUUyQpGRXGGUMPQigCD7HGP9W0kf8AuOQPy6VBdP8AYofNmvpACdqrsUlj2AGOTQAWkd9JbK9xcNHI2TsCL8o7A8dam+ys3+suZm+hC/yxQA+O0gjO5Yxu9TyamoAKKACigAooAzbVRe6nNeNykGYYB2H99vqTgfQe5rSoAikt45W3MpDjgMpwfzFN8iVfuXLf8CUGgDkbHxTrF14uudKl094bFX2R3ckZTJxnHPr2FdYbVn/1lxKw9Adv8qAK92ZrCIPZWqyRry6J9489v1NNn2X9vbyE/ZbwfvIBIRuU9DxnkHOCPf1pX1NOROCa3JrPUFnc286+TeIMtEx6j+8v95fcfjzV2mZlTUdTs9KtWub2dYYh3PUn0A6k1w9/8UYVYrYWLOB0eVsZ/AVnOoonnY7MYYXTdmQ/xN1hj8kFqo9NpP8AWnRfE7VlP7y2tpB6AEVl7ZnjLPat9Vobum/E2wndY7+2ktif+Wi/Mo/rXbwXEN1Ak0EiyROMq6nIIraE1I9zBY6nio3jo+xJRVncFFAFe8u0srYysrOchURersegFQWlk/mi8vSr3ZGAB92IH+Ff6nvQBfooAKKAI5ZkhHzHk9ABkmq5uZm+7EqD1c5P5D/GgBPNuT/Gg+if/XoE1yO8Z/4CR/WgB63mOJoyn+0DuX/H9KNQuxaafJOvzNjbGoP33PCgfUkCgAtrVrXTkt0Yb1TG71bufzpNOhuoLQJeTiaYE5cDGR2/SlrctOPK1bUt0UyDJtLaO+s7zzM7Zrh2Vh1GDhSPyFT2F1IXazu+LqIde0q9nH9R2PtgkAv1n3Wj2l0FymxkOVZe1JpMuFRwd0V7yJkBF9Elzag5R14eM9AB/jmoGhkvdNnXSdYlDvGyRiRg21sYGSRkYNJPWzKlC8eeOxwfjbStdtraxk1K8N+sce1pkj2qre4/rXF1y1U+Y+GzeM1ipOXXYq3S3jEG2eNQB0bufyp9styof7Q6sScrt7Co0scblS9nZL3ieu/8My+JNG0OGe3giaxlugJFmVi0aHA3qARxnt+Na0b8x6WRxm8RzLZI9QorqPrgooAzgPtettnmOzUAenmMM/ouP++q0aACigAooAqbf9Kl3/eYjbn+7gdPxzTnjbY2wAtjgHpmgDlVg8YtFGZJIhIGRmCqij7rFl75G7YM5HB6cZNvQB4jkvJzq6xrbrlUAVQWPy4PH/A89uVx3oA6AoFBJIAHUmsiISNrcHnMGsiWNqoGMSAck+vGcdMc0Ab9FABVTUbr7LaEoN00h8uFO7Oeg/r9AaAJLO3FpZxQA52KAT6nufzpl9Z/akVo38q4jO6KUDO0+47g9xQA2yvjOzQToIbuMfPHnIPup7irlAAQCMEZrLm0kR3T3dkkSXDIVy2cA9jjp+lJq5pTm43XRklmLqeGWDUYUYDjJHDD6d/r+grGv/h/oV8xdIZLZz1MLYH5HIqXFSXvHLjMJRxHuyWhgXvwwjit5Zba/ldkUsqNGCWx24p9l8M7G4hjnbU5ZInUMDGoGR+Oaz9ijyFkdK+5qJ4d8M+HdskkfnTZwu87yT16dM8VsXFwL3TbWBYjE924AjPVVByx/AD9RWkbJ8qPbo4KGHpXirI2aKsoKQkKCSQAOpNAGbojCS3uZ8gvLdTFiD2DlF/8dVa06ACigAooAZJGkq7XXI/lUXkTJ/q7g49JBux+PX86AD/Sh2ib3yRSbbs/xxL/AMBJoAPsYcgzyvLjoDwPyFQX4AvdJwMf6Uw4/wCuMtAFjFyb8ncgtRGMDHzFsnP4YxVikhu3QKzNPU38i6pL91l/0ZP7iH+L6tx+HFMRp0UAVbyxjvFUlmjmjOY5ozhkPt7eoPB71WGoS2PyamgVB0ukH7s/73938ePegDSVldQyMGUjIIOQaWgAooAKzmsJraZ5tOkRBIdzwSD92x7kY5Unvjg+meaAK4t7oXLTf2ZCZmORI8+VU+oGMirlnZNFM91cuJbpxt3AYVF/uqOw9e5/AYSVipScty7UUlzFE20nL/3VGTTJIjdufuwn6scVHJLLLE8bxRMjgqwJPINAGZ4f0lPDmliwtEVkDs5dmO5iTnn9B+FawupR96IH/dagB63kROH3Rn/bHH59KsUAFFABRQAUUAFZ2r5iitrwKWW1nErgDJ2EFGP4BifwoAdb6vaahbrNp88dyrkgMjZAx1zVaa/tkvVtLi/Rblk3iHzNh288469j+RoAWRrFVzI0J5AJODyTjn86ekNrysaw/L2UD5f8KACKeNpTHBeK0i9U8wMRxnkdelXYZy7GOQASAZ46Ee1AE9FAGedIt0YtatJaMTkiBsKT/u/d/SjydUj+5dwSj/prEQf0NACefqanBhs3PtMy/wDsppPteo7iptbMEdR9qPH/AI5Suh8rD7TqP/PCzH/bwf8A4mkF1qJVWCWO1hlT5zYP04ouh8r7Em7VT/yzs/8Avtv8KM6t/ds/zamSNY6ttPFrjvt3Z/D3omDx6fPLYxCaYRs0cZbG98cAk9MnjJoA564ufGCHMGl28iZAwXQNghsn7+OCE4z3qeW61ptMt47C3+0XqoRcs6hAjbeMbiAefTj3oAEuvE32S33aSv2gy/vv3ke0R7u3z9cDPfqPfFIzeNAzSf2bEzpENsayII3fI3ZJfI4zjjrjpzQBsWLan5Mgv1VZeoUBSFB6ZwxzVqGaURTBDJ5cbOAwAwMZoAu2nmbX8wSZzxvx0/CoEkmDAsGLsPfGeOPT1/KgDQooAKKACkIDKQehGKAM200Wy0lP+JbaRwgkl0QY3++fWqOo+HtG1iWd7xG86VVRizFWCrnAHp94/nQBC3gXQ5POJhkKzBwwEhxhgQf5/nVm18MWumyTNYt5S3AAn3guzgehJ47/AImgCGy8OaJpN9Hd24bz0XaoDluNoXp9FH5VswJI8/nuuxQNqKeuPU0AW6KACigCg2k2xnE6hlmUllbOcE9Tg8UjaNZO7PJGXdyC5J+8ef8AE1PIjX20kNfQtPcfND04BzyOc/1pW0a2lRVm3SBFKJzjauMY49qXIh+3kaCqEUKvQDApasxCoXt0dtwLIx6spxmgBvl3K/dmRv8AfTn9CKTddjjyIW9xIR+mKADzLvtbRfjL/wDY0bbxurQoPZSTQBGNOjZi0ztIScnsM9O1Wfs8Xk+SEAj/ALo4FAElMEaK5cLhj3oAfRQAUUAFFABTXVWGGUH6igDKnRVkO1QOewqNFBkXIB57igDWhjRV+VFH0FS0AFFABRQAUUAFFABRQAUUAFFABRQAUUAFFAH/2f/hMeRodHRwOi8vbnMuYWRvYmUuY29tL3hhcC8xLjAvADw/eHBhY2tldCBiZWdpbj0n77u/JyBpZD0nVzVNME1wQ2VoaUh6cmVTek5UY3prYzlkJz8+DQo8eDp4bXBtZXRhIHhtbG5zOng9ImFkb2JlOm5zOm1ldGEvIj48cmRmOlJERiB4bWxuczpyZGY9Imh0dHA6Ly93d3cudzMub3JnLzE5OTkvMDIvMjItcmRmLXN5bnRheC1ucyMiPjxyZGY6RGVzY3JpcHRpb24gcmRmOmFib3V0PSJ1dWlkOmZhZjViZGQ1LWJhM2QtMTFkYS1hZDMxLWQzM2Q3NTE4MmYxYiIgeG1sbnM6eG1wPSJodHRwOi8vbnMuYWRvYmUuY29tL3hhcC8xLjAvIj48eG1wOkNyZWF0b3JUb29sPldpbmRvd3MgUGhvdG8gRWRpdG9yIDEwLjAuMTAwMTEuMTYzODQ8L3htcDpDcmVhdG9yVG9vbD48eG1wOkNyZWF0ZURhdGU+MjAyMi0wMi0xNVQxNDoyNDoxMDwveG1wOkNyZWF0ZURhdGU+PC9yZGY6RGVzY3JpcHRpb24+PC9yZGY6UkRGPjwveDp4bXBtZXRhPg0KICAgICAgICAgICAgICAgICAgICAgICAgICAgICAgICAgICAgICAgICAgICAgICAgICAgICAgICAgICAgICAgICAgICAgICAgICAgICAgICAgICAgICAgICAgICAgICAgICAgIAogICAgICAgICAgICAgICAgICAgICAgICAgICAgICAgICAgICAgICAgICAgICAgICAgICAgICAgICAgICAgICAgICAgICAgICAgICAgICAgICAgICAgICAgICAgICAgICAgICAgCiAgICAgICAgICAgICAgICAgICAgICAgICAgICAgICAgICAgICAgICAgICAgICAgICAgICAgICAgICAgICAgICAgICAgICAgICAgICAgICAgICAgICAgICAgICAgICAgICAgICAKICAgICAgICAgICAgICAgICAgICAgICAgICAgICAgICAgICAgICAgICAgICAgICAgICAgICAgICAgICAgICAgICAgICAgICAgICAgICAgICAgICAgICAgICAgICAgICAgICAgIAogICAgICAgICAgICAgICAgICAgICAgICAgICAgICAgICAgICAgICAgICAgICAgICAgICAgICAgICAgICAgICAgICAgICAgICAgICAgICAgICAgICAgICAgICAgICAgICAgICAgCiAgICAgICAgICAgICAgICAgICAgICAgICAgICAgICAgICAgICAgICAgICAgICAgICAgICAgICAgICAgICAgICAgICAgICAgICAgICAgICAgICAgICAgICAgICAgICAgICAgICAKICAgICAgICAgICAgICAgICAgICAgICAgICAgICAgICAgICAgICAgICAgICAgICAgICAgICAgICAgICAgICAgICAgICAgICAgICAgICAgICAgICAgICAgICAgICAgICAgICAgIAogICAgICAgICAgICAgICAgICAgICAgICAgICAgICAgICAgICAgICAgICAgICAgICAgICAgICAgICAgICAgICAgICAgICAgICAgICAgICAgICAgICAgICAgICAgICAgICAgICAgCiAgICAgICAgICAgICAgICAgICAgICAgICAgICAgICAgICAgICAgICAgICAgICAgICAgICAgICAgICAgICAgICAgICAgICAgICAgICAgICAgICAgICAgICAgICAgICAgICAgICAKICAgICAgICAgICAgICAgICAgICAgICAgICAgICAgICAgICAgICAgICAgICAgICAgICAgICAgICAgICAgICAgICAgICAgICAgICAgICAgICAgICAgICAgICAgICAgICAgICAgIAogICAgICAgICAgICAgICAgICAgICAgICAgICAgICAgICAgICAgICAgICAgICAgICAgICAgICAgICAgICAgICAgICAgICAgICAgICAgICAgICAgICAgICAgICAgICAgICAgICAgCiAgICAgICAgICAgICAgICAgICAgICAgICAgICAgICAgICAgICAgICAgICAgICAgICAgICAgICAgICAgICAgICAgICAgICAgICAgICAgICAgICAgICAgICAgICAgICAgICAgICAKICAgICAgICAgICAgICAgICAgICAgICAgICAgICAgICAgICAgICAgICAgICAgICAgICAgICAgICAgICAgICAgICAgICAgICAgICAgICAgICAgICAgICAgICAgICAgICAgICAgIAogICAgICAgICAgICAgICAgICAgICAgICAgICAgICAgICAgICAgICAgICAgICAgICAgICAgICAgICAgICAgICAgICAgICAgICAgICAgICAgICAgICAgICAgICAgICAgICAgICAgCiAgICAgICAgICAgICAgICAgICAgICAgICAgICAgICAgICAgICAgICAgICAgICAgICAgICAgICAgICAgICAgICAgICAgICAgICAgICAgICAgICAgICAgICAgICAgICAgICAgICAKICAgICAgICAgICAgICAgICAgICAgICAgICAgICAgICAgICAgICAgICAgICAgICAgICAgICAgICAgICAgICAgICAgICAgICAgICAgICAgICAgICAgICAgICAgICAgICAgICAgIAogICAgICAgICAgICAgICAgICAgICAgICAgICAgICAgICAgICAgICAgICAgICAgICAgICAgICAgICAgICAgICAgICAgICAgICAgICAgICAgICAgICAgICAgICAgICAgICAgICAgCiAgICAgICAgICAgICAgICAgICAgICAgICAgICAgICAgICAgICAgICAgICAgICAgICAgICAgICAgICAgICAgICAgICAgICAgICAgICAgICAgICAgICAgICAgICAgICAgICAgICAKICAgICAgICAgICAgICAgICAgICAgICAgICAgICAgICAgICAgICAgICAgICAgICAgICAgICAgICAgICAgICAgICAgICAgICAgICAgICAgICAgICAgICAgICAgICAgICAgICAgIAogICAgICAgICAgICAgICAgICAgICAgICAgICAgICAgICAgICAgICAgICAgICAgICAgICAgICAgICAgICAgICAgICAgICAgICAgICAgICAgICAgICAgICAgICAgICAgICAgICAgCiAgICAgICAgICAgICAgICAgICAgICAgICAgICAgICAgICAgICAgICAgICAgICAgICAgICAgICAgICAgICAgICAgICAgICAgICAgICAgICAgICAgICAgICAgICAgICAgICAgICAKICAgICAgICAgICAgICAgICAgICAgICAgICAgICAgICAgICAgICAgICAgICAgICAgICAgICAgICAgICAgICAgICAgICAgICAgICAgICAgICAgICAgICAgICAgICAgICAgICAgIAogICAgICAgICAgICAgICAgICAgICAgICAgICAgICAgICAgICAgICAgICAgICAgICAgICAgICAgICAgICAgICAgICAgICAgICAgICAgICAgICAgICAgICAgICAgICAgICAgICAgCiAgICAgICAgICAgICAgICAgICAgICAgICAgICAgICAgICAgICAgICAgICAgICAgICAgICAgICAgICAgICAgICAgICAgICAgICAgICAgICAgICAgICAgICAgICAgICAgICAgICAKICAgICAgICAgICAgICAgICAgICAgICAgICAgICAgICAgICAgICAgICAgICAgICAgICAgICAgICAgICAgICAgICAgICAgICAgICAgICAgICAgICAgICAgICAgICAgICAgICAgIAogICAgICAgICAgICAgICAgICAgICAgICAgICAgICAgICAgICAgICAgICAgICAgICAgICAgICAgICAgICAgICAgICAgICAgICAgICAgICAgICAgICAgICAgICAgICAgICAgICAgCiAgICAgICAgICAgICAgICAgICAgICAgICAgICAgICAgICAgICAgICAgICAgICAgICAgICAgICAgICAgICAgICAgICAgICAgICAgICAgICAgICAgICAgICAgICAgICAgICAgICAKICAgICAgICAgICAgICAgICAgICAgICAgICAgICAgICAgICAgICAgICAgICAgICAgICAgICAgICAgICAgICAgICAgICAgICAgICAgICAgICAgICAgICAgICAgICAgICAgICAgIAogICAgICAgICAgICAgICAgICAgICAgICAgICAgICAgICAgICAgICAgICAgICAgICAgICAgICAgICAgICAgICAgICAgICAgICAgICAgICAgICAgICAgICAgICAgICAgICAgICAgCiAgICAgICAgICAgICAgICAgICAgICAgICAgICAgICAgICAgICAgICAgICAgICAgICAgICAgICAgICAgICAgICAgICAgICAgICAgICAgICAgICAgICAgICAgICAgICAgICAgICAKICAgICAgICAgICAgICAgICAgICAgICAgICAgICAgICAgICAgICAgICAgICAgICAgICAgICAgICAgICAgICAgICAgICAgICAgICAgICAgICAgICAgICAgICAgICAgICAgICAgIAogICAgICAgICAgICAgICAgICAgICAgICAgICAgICAgICAgICAgICAgICAgICAgICAgICAgICAgICAgICAgICAgICAgICAgICAgICAgICAgICAgICAgICAgICAgICAgICAgICAgCiAgICAgICAgICAgICAgICAgICAgICAgICAgICAgICAgICAgICAgICAgICAgICAgICAgICAgICAgICAgICAgICAgICAgICAgICAgICAgICAgICAgICAgICAgICAgICAgICAgICAKICAgICAgICAgICAgICAgICAgICAgICAgICAgICAgICAgICAgICAgICAgICAgICAgICAgICAgICAgICAgICAgICAgICAgICAgICAgICAgICAgICAgICAgICAgICAgICAgICAgIAogICAgICAgICAgICAgICAgICAgICAgICAgICAgICAgICAgICAgICAgICAgICAgICAgICAgICAgICAgICAgICAgICAgICAgICAgICAgICAgICAgICAgICAgICAgICAgICAgICAgCiAgICAgICAgICAgICAgICAgICAgICAgICAgICAgICAgICAgICAgICAgICAgICAgICAgICAgICAgICAgICAgICAgICAgICAgICAgICAgICAgICAgICAgICAgICAgICAgICAgICAKICAgICAgICAgICAgICAgICAgICAgICAgICAgICAgICAgICAgICAgICAgICAgICAgICAgICAgICAgICAgICAgICAgICAgICAgICAgICAgICAgICAgICAgICAgICAgICAgICAgIAogICAgICAgICAgICAgICAgICAgICAgICAgICAgICAgICAgICAgICAgICAgICAgICAgICAgICAgICAgICAgICAgICAgICAgICAgICAgICAgICAgICAgICAgICAgICAgICAgICAgCiAgICAgICAgICAgICAgICAgICAgICAgICAgICAgICAgICAgICAgICAgICAgICAgICAgICAgICAgICAgICAgICAgICAgICAgICAgICAgICAgICAgICAgICAgICAgICAgICAgICAKICAgICAgICAgICAgICAgICAgICAgICAgICAgICAgICAgICAgICAgICAgICAgICAgICAgICAgICAgICAgICAgICAgICAgICAgICAgICAgICAgICAgICAgICAgICAgICAgICAgIAogICAgICAgICAgICAgICAgICAgICAgICAgICAgICAgICAgICAgICAgICAgICAgICAgICAgICAgICAgICAgICAgICAgICAgICAgICAgICAgICAgICAgICAgICAgICAgICAgICAgCiAgICAgICAgICAgICAgICAgICAgICAgICAgICAgICAgICAgICAgICAgICAgICAgICAgICAgICAgICAgICAgICAgICAgICAgICAgICAgICAgICAgICAgICAgICAgICAgICAgICAKICAgICAgICAgICAgICAgICAgICAgICAgICAgICAgICAgICAgICAgICAgICAgICAgICAgICAgICAgICAgICAgICAgICAgICAgICAgICAgICAgICAgICAgICAgICAgICAgICAgIAogICAgICAgICAgICAgICAgICAgICAgICAgICAgICAgICAgICAgICAgICAgICAgICAgICAgICAgICAgICAgICAgICAgICAgICAgICAgICAgICAgICAgICAgICAgICAgICAgICAgCiAgICAgICAgICAgICAgICAgICAgICAgICAgICAgICAgICAgICAgICAgICAgICAgICAgICAgICAgICAgICAgICAgICAgICAgICAgICAgICAgICAgICAgICAgICAgICAgICAgICAKICAgICAgICAgICAgICAgICAgICAgICAgICAgICAgICAgICAgICAgICAgICAgICAgICAgICAgICAgICAgICAgICAgICAgICAgICAgICAgICAgICAgICAgICAgICAgICAgICAgIAogICAgICAgICAgICAgICAgICAgICAgICAgICAgICAgICAgICAgICAgICAgICAgICAgICAgICAgICAgICAgICAgICAgICAgICAgICAgICAgICAgICAgICAgICAgICAgICAgICAgCiAgICAgICAgICAgICAgICAgICAgICAgICAgICAgICAgICAgICAgICAgICAgICAgICAgICAgICAgICAgICAgICAgICAgICAgICAgICAgICAgICAgICAgICAgICAgICAgICAgICAKICAgICAgICAgICAgICAgICAgICAgICAgICAgICAgICAgICAgICAgICAgICAgICAgICAgICAgICAgICAgICAgICAgICAgICAgICAgICAgICAgICAgICAgICAgICAgICAgICAgIAogICAgICAgICAgICAgICAgICAgICAgICAgICAgICAgICAgICAgICAgICAgICAgICAgICAgICAgICAgICAgICAgICAgICAgICAgICAgICAgICAgICAgICAgICAgICAgICAgICAgCiAgICAgICAgICAgICAgICAgICAgICAgICAgICAgICAgICAgICAgICAgICAgICAgICAgICAgICAgICAgICAgICAgICAgICAgICAgICAgICAgICAgICAgICAgICAgICAgICAgICAKICAgICAgICAgICAgICAgICAgICAgICAgICAgICAgICAgICAgICAgICAgICAgICAgICAgICAgICAgICAgICAgICAgICAgICAgICAgICAgICAgICAgICAgICAgICAgICAgICAgIAogICAgICAgICAgICAgICAgICAgICAgICAgICAgICAgICAgICAgICAgICAgICAgICAgICAgICAgICAgICAgICAgICAgICAgICAgICAgICAgICAgICAgICAgICAgICAgICAgICAgCiAgICAgICAgICAgICAgICAgICAgICAgICAgICAgICAgICAgICAgICAgICAgICAgICAgICAgICAgICAgICAgICAgICAgICAgICAgICAgICAgICAgICAgICAgICAgICAgICAgICAKICAgICAgICAgICAgICAgICAgICAgICAgICAgICAgICAgICAgICAgICAgICAgICAgICAgICAgICAgICAgICAgICAgICAgICAgICAgICAgICAgICAgICAgICAgICAgICAgICAgIAogICAgICAgICAgICAgICAgICAgICAgICAgICAgICAgICAgICAgICAgICAgICAgICAgICAgICAgICAgICAgICAgICAgICAgICAgICAgICAgICAgICAgICAgICAgICAgICAgICAgCiAgICAgICAgICAgICAgICAgICAgICAgICAgICAgICAgICAgICAgICAgICAgICAgICAgICAgICAgICAgICAgICAgICAgICAgICAgICAgICAgICAgICAgICAgICAgICAgICAgICAKICAgICAgICAgICAgICAgICAgICAgICAgICAgICAgICAgICAgICAgICAgICAgICAgICAgICAgICAgICAgICAgICAgICAgICAgICAgICAgICAgICAgICAgICAgICAgICAgICAgIAogICAgICAgICAgICAgICAgICAgICAgICAgICAgICAgICAgICAgICAgICAgICAgICAgICAgICAgICAgICAgICAgICAgICAgICAgICAgICAgICAgICAgICAgICAgICAgICAgICAgCiAgICAgICAgICAgICAgICAgICAgICAgICAgICAgICAgICAgICAgICAgICAgICAgICAgICAgICAgICAgICAgICAgICAgICAgICAgICAgICAgICAgICAgICAgICAgICAgICAgICAKICAgICAgICAgICAgICAgICAgICAgICAgICAgICAgICAgICAgICAgICAgICAgICAgICAgICAgICAgICAgICAgICAgICAgICAgICAgICAgICAgICAgICAgICAgICAgICAgICAgIAogICAgICAgICAgICAgICAgICAgICAgICAgICAgICAgICAgICAgICAgICAgICAgICAgICAgICAgICAgICAgICAgICAgICAgICAgICAgICAgICAgICAgICAgICAgICAgICAgICAgCiAgICAgICAgICAgICAgICAgICAgICAgICAgICAgICAgICAgICAgICAgICAgICAgICAgICAgICAgICAgICAgICAgICAgICAgICAgICAgICAgICAgICAgICAgICAgICAgICAgICAKICAgICAgICAgICAgICAgICAgICAgICAgICAgICAgICAgICAgICAgICAgICAgICAgICAgICAgICAgICAgICAgICAgICAgICAgICAgICAgICAgICAgICAgICAgICAgICAgICAgIAogICAgICAgICAgICAgICAgICAgICAgICAgICAgICAgICAgICAgICAgICAgICAgICAgICAgICAgICAgICAgICAgICAgICAgICAgICAgICAgICAgICAgICAgICAgICAgICAgICAgCiAgICAgICAgICAgICAgICAgICAgICAgICAgICAgICAgICAgICAgICAgICAgICAgICAgICAgICAgICAgICAgICAgICAgICAgICAgICAgICAgICAgICAgICAgICAgICAgICAgICAKICAgICAgICAgICAgICAgICAgICAgICAgICAgICAgICAgICAgICAgICAgICAgICAgICAgICAgICAgICAgICAgICAgICAgICAgICAgICAgICAgICAgICAgICAgICAgICAgICAgIAogICAgICAgICAgICAgICAgICAgICAgICAgICAgICAgICAgICAgICAgICAgICAgICAgICAgICAgICAgICAgICAgICAgICAgICAgICAgICAgICAgICAgICAgICAgICAgICAgICAgCiAgICAgICAgICAgICAgICAgICAgICAgICAgICAgICAgICAgICAgICAgICAgICAgICAgICAgICAgICAgICAgICAgICAgICAgICAgICAgICAgICAgICAgICAgICAgICAgICAgICAKICAgICAgICAgICAgICAgICAgICAgICAgICAgICAgICAgICAgICAgICAgICAgICAgICAgICAgICAgICAgICAgICAgICAgICAgICAgICAgICAgICAgICAgICAgICAgICAgICAgIAogICAgICAgICAgICAgICAgICAgICAgICAgICAgICAgICAgICAgICAgICAgICAgICAgICAgICAgICAgICAgICAgICAgICAgICAgICAgICAgICAgICAgICAgICAgICAgICAgICAgCiAgICAgICAgICAgICAgICAgICAgICAgICAgICAgICAgICAgICAgICAgICAgICAgICAgICAgICAgICAgICAgICAgICAgICAgICAgICAgICAgICAgICAgICAgICAgICAgICAgICAKICAgICAgICAgICAgICAgICAgICAgICAgICAgICAgICAgICAgICAgICAgICAgICAgICAgICAgICAgICAgICAgICAgICAgICAgICAgICAgICAgICAgICAgICAgICAgICAgICAgIAogICAgICAgICAgICAgICAgICAgICAgICAgICAgICAgICAgICAgICAgICAgICAgICAgICAgICAgICAgICAgICAgICAgICAgICAgICAgICAgICAgICAgICAgICAgICAgICAgICAgCiAgICAgICAgICAgICAgICAgICAgICAgICAgICAgICAgICAgICAgICAgICAgICAgICAgICAgICAgICAgICAgICAgICAgICAgICAgICAgICAgICAgICAgICAgICAgICAgICAgICAKICAgICAgICAgICAgICAgICAgICAgICAgICAgICAgICAgICAgICAgICAgICAgICAgICAgICAgICAgICAgICAgICAgICAgICAgICAgICAgICAgICAgICAgICAgICAgICAgICAgIAogICAgICAgICAgICAgICAgICAgICAgICAgICAgICAgICAgICAgICAgICAgICAgICAgICAgICAgICAgICAgICAgICAgICAgICAgICAgICAgICAgICAgICAgICAgICAgICAgICAgCiAgICAgICAgICAgICAgICAgICAgICAgICAgICAgICAgICAgICAgICAgICAgICAgICAgICAgICAgICAgICAgICAgICAgICAgICAgICAgICAgICAgICAgICAgICAgICAgICAgICAKICAgICAgICAgICAgICAgICAgICAgICAgICAgICAgICAgICAgICAgICAgICAgICAgICAgICAgICAgICAgICAgICAgICAgICAgICAgICAgICAgICAgICAgICAgICAgICAgICAgIAogICAgICAgICAgICAgICAgICAgICAgICAgICAgICAgICAgICAgICAgICAgICAgICAgICAgICAgICAgICAgICAgICAgICAgICAgICAgICAgICAgICAgICAgICAgICAgICAgICAgCiAgICAgICAgICAgICAgICAgICAgICAgICAgICAgICAgICAgICAgICAgICAgICAgICAgICAgICAgICAgICAgICAgICAgICAgICAgICAgICAgICAgICAgICAgICAgICAgICAgICAKICAgICAgICAgICAgICAgICAgICAgICAgICAgICAgICAgICAgICAgICAgICAgICAgICAgICAgICAgICAgICAgICAgICAgICAgICAgICAgICAgICAgICAgICAgICAgICAgICAgIAogICAgICAgICAgICAgICAgICAgICAgICAgICAgICAgICAgICAgICAgICAgICAgICAgICAgICAgICAgICAgICAgICAgICAgICAgICAgICAgICAgICAgICAgICAgICAgICAgICAgCiAgICAgICAgICAgICAgICAgICAgICAgICAgICAgICAgICAgICAgICAgICAgICAgICAgICAgICAgICAgICAgICAgICAgICAgICAgICAgICAgICAgICAgICAgICAgICAgICAgICAKICAgICAgICAgICAgICAgICAgICAgICAgICAgICAgICAgICAgICAgICAgICAgICAgICAgICAgICAgICAgICAgICAgICAgICAgICAgICAgICAgICAgICAgICAgICAgICAgICAgIAogICAgICAgICAgICAgICAgICAgICAgICAgICAgICAgICAgICAgICAgICAgICAgICAgICAgICAgICAgICAgICAgICAgICAgICAgICAgICAgICAgICAgICAgICAgICAgICAgICAgCiAgICAgICAgICAgICAgICAgICAgICAgICAgICAgICAgICAgICAgICAgICAgICAgICAgICAgICAgICAgICAgICAgICAgICAgICAgICAgICAgICAgICAgICAgICAgICAgICAgICAKICAgICAgICAgICAgICAgICAgICAgICAgICAgICAgICAgICAgICAgICAgICAgICAgICAgICAgICAgICAgICAgICAgICAgICAgICAgICAgICAgICAgICAgICAgICAgICAgICAgIAogICAgICAgICAgICAgICAgICAgICAgICAgICAgICAgICAgICAgICAgICAgICAgICAgICAgICAgICAgICAgICAgICAgICAgICAgICAgICAgICAgICAgICAgICAgICAgICAgICAgCiAgICAgICAgICAgICAgICAgICAgICAgICAgICAgICAgICAgICAgICAgICAgICAgICAgICAgICAgICAgICAgICAgICAgICAgICAgICAgICAgICAgICAgICAgICAgICAgICAgICAKICAgICAgICAgICAgICAgICAgICAgICAgICAgICAgICAgICAgICAgICAgICAgICAgICAgICAgICAgICAgICAgICAgICAgICAgICAgICAgICAgICAgICAgICAgICAgICAgICAgIAogICAgICAgICAgICAgICAgICAgICAgICAgICAgICAgICAgICAgICAgICAgICAgICAgICAgICAgICAgICAgICAgICAgICAgICAgICAgICAgICAgICAgICAgICAgICAgICAgICAgCiAgICAgICAgICAgICAgICAgICAgICAgICAgICAgICAgICAgICAgICAgICAgICAgICAgICAgICAgICAgICAgICAgICAgICAgICAgICAgICAgICAgICAgICAgICAgICAgICAgICAKICAgICAgICAgICAgICAgICAgICAgICAgICAgICAgICAgICAgICAgICAgICAgICAgICAgICAgICAgICAgICAgICAgICAgICAgICAgICAgICAgICAgICAgICAgICAgICAgICAgIAogICAgICAgICAgICAgICAgICAgICAgICAgICAgICAgICAgICAgICAgICAgICAgICAgICAgICAgICAgICAgICAgICAgICAgICAgICAgICAgICAgICAgICAgICAgICAgICAgICAgCiAgICAgICAgICAgICAgICAgICAgICAgICAgICAgICAgICAgICAgICAgICAgICAgICAgICAgICAgICAgICAgICAgICAgICAgICAgICAgICAgICAgICAgICAgICAgICAgICAgICAKICAgICAgICAgICAgICAgICAgICAgICAgICAgICAgICAgICAgICAgICAgICAgICAgICAgICAgICAgICAgICAgICAgICAgICAgICAgICAgICAgICAgICAgICAgICAgICAgICAgIAogICAgICAgICAgICAgICAgICAgICAgICAgICAgICAgICAgICAgICAgICAgICAgICAgICAgICAgICAgICAgICAgICAgICAgICAgICAgICAgICAgICAgICAgICAgICAgICAgICAgCiAgICAgICAgICAgICAgICAgICAgICAgICAgICAgICAgICAgICAgICAgICAgICAgICAgICAgICAgICAgICAgICAgICAgICAgICAgICAgICAgICAgICAgICAgICAgICAgICAgICAKICAgICAgICAgICAgICAgICAgICAgICAgICAgICAgICAgICAgICAgICAgICAgICAgICAgICAgICAgICAgICAgICAgICAgICAgICAgICAgICAgICAgICAgICAgICAgICAgICAgIAogICAgICAgICAgICAgICAgICAgICAgICAgICAgICAgICAgICAgICAgICAgICAgICAgICAgICAgICAgICAgICAgICAgICAgICAgICAgICAgICAgICAgICAgICAgICAgICAgICAgCiAgICAgICAgICAgICAgICAgICAgICAgICAgICAgICAgICAgICAgICAgICAgICAgICAgICAgICAgICAgICAgICAgICAgICAgICAgICAgICAgICAgICAgICAgICAgICAgICAgICAKICAgICAgICAgICAgICAgICAgICAgICAgICAgICAgICAgICAgICAgICAgICAgICAgICAgICAgICAgICAgICAgICAgICAgICAgICAgICAgICAgICAgICAgICAgICAgICAgICAgIAogICAgICAgICAgICAgICAgICAgICAgICAgICAgICAgICAgICAgICAgICAgICAgICAgICAgICAgICAgICAgICAgICAgICAgICAgICAgICAgICAgICAgICAgICAgICAgICAgICAgCiAgICAgICAgICAgICAgICAgICAgICAgICAgICAgICAgICAgICAgICAgICAgICAgICAgICAgICAgICAgICAgICAgICAgICAgICAgICAgICAgICAgICAgICAgICAgICAgICAgICAKICAgICAgICAgICAgICAgICAgICAgICAgICAgICAgICAgICAgICAgICAgICAgICAgICAgICAgICAgICAgICAgICAgICAgICAgICAgICAgICAgICAgICAgICAgICAgICAgICAgIAogICAgICAgICAgICAgICAgICAgICAgICAgICAgICAgICAgICAgICAgICAgICAgICAgICAgICAgICAgICAgICAgICAgICAgICAgICAgICAgICAgICAgICAgICAgICAgICAgICAgCiAgICAgICAgICAgICAgICAgICAgICAgICAgICAgICAgICAgICAgICAgICAgICAgICAgICAgICAgICAgICAgICAgICAgICAgICAgICAgICAgICAgICAgICAgICAgICAgICAgICAKICAgICAgICAgICAgICAgICAgICAgICAgICAgICAgICAgICAgICAgICAgICAgICAgICAgICAgICAgICAgICAgICAgICAgICAgICAgICAgICAgICAgICAgICAgICAgICAgICAgIAogICAgICAgICAgICAgICAgICAgICAgICAgICAgICAgICAgICAgICAgICAgICAgICAgICAgICAgICAgICAgICAgICAgICAgICAgICAgICAgICAgICAgICAgICAgICAgICAgICAgCiAgICAgICAgICAgICAgICAgICAgICAgICAgICAgICAgICAgICAgICAgICAgICAgICAgICAgICAgICAgICAgICAgICAgICAgICAgICAgICAgICAgICAgICAgICAgICAgICAgICAKICAgICAgICAgICAgICAgICAgICAgICAgICAgICAgICAgICAgICAgICAgICAgICAgICAgICAgICAgICAgICAgICAgICAgICAgICAgICAgICAgICAgICAgICAgICAgICAgICAgIAogICAgICAgICAgICAgICAgICAgICAgICAgICAgICAgICAgICAgICAgICAgICAgICAgICAgICAgICAgICAgICAgICAgICAgICAgICAgICAgICAgICAgICAgICAgICAgICAgICAgCiAgICAgICAgICAgICAgICAgICAgICAgICAgICAgICAgICAgICAgICAgICAgICAgICAgICAgICAgICAgICAgICAgICAgICAgICAgICAgICAgICAgICAgICAgICAgICAgICAgICAKICAgICAgICAgICAgICAgICAgICAgICAgICAgICAgICAgICAgICAgICAgICAgICAgICAgICAgICAgICAgICAgICAgICAgICAgICAgICAgICAgICAgICAgICAgICAgICAgICAgIAogICAgICAgICAgICAgICAgICAgICAgICAgICAgICAgICAgICAgICAgICAgICAgICAgICAgICAgICAgICAgICAgICAgICAgICAgICAgICAgICAgICAgICAgICAgICAgICAgICAgCiAgICAgICAgICAgICAgICAgICAgICAgICAgICAgICAgICAgICAgICAgICAgICAgICAgICAgICAgICAgICAgICAgICAgICAgICAgICAgICAgICAgICAgICAgICAgICAgICAgICAKICAgICAgICAgICAgICAgICAgICAgICAgICAgICAgICAgICAgICAgICAgICAgICAgICAgICAgICAgICAgICAgICAgICAgICAgICAgICAgICAgICAgICAgICAgICAgICAgICAgIAogICAgICAgICAgICAgICAgICAgICAgICAgICAgICAgICAgICAgICAgICAgICAgICAgICAgICAgICAgICAgICAgICAgICAgICAgICAgICAgICAgICAgICAgICAgICAgICAgICAgCiAgICAgICAgICAgICAgICAgICAgICAgICAgICAgICAgICAgICAgICAgICAgICAgICAgICAgICAgICAgICAgICAgICAgICAgICAgICAgICAgICAgICAgICAgICAgICAgICAgICAKICAgICAgICAgICAgICAgICAgICAgICAgICAgICAgICAgICAgICAgICAgICAgICAgICAgICAgICAgICAgICAgICAgICAgICAgICAgICAgICAgICAgICAgICAgICAgICAgICAgIAogICAgICAgICAgICAgICAgICAgICAgICAgICAgICAgICAgICAgICAgICAgICAgICAgICAgICAgICAgICAgICAgICAgPD94cGFja2V0IGVuZD0ndyc/Pv/bAEMAAwICAwICAwMDAwQDAwQFCAUFBAQFCgcHBggMCgwMCwoLCw0OEhANDhEOCwsQFhARExQVFRUMDxcYFhQYEhQVFP/bAEMBAwQEBQQFCQUFCRQNCw0UFBQUFBQUFBQUFBQUFBQUFBQUFBQUFBQUFBQUFBQUFBQUFBQUFBQUFBQUFBQUFBQUFP/AABEIAeoEowMBIgACEQEDEQH/xAAfAAABBQEBAQEBAQAAAAAAAAAAAQIDBAUGBwgJCgv/xAC1EAACAQMDAgQDBQUEBAAAAX0BAgMABBEFEiExQQYTUWEHInEUMoGRoQgjQrHBFVLR8CQzYnKCCQoWFxgZGiUmJygpKjQ1Njc4OTpDREVGR0hJSlNUVVZXWFlaY2RlZmdoaWpzdHV2d3h5eoOEhYaHiImKkpOUlZaXmJmaoqOkpaanqKmqsrO0tba3uLm6wsPExcbHyMnK0tPU1dbX2Nna4eLj5OXm5+jp6vHy8/T19vf4+fr/xAAfAQADAQEBAQEBAQEBAAAAAAAAAQIDBAUGBwgJCgv/xAC1EQACAQIEBAMEBwUEBAABAncAAQIDEQQFITEGEkFRB2FxEyIygQgUQpGhscEJIzNS8BVictEKFiQ04SXxFxgZGiYnKCkqNTY3ODk6Q0RFRkdISUpTVFVWV1hZWmNkZWZnaGlqc3R1dnd4eXqCg4SFhoeIiYqSk5SVlpeYmZqio6Slpqeoqaqys7S1tre4ubrCw8TFxsfIycrS09TV1tfY2dri4+Tl5ufo6ery8/T19vf4+fr/2gAMAwEAAhEDEQA/AP1TooooAKKKKACiiigAooooAKKKKACiiigAooooAKKKKACiiigAooooAKKKKACiiigAooooAKKKKACiiigAooooAKKKKACiiigAooooAKKKxPFHi7RfBti1/rmrWmk2agZlupljHsBk8k9gBk0AbdFeXt8WNY8QFf8AhFPCF9ewycLqWtMdNtemdwDgzMCMYKRMD6ioJND8ba8XbWfGX9lQE7vsfhuzSFlHoZ5/NLD3VEP0oA9RuLiO3RnllWJFGSzttA/E1xWofGvwLpt8bOXxXpcl7jP2S1uBPOeccRxgsenp2rn/APhTPhOaYyalph1+Zm3GTXribUQT6hLh3Rfqqge1dbY6fb6Xarb2NvBZWw+7BbxqiDtwFAHbtQBkf8Lp066Zl07w/wCKtSKnGV0O4t1P0adYwR75x71F/wALO8QXT7bf4dazEv8ADJe39hGv5LO7D8s+gPNdGFo20Ac63jTxzJuMPg7S0yPl+1a668++y3cY/H8jxUC+LvicB/yKXhA/9zPeD/3HGup20baAOWPi/wCJ2Cf+ER8Ie3/FT3h/PGmVLD4y8exhTc+D9Gc/xrZ+IXfPpt32yfriuk20baAObf4k+J7Xi4+HOpXRz8x0/VLBwvuPNmjzU3/C5La1UHUfC/ivT/dNGlvPzNr5o/HNb22jYOvegDGt/jl4EnuUtZfE1jp13J9y21J/sczH0CTbTn2xXa6fqFtqECy2tzFcxOMrJC4ZW+hBIrAnhW4haOZVlhYYaNxlT9Qcj9K5C4+D3g6aSSS30C30m4kbc1xoxfTZWPq0lt5bN+JNAHrFLXk6+E/Feitu0HxzeMgcYtNftY7+Hb3UMhikA6fMzuevFTRfEbxXoMm3xL4OkvLYZzqHheb7aAvbdbsqz8+kayY45oA9Sorl/CPxA8PeN45G0TV7bUHiOJYFbE0RwMq8bAMrDOMHmulj4U+meOv9aAH0UUUAFFFFABRRRQAUUUUAFFFFABRRRQAUUUUAFFFFABRRRQAUUUUAFFFFABRRRQAUUUUAFFFFABRRRQAUUUUAFFFFABRRRQAUUUUAFFFFABRRRQAUUUUAFFFFABRRRQAUUUUAFFFFABRRRQAUUUUAFFFFABRRRQAUUUUAFFFFABRRRQAUUUUAFFFFABRRRQAUUUUAFFFFABRRRQAUUUUAFFFFABRRRQAUUUUAFFFFABRRRQAUUUUAFFFFABRRRQAUUUUAFFFFABRRRQAUUUUAFFFFABRRRQAUUUUAFFFFABRRRQAUUUUAFFFFABRRRQAUUUUAFFFFABRRRQAUUUUAFZ2t6raaHp8+oX91FZ2VvGZJZ7iQJGijqSTxiofFGv2PhXR7vV9Suks7G0jMs00mcKo56AHOemAMknA5IB8103wze/Ea+tfEfi+1khtI2E2k+GbggxWowNs1yvKyT4wQrcR8YyckAD5vHHij4jMU8JWzeHvDzjjxFqVvuuLlfW1tmxx6SS7RjkK/Srvh/wCGOiaHqSarLHNrOujg61qsxurnPcoWAWEc/wDLJUH867AqSSTye59ff/P69aNtAEe0djn3/wA/4mjbUm2jbQBHto21Jto20AR7aNtSbaNtAEe2jbUm2kkkjt4mklZY4kBZpJG2qAByc5AGPU8UAM20bai07UbPWLOO6sLy3v7V/uz2kyyxnnsykj8qs7aAI9tG2pNtG2gCPbRtqTbRtoAj20eWGyD93v8A0qTbRtoA5vxR4B0TxhMlxqVljUolIh1K0dre8g9PLuEIZcZztyQ2TkGsiHUPGfw8wJzN498PDALRoqaxbLjg4XCXPAbO0JJ/stXd7aNmVbPpjH169eB2oAl8IeLtJ8a6PHqWj30d/aSMyl0yCjg4ZHU8owPBUjI71t15X4m8E3tprD+KPCTpp/ifAa4gchLbVkGB5VwBxv6BZV+cZAOV4PYeAfG1n480FdQtY5baZJXt7qyuQBNaTocPDIBwCp/MFSCQQaAOlopKWgAooooAKKKKACiiigAooooAKKKKACiiigAooooAKKKKACiiigAooooAKKKKACiiigAooooAKKKKACiiigAooooAKKKKACiiigAooooAKKKKACiiigAooooAKKKKACiiigAooooAKKKKACiiigAooooAKKKKACiiigAooooAKKKKACiiigAooooAKKKKACiiigAooooAKKKKACiiigAooooAKKKKACiiigAooooAKKKKACiiigAooooAKKKKACiiigAooooAKKKKACiiigAooooAKKKKACiiigAooooAKKKKACiiigAooooAKKKKACiiigAooooAKa369qdTG+8P5/5+tAHmfjBP+E0+J2l6BId+laFbx63ewOuUuLh3kS0Uj+JY2hmkK9mWFv4a7cr6ncfUfWuP0ORIfi54wtX4nksdPvUX1hImiB3d/mif5fbPeu12+vX6Y/SgCHbRtqbZRsoAh20bam2UbP8AZzSYHI/Er4leGfhF4OvvE/i7VIdI0SzAMk8wzknoqgcsxPQV4x8If27/AIcfGjx9p3hLSLPxFp+paqskmnTavpTwW92EXcSrkjtz+VeEf8FItStvFH7Q3wA+HniK7jsfBd7f/br9rh9kEh81U2yZ4IwuOem/3r7K8QeOvBvh3SdalsrvSbm+8LaVLqf2W1aF5LO3VGIwF+4reWV98VN/cc+xb+JQ7nkHiH/gob8HfDK+JI7i+1SW/wBF1KXS20+GxaW4vJogS5hTd8yLxljgD1qsv/BR/wCC0nw4s/F0Oq6jcPc3E1vFocNkz6kHiAMm6IEgIqup35I59a8F/wCCdfhLR/CP7OfxM+O2sWEN7rWoSajcJeXCBmFtAjMUXP3C8m4E98AVX/4J++B9C+Ff7GvxB+NN9ptvca3fW2pzR3M0alhawI6rDH/dDSIxPrkVo7Ru30Sf3kRV7W6ux9ffD/8Aa2+GXxE+Cuo/E+x1ttO8K6azwX82oxmKS2kUKfLZP4mIZSAOG3Cvlj9oz/gpF8MvHv7Pfj/Q/D7a7Yaxq2lTWemPqOnNBHeCRljZonHHyq7Nz2r5IXRZNH/ZE+CPhu9nk0/QviB42u9T1OdmEaeXE8NrHknhAFDuPwPavp7/AIKYeLPBetaL8Mfgf4LXSLnWZ9WtsQ6ekcn9n24UwxR5ThTIXB2nkKjeoolBS91d7DTcXr2ufWH7DXgVfh/+yn8ONL8tYml0xb6UKMZedmmyfU4kHNe7lVwew6E+3XGfwqv4f0WDw/olhpdsgS1soI7aFfREUKo/ICrkmEUkkKAM7m6D39O/41VSV22jKm7xT7nz78Yv21fh58HvGz+ELmPXPE3ieKPzrrTPDmnNey2qHkGUj7p5H4Yrl/jp+3D4Z8A/s6QePdJh1iC88QW91DokV1pTLJHdRggmdDxGA3c8GvCv2mvB/jn9lH4keJ/2m/hX4u0fVdA1+WNNZ0bUHEgmDMq7InB+cbl6KQyHPWt//gop8VP+El/Yh8IXMdtHpV343u7FhbSbdsKFTJIATwBnZzgdeec1jf3L9bm2kZ2fY3P2Yv8AgoN4a1T4Fyaz8UNc1CLXtHtzd6pqD6Obe3ffIwght9nEkjAAL6/NXs/wW/bC8IfHDxcPDek+H/FWkXz2r3sEmt6LJa288SbdxR/+BLXCfHD9mHQPj/8As3+Ffhv4c8V6ZouvaLa2d5YvDNHLuaGIoTIqHcV+Z/m5wQOOtU/2Ef2i/H/xI8VeP/hp8SYtL1DX/Asi2p1vSdvlTKXePawX5SPk4YAZzyMg1to5OPYy1jFT7n2D5eP8/n+uaNtTbPbbwBgnngYo2VmWQ7aNtTbKNlMCBkGCDuxjnAzx0/rXn2tRt4G+KOl65aoos/EZ/szUUBwpukBNvNj+8w3R/iK9I2V518ZoTMvgqGNFadvE9hKp3YKLGXZ3x7L/AOhUAep2sqzwJIh3IwBB9RUtY3heYzaYuc/L8vP5/wBa2KAFooooAKKKKACiiigAooooAKKKKACiiigAooooAKKKKACiiigAooooAKKKKACiiigAooooAKKKKACiiigAooooAKKKKACiiigAooooAKKKKACiiigAooooAKKKKACiiigAooooAKKKKACiiigAooooAKKKKACiiigAooooAKKKKACiiigAooooAKKKKACiiigAooooAKKKKACiiigAooooAKKKKACiiigAooooAKKKKACiiigAooooAKKKKACiiigAooooAKKKKACiiigAooooAKKKKACiiigAooooAKKKKACiiigAooooAKKKKACiiigAooooAKa/3adRQB5v8Ure58N6hpXjqyjlnXSI5LfVLSBC8lxYSYaRkQfekiZFkHfZ5yry4rs9PvrbVrC3vbO4iu7O5jWaC4hcPHJGwyrKRwQQRgjqOa0Jvrz2/wDre/8AhXld9oOs/Cm8udR8MWL6v4SuZGnvfDsLETWcjHc89kCQMMcs0BKjcSyMGLKwB6Zto21meE/Fmk+MtHj1HRr5L60YlCw+V0cY3JIhAaNxnlGAIPUCtorQBBto21Nto20CPKPjx+zR8P8A9pDR7LT/AB3o39ox2LmW2uYZngngJ+8FdCDg4GV74FYngH9jn4XfDLwD4l8I6BoVxbad4kgNtqtxJfSm8uo8EBGnLbwuCQAOma9y20baPhKfvO55bpP7OvgTQPgrL8KLHTJrXwRJayWslrHeSCQxu258y7t5JOeetNh/Z08DWvwRHwlg06e28ENbfY2sobyRZvLZw5Hnbg+SwOTnJGR3r1TbRto8hWseHeMP2PfhX48+D+gfDPVvDrSeFdDVf7OiS6kS4tMDBKzZ35IYhs5DZGe1Yug/sL/BfwVD4WutN8LSRT+F75tXtJhdzNNLcjafNmIOZiNi4D5AHAHNfRe2jkUAfITf8FBYIXZB8C/i84UkBv8AhF5OefTt9OMcV2Hwn/avh+NnjBPCzfCj4g+Gobi2meXUPEmiNaWaoq8ozkjls4Ar6N+bscfjijnuc/jmnp1DXofLem/8E3fgTpWvxaoPDd9dpDP9oj0u91S4msg+4kEwFtpAJ4B4r1X40fs8+B/2gfBcHhbxlowvtJglSa2W2la3e3dRtBRo2yvynGOhxzXp+M0banf0A+XL/wD4Jv8AwN1DQdH0saBqdiNLjkit7y11e4juWSRt7LJIGy43dm4GcCvXPg38BPA3wC8OTaL4H0OPSbaeTzriRneWa5k/vSyuSzH6+lej7aNtVrYCHb26jtn/AD60bam20baQEO2jbU22s/W9XsfD+m3Oo6jeW+n2Vum+a6upVijjX1ZjjA/H060AWSuOf8/h/nsK8dtdST4j+OT4hiXzPD+iiWy0mb+G6nbi4uB/0zGDGPcNTNY13VPjFG9lBFeaH4HfImuJCbe81eP+4g4aGBuPmIEjgfLgMSfQPDPhuOOG3jjt1trG3RUihjTYqqBgKF/hAHb+fUgHQeH7U2+nxlvvONxHoSBmtKkRQqgAYHYU6gAooooAKKKKACiiigAooooAKKKKACiiigAooooAKKKKACiiigAooooAKKKKACiiigAooooAKKKKACiiigAooooAKKKKACiiigAooooAKKKKACiiigAooooAKKKKACiiigAooooAKKKKACiiigAooooAKKKKACiiigAooooAKKKKACiiigAooooAKKKKACiiigAooooAKKKKACiiigAooooAKKKKACiiigAooooAKKKKACiiigAooooAKKKKACiiigAooooAKKKKACiiigAooooAKKKKACiiigAooooAKKKKACiiigAooooAKKKKACiiigAooooAKKKKACmOcc4z7f4U+igDz3xV8JbTVNWfXtGu7nw54kYANqWmsqNOASQsyMCkq8/dcH22nmsuP4h+KfB8ht/Fvh59VsgcDW/D0Ttgf3pbRiZF/wC2Rl+gFerVDcWsV0uJFDUAYHhPx54d8cQTSaJq9rqRiO2aKNx50LcfLJGfnQ8g7WAPI4roVzznr364/WuI8UfCPw74ruIpr3T45bqEMsV0AUuIA3UxSqVdD/usKwf+EK8ZeGFxoXjC+MUYCx2mtwJqcIA9HJjnzjHLTN9KAPVWx3oXHavLf+FgeONIZ11HwnYazEoGJNF1Lyp3P/XK4VFX/v631q5H8bNLg8tdV0XxFo8snBFxpM08UZ/2poFkjA992KAPR9u6jZXEab8avAepXRtIvF+kfbeptZ7tIpgOnKMQf0rqrbWdPvFDwX1tMh6GOZSP0NAF3ZRspFkR/ukH6U4gfhQAmyjZQu1ulDMqdWA+pxQAbKNlVbjVLK0XdNdwxD/ppIFH61y2rfGPwLotzHBf+L9FtbiQ7Y4Hv4w7n0C55/KgDs8baK88k+N2gySMmnWWu60wGRJZaPcGE/SYoI//AB6s6b4meLdTX/iV+Co9OyceZ4i1RIsD+8qW4mz9CUP04JAPVNu6snxH4o0fwfZm+1rU7TSrRcfvrydYlznGMsRk89Op7ZrzKWz8ba+yrqnjE6fEzH/RvD1gltuXA+RpJWmdu/zJ5Z9xVnQPhNpGm6l/acOlGfVMY/tbUJXurz6C4lZnUdeM4oAfdfFzUdfXy/B/h+e7iYYGsa0jWdqMHGVjYCaXgHgIqkYw461m2fgK41zVbfVPFV9J4o1iBt8KSR7LG0b/AKYW+GC9/wB4xdx3cjaB6Ra+FejXEnPdF6D6Vt22nwWq4jQD3oAw9L8OBsSXOcg/c5x+tdFGgjUKoAUdMU4Z70tABRRRQAUUUUAFFFFABRRRQAUUUUAFFFFABRRRQAUUUUAFFFFABRRRQAUUUUAFFFFABRRRQAUUUUAFFFFABRRRQAUUUUAFFFFABRRRQAUUUUAFFFFABRRRQAUUUUAFFFFABRRRQAUUUUAFFFFABRRRQAUUUUAFFFFABRRRQAUUUUAFFFFABRRRQAUUUUAFFFFABRRRQAUUUUAFFFFABRRRQAUUUUAFFFFABRRRQAUUUUAFFFFABRRRQAUUUUAFFFFABRRRQAUUUUAFFFFABRRRQAUUUUAFFFFABRRRQAUUUUAFFFFABRRRQAUUUUAFFFFABRRRQAUUUUAFFFFABRRRQAUUUUAFNbn3p1FAFdrSCT70UZ/CqUvh2zkJYJsb1WtWigDmr7wbb6hEY5mE8f8AzzniV1/WuSv/AID+Erq5W4fwroEt0o2ic6XAJgM5wrgZHU969SooA8lb4JaRkrFpQtx1/wBFvZ4PyMcoOPwrlfiz8K7XQfhf4s1K2/tOzu7LSrm5hlt9dvVdXSNmByJwSOM4zzjkGvoSuD+PX/JEvH3/AGAr3/0Q9AHzz+x98PLfxZ+z14U1S+k1O9uZkmBeTWb1UwszqoCrMFUAAcAAdTjJJPsy/BfSGyGsZJ/a51C5mH0+eU4H4c1zH7BP/JrPg7/t5/8ASiSvoOgDyOP4E+GI7gTjwZ4fkuF6TSafA8n/AH0y5A9vx711Wl+CF0uPZbQw2CdCtqip+GFAFdlRQBzieE16vcMfQEZq3D4atI+Xy/6VsUUAVY9Pgi+5DGB64yasqAowBj6ClooAKKKKACiiigAooooAKKKKACiiigAooooAKKKKACiikoAWikooAWikzRQAtFFFABRRRQAUUUUAFFFFABRRRQAUUUUAFFFFABRRRQAUUUUAFFFFABRRRQAUUUUAFFFFABRRRQAUUUUAFFJS0AFFFFABRRRQAUUUUAFFFFABRRRQAUUUUAFFFFABRRRQAUUUUAFFFFABRRRQAUUUUAFFFFABRRRQAUUUUAFFFFABRRRQAUUUUAFFFFABRRRQAUUUUAFFFFABRRRQAUUUUAFFFFABRRRQAUUUUAFFFFABRRRQAUUUUAFFFFABRRRQAUUUUAFFFFABRRRQAUUUUAFFFFABRRRQAUUUUAFFFFABRSUUALRSUtABRRRQAUUUUAFcH8ev+SI+Pv8AsBXv/oh67uuE+PX/ACRHx9/2Ar3/ANEPQB5v+wR/yax4O/7ef/SiSvoSvnv9gj/k1jwd/wBvP/pRJX0JQAUUUUAFFJS0AFFFFABRRSUALRRRQAUUUUAFFFFABRRRQAUUUUAFFFJmgBajkUdTT81BcEK2SSBjkfj/ADpXS3dg6iSSJHGzuwCqMlmOAPrWbrXiCx0HRbrV7+6jttNtoGnlumP7tEUZZifQDn8DXj3jj4nRfFS38YeAfB1hcarqCWtxp9xqciPHpsU+AjwmYHcXAZ/ug8rzXnn7MPgV/G3wc8a+G/FXiHVNQvlebwxd2klxmKwWAFFWEEAA7XUljkkkjtXJLEe/7OK1Po6OUJYZ4nET5VGUU4/a5ZdUe8fCv4q23xZsru9sNC1fS9KUqLW61K28hbtGzh4x1wMd/wC9XoEJDR5Ax6j04r47+Hmo+JPBvxl8KeDvDvxOn+Imkx+ZFq1i0EZTT7eNMIzSR8I2QFAPLYNfYttu8v5uv/1quhVdRNPdbnLmuChg6ydF3hLVb3t0vezJaWiiuk8YKKKSgBaKKSgBaKKKACiiigAooooAKKKKACiiigAooooAKKTNLQAUUUUAFFFFABRRRQAUUUUAFMbqR2p9Q3DqgyzbQOcn/GgT20FIzmnr3rhvHnxV0LwH4D1nxTeXsM9hpkTNKIJVYlhjEfH8RJAx710Hg3XG8SeGdL1V7SbT3vbdLhrW5x5kRZQ2xsdxnFSpxbstzolh6sIe1lGyvY26KKKowCikpaACiiigAooooAKKKKACiiigAooooAKKKKACiiigAooooAKKKKACiiigAooooAKKKKACiiigAooooAKKKKACiiigAooooAKKKKACiiigAooooAKKKKACiiigAooooAKKKKACiiigAooooAKKKKACiiigAooooAKKKKACiiigAooooAKKKKACiiigAprHHNOprruoA5Txz8S/DPw7gtbjxJq0WlRXLmOFpVYh2AzjgGuSg/ae+GE1wkcfi60JdhGCySqoYnAySmAM+pxXbeLPAPh/xxDbxeINGs9Zjt38yJbyESBGxjIB71ztt8AfhzbzRzQ+C9FSSNg6N9jXIYHIP1zUPn6HkVlmHtv3HJyefNf/ACNfxd8S/DPgLTra/wBd1i2060uG2wPISfNOAcIBnd68CuQ/4am+F2GY+LbUBRuJMMuMD0JTmu78SeB9B8Z6fHY67pFlqtpG4kSG7hWRAR3APQ1zH/DPXw36HwRohBzx9jXuDn9CfzpS576BXWYe1XsXDl63vf5WN/xh8RPD/gHSotU8QalHpthLIIUuJVJUuVZlHA/uq1cZ/wANSfC5uT4vtVX1MUgHXnJKcD3zXd+JfBOieMdPh07W9Is9TsIpBIlveRLJGrAFQwU99rNXMr+z58OEwV8FaKCpVh/oSZyOR9OaJc9/c2DERzHnj7Bwt1ve/wArG/4k+Inhvwj4fi1vV9Wt7DS5tgiunkykhYfLtxndn6Vxf/DUnwuwSfFtqEBIO6GUdM5/g65Fega94T0bxRo50jVtLtNQ0wbf9EuYlkj+XphT6VyTfs9/DXaQfBWiMO+6yQjB9B2olz3XJsFeOYc8fYOFvO97+VjoNf8AiH4e8NeFYvEeqalHaaNMsbJeOGKkSAbDwO+fSuM/4ak+F68HxVbBefvQzAf+gc13Ws+CtC1/w+uh6jo9pe6RGECWM8StEuz7gC+2BXM/8M8/Dbkf8IVofQjmyQjnrgUS57rk2FiFmPNH2Dhy9b3v52sdBqfxG8N6L4WXxHfazawaI6LIt6ZN0bg9NvXP0HNcav7UfwwLY/4S61DMwA3RSjk9AcoMH6132peE9F1jQW0S90u1utJ8tY/sM0StFtHQbfbiuT/4Z7+HC5x4J0POQR/oSYyAcZFEue65NisQswuvYOFut7/hY3rr4j+HNP8ABcfi651OKDw40MdwL5gdnluVCHAGeSy9q43/AIam+FzdfFlrnIwPLl74/wBj6V6DH4T0iLw9HoMenWy6KkH2VbERjyhDjGzb6Yrkv+GefhtjH/CFaGFHVRZIBgAgdveiXNdcuwsQsx936u4ed7/hY3tJ+Ifh7WvBj+KrPUo7jQI45ZWvAr7dkRYSNjGeCjdu1eQfFr9o74e+Jvhb4x0rTfEttdaheaRdW9tF5Uv7yR4mVRyoHLECvbR4V0qPw2dBTT7caMbc2rWKxjyTEV2lMf3SCR+NeSfGD4HeA9D+E/jLUdP8IaRbXtppF3PbzQWiB0kWJmRlOOCGA5ol7ToGIWY8sfq7hfre5g/sZ61Y+Df2TdCu9YuUsLbSY7p70swc24WZ2O7aTg7TnHXBFd2f2pvhiWK/8JXbZyV/1UvXOB/BXJfsOqNU/Za8Km8xdm4W585pgreb++dfn9eOPwrvU/Z7+HAH/Ik6GuDkL9jTrnPpRLntoKtHMrR9hKF+t77+Wux0Phv4i+HvGHhuXXtI1KO80iEyCS5VWCjYMvwQDx9K4tP2pvhfIOPFtq3T/llL36fwc13mg+CNC8M6HJo2k6TaadpUhcvZwQqsTbx824d89K5eP9nn4cKvHgnRAVxtAs07dO31/OiXPbQddZhyx9g4X63vv5G74V+IvhzxrokusaLq9tfabDuWW4ifCx7Rk7s/d4x2rkm/ai+GCkr/AMJbaHnqkcpX8DswfqK7rw74M0TwjpB0rRtLs9N07JJtraFVQlvvZHfNcu37Pvw4mZ3bwToe9mLHFmnJJyTTlz9AqrMOSPsnDm63vb5eRu+DfiN4f+Imlzaj4d1OLU7SGU28kkaMAsgCtjDKDwGB9Oa48/tTfC9eP+EttSO2Ipf/AIiu58L+CdD8D2MlnoWk2mk2csnnSQWcSxoz4ALEeuAP++RXMf8ADPPw32j/AIonRcjjmyTPtk45o9+2m4qyzD2cfZOHP1vfl+RteD/id4Z+IdncXXh/V4NTgtW2TtFlTGcZG5WAOOeD0OD6GuVuP2nfhnZzyxSeLbMSI5RvLWSRcg4OGVSCOOCDg13HhbwRoXgmyltdC0iz0m2lfzJIbOJY1dsAZOO+AB+Fc7dfAP4eXl1NcS+DdGkuJnLySNZpuZickk45NHv2HVWYezj7Jw5uvxW+RqeBfih4Z+JMd1L4c1eLVEtXWOZo1ZdjMCR94A9q62M5XPTvXN+Ffh74c8CRTp4f0Sz0hbhg8q2cITew6E4rpI/u9uvaqV+p6FFVfZr21uby2/EfRRRTNwooooAKKKKACmn72KXNNbr1wKNegCMAcZqOZtg3McD61yvj/wCJGgfD3R7/AFLV7+KFLO2e6eJXBmZFwMoucnkgdO9fMPxY/ajfxx8KvFenW1lqfgvWLKe0W9W7IjuI9OnkCtOpBG0bdw9RXNWr06Kbe57WAyfFY+ScI2i2k32PYvg58TtY1/4m/EXwh4guoprvRb2O5sGhjVM2MqDys46ncH5r2KaMOuDkrjn8K+NdS8P+Fv2b/j18Lb/w1J9n07xPA+kagslw0m/dsMcxLEkncFX/AIFX1N468f6B8N9Ck1fxHqtrpNnGv+uuZAoY46KOrHvheeKww1ROEoT+z+p3ZxglGvRq4WPu1ErK1tV7r09dfmfKHxK0fVv2c7i8t/AvxNWXUbzUxc2Xgme2juJZZJpQxiBHzhTljk9ia9eh/Z31SD4pSeMNJ8XXuhaZqk1rqGraLbouLm4iC8bjyqNgBh3ya6f4V61pXxMvL7xf/wAINcaDIzi2s9T1W2WK7vYVAAfafnRc7gA3OFz3FepDG4YGQOM5p08PG9+nQvG5xXglRt+8StJ2TvfZO3bu7sy9G8L6RoPnHTdNtbDzpGklNvCELsxyScdyTmtmPO3nrTQdp6Y/GpFOa77W2PlZSlJ+87sWiiigQU1utLmmswpgL+FNbNc34x+IPhrwHZi58Qa7YaPEwOz7ZcLG0mOoVc5Y+wBNeHeLP26/BGk+bHoVjqniWfb+7liiFtbFvRpJSGH/AHweorOVSMfiZw4jGYbCq9aoorzZ9Kj6UMw7nFfCfiH9uzxvqMjLo2haPpELDH+ls91KvuGBRSf+A151rn7SHxR8QRyJc+M7y3iY8JptvFaMv/AkG79a5pYulHZnyeJ4yynDvl53J+S/U/TBpABnr+NU77WbHTVEl3e29rH/AHp5VQfmTX5T6t4s1/xBGF1fxJrOrgDBF5qEkg/9CrG+xwrwFLAf3pGb+ZNc0sfBbI8Cr4hYOOlOk2fqlc/FjwZZ587xboUODg79TgGD6cuKhHxm8AH/AJnfw6f+4vb/APxyvyz+w27ctbwk+8QP86T+z7X/AJ9IB/2xWp/tD+6cb8RKd9KH4n6m/wDC5vAG4D/hN/Duew/te3/+OVes/iV4T1B9lt4m0e4Y9Fh1CFifyc1+Ug060zn7JBn18pRTvsdsP+WKKf8AYQD+VL+0P7o14iU760Px/wCAfrtBfQXEYeKZZUPRo23D881L5g9gK/INbVEkEiPIjryGWZ1x+RFdPpvxG8Z6LGiaf4z8QWMcZyIodRlC/wDfO45/KtVj6f2kd9LxAwMn+9hJeh+rH3xkGjkV+b+i/tYfFXRZEJ8SQ6tCowsOoWUTA/7zoA9ek+Gv2+NctiqeIfCFlernLz6RdmEqvtHJuDd/4lreGKpS6n0WH4uynEWSqcr81Y+1jTlzivBfCP7Znw08TNHDealc+GrlztEOsW5hX6+YhZAPqwr23RdYsdc06G9069t9RsphujubWVZY3HqGUkH866YzjL4Xc+qo4ijXjzUpJryL9FJuozVnSLRSUtABRRRQAUUUUAI1fNf7UmvXviDxl4H+GFrqcmi2XiSZ5NUvYpDG5tYxkxIwIwzHj1x0r6UbniuK+Inwm8KfE2C2i8TaJa6sLVvMgedMvE3qrds1hXhKpDljuerlmJpYTEqrWV0r2t0dtHr2Z8a6x8N/AGsfHi20LwfutfCPhe0Gp+Kzbzu9pO8LM0SOuSGcncWbuAwPNemW/wAZPix4p8Fan8QvD2n6Fo3guygkvLCw1UObq+tYlJMjOvCbgvy+oINeo6f+zV4O8P8Ag3xf4e8P2baRD4kV/tMiOzbCybRtzyFGM7emSfU15rH+z/8AFPXPBunfDrXvFGjWvgazSG3mvNKtnS+vrdMfumU/LFnAyR1xXlxo1KN3HaWun4H3E80wGPUVUndQaX7xNvlteT0v7zenkrHc3X7U/hXw78NfA3izxAZdMj8UJbmGBELtB5ibmdl67EyASAT8y8V23w5+MnhL4qfb18NawmoyWDBLqLZJHJDn7uVdVbBx6eteJeGfh8mqfFzXvFnijSDpXgvwBZ/2X4etr1Nsf7td0t2FPG3Awrd1P+zXndj411/w34J8RfFDR7UW/if4na3Bo/h2GQBVht8Ols7A5GSoZiSCuSh6E1pGvVhbm1X4+v3nBLJ8Diounhm1UdrXa5U5O6ja32Y6t3PuVNrLyVY5zgVPGc5NfFPgj4d/FC18XeDprLS/FmlX1vfxy6/rWseIYrqzvbc/61BCGOc9BhFxgc5r7Tt12r0wep5ya76Nb2yvax8zmWXwy+ooxqKd+1v0b+Wt/JE1FFFdB44UUUUAFFFFABRRRQAUUUUAFFFFABRRRQAUUUUAFFFFABRRRQAUUUUAFFFFABRRRQAUUUUAFFFFABRRRQAUUUUAFFFFABRRRQAUUUUAFFFFABRRRQAUUUUAFFFFABRRRQAUUUUAFFFFABRRRQAUUUUAFFFFABRRRQAUUUUAFFFFABRRRQAUUUUAFFFFABRRRQAUUUUAJRS0UAJVeZuRjhh3xVhq5vx5rQ8OeE9a1UhsWVlNccf7KEj+VZ1JOEXJGlODqTUIrVs8f8I/GSx0efxr4o8Q+PotV8Kx6yNMs4Y9MeEWEgITyy2CZCWzlunSuv8ABX7RngD4h+Lrjw1oWvJe6pCrPtEUipIqnDbHKhWwcZwe1fHemeF5PEXwc+DfhG6idv8AhNPEcus3aEZ/dbmmOfbkD8a9W1COxs/2pPEOqW8CWem+BvB+xo412qDJ8+32IC9fevEp4qrGye234XP0nEZNgJ86u3O0rWsl7rUVdW1uz1fXv2uPhb4dWc3niTDQXT2kqRWszmN0baxYBfu543H5cg88Guz1b4reGdFuvDNtdampn8SSeXpgjQyfafl354U4AXnnA96+CfAfjzQH/Z/1nwlpumXmpfE7xhdO/ltZTBpUklyk3mlSCipzwfWvS/Hl1Y/Bf4u/BOx8R/axovh3QXit7i3t5JjPdsoi8vaoJJwARjocZpU8dV5Iykt7L5s0xXC+FpVFh4KfOnLR2vJRje8dNNdFvc+ndc+NvhDQNZ17TL7VBDeaDYf2lqK+TIywQYyGLBcE4H3QSTXg+k/tUaZ8c/hh8WdI2R2moWmmak9tbxrJmSyWMqszM6YVmLfdJyBis74L6lqmvSfHf4iT6XcQ6jPIbS3091JkXyLckLyOWIZcgDg5o+A2qaHqP7Efiux0uWSe8sdD1CPUHkgeMpM8cjlNzKNxAKjjjpXVQr1KtaN5aNXseZicrweBwVdzg5zi4RvfZtXl8uh6Z+wT837K/g09Bi5P1/0iTP65r6EFfPf7BLbv2WfBx74ufr/x8SdfQ19CLXrnwH4C0UUUhhSUtFABSUtFABSUtFABRRRQAUUUUAFMkbbzin1FIwDdM8c0eovURpOvtStnGc4HeuGtPito938U73wHieLW7fT01L96gWKSIybMqepII6e4rH+Jfx/8L/Du8g0mR7jXPElwwW30HSIxcXkoOeSg+4uBnc+Bx1rN1IpXZ2xwWJnJU4wbbV/kej31xBY2stzcSLDbwoZHdzhQoGST9BXkXh741zfGDSvENv4R0vWdOgSzmOn+Jbq2RbW4kBKgwgklsEHkrj3rtfiJoN140+HHiDSIGezn1HTpYI2zh0ZkIUH3z9elfPfwY/aQh03wX4U8BWfhy9ufiFYvFpV7of2dkS0VCFeeSTG1VCDcOcnNc9aq41FBuyZ7GX4H2mGnXhDnnBrTpFb3a7dNdDx+b4fDx7+z3ffFnUzNqnxA0vWvtGqSgkkR20irJbiNcLgBM4xwSTXvnjf4Vy/Fbx54G8X6bpseqeGfEGjTaZry+aihLSVBKjkE5YhwFwoyM816N8Pfgrb+C9U8etNcpfaH4ovmvP7IliGy33R7JV5J3Bjk/jXpWlaba6LpttY2NvHa2dtGsUMMKhURAMAADoAKwo4Nctqmqf5nrZhxFN1f9mlezfL5Rkl7q/wvY8Z+F/7K/hv4b3n2y51DUfFdzCqw2La9Is4sYVbekcS4CqAwBz1+Uc8V0a/AXw3dfEK48Z6vFca5q5YNajU5jPHYAD7sCH5U5ycj1r03d1xSrjtXbGhTirJHytXMsZWm6k6jbel/zI41xGABgdBUyjikz+JpwrbS1kecuwUUtNagYcUyQkN0PTP5VXvriKztpLieVYYY0Z5JHYKqKBksSewHXPFfEXx4/bE1HxRNdeH/AIf3T6boyu0UuvRZFxd44xB3jjJziTBZhyu0YJyqVFSV5Hl5hmWGyyk62IlZI+hvi1+034M+Ecklnd3j6trw6aNpYWWcMef3hyEi/wCBnJH3Qa+TviB+198QfHTSw6fcx+D9Mcn9zpuXuSvobgjIPvEqkdCeK8RjRYs7QcsSzEkksx6kseWJPc5PrzUjMvGMivFq42c/hPw/NeN8Zi3yYRcke/X5izMbm7ku7qSS8vJTukurmUyyyN6s5JLH3NBfPam7h6mjr0Ga4G3J3Z+d1sRVxDcqsm35i7qN1NzjtijdSOWw7dRupu6jdSDlHbqN1N3H3petAhd1G6m5xRnNAx26jdTd2KN1NAO3Ubqbuo3UwsSH5gVxkN27Ve8N+INW8G332/w7q19oN2TlpNPnKB/QSLyrj2YEVm7qN1NSlHWJ3YbGYnCPmozcX5H0z8Of25fEWhtFa+NtKj8QWY+U6lpyrBdr6s0RIjc/7uzHYEnFfWXw9+KXhj4oaX9v8NazDqkSkebCPkmgY9BLEwDIfqBnr05r8tSw7HNXdD13UvCuswaxomoXGkatb4MV5auA4GclSMEMvqrAq3oeo9KjjeXSZ+nZRx1iKco0scuaPfqfrcmCB164pyd+Mc182fs6ftU2/wATLiDw34nEOl+K1jzE0QK22o4+8Yhk7XAwTESSeqkgHH0jCwYcHPPX1r2ITU1dH7VhcVRxlNVqDvF7EtFFFWdgUUUUAFFFFACUj/dp1FAFaaGKeN4pUV43UhkYcMO+a474lfCfw78UPDI0LXLLzLKJ0lgEDNE0MicqyMuCCPr3NdytNbG7Ht0qZRUlZmtOtUoyU6bs1scJ8M/ho3w5tbuH/hJNc8RJNs2trN19oaILn5VOB1yck56V3UONvAwOnrSqoUYFOXvTUVHYVSrOtJzqfE9xaKKKZmFFFFABRRRQAUUUUAFFFFABRRRQAUUUUAFFFFABRRRQAUUUUAFFFFABRRRQAUUUUAFFFFABRRRQAUUUUAFFFFABRRRQAUUUUAFFFFABRRRQAUUUUAFFFFABRRRQAUUUUAFFFFABRRRQAUUUUAFFFFABRRRQAUUUUAFFFFABRRRQAUUUUAFFFFABRRRQAUUUUAFFFFABRRRQAUzAYYNPpFpMCI26ccDg5rk/il4Gb4h+B9b8OxXjacdTtmtzdLHvMYbg/LkZyMjrXZUxuv1qHFS0ZpTqzozVSD1WqOX+H/gTT/AXhPSNCs0WSHTbaO1SRk+YqigA10UlrFOQZEVyvTK1IZAi9O+KcvzZ+tWo8uiCdapVm5zleT1fzI/JRQQEX5uCMcVwvxyt47f4H+PljRUB0O9JC/8AXB69A21wfx6/5Ij4+/7AV7/6IemRzSPOP2Cf+TW/B30uf/SiSvoSvnz9gn/k1nwd/wBvP/pRJX0HQIKKKKACiiigAooooAKKKKACikzRmgBGpp96cSAeetc14q8baN4ZaOG/1KC2urgMLW1MgE07hWbbGucscKeMdqmUlGLk+hpCnOpLlgrs6CRgG68/TNYFl410LUPEVzoVtrFnPrdsnmS2MU6tMi5xuZOoH+FfO37MPxT+I/xRPiCw1uW1gt9Ha4tZ7i6iMN+8zsHgYw4CxosZIOeScVy/gHVfG/7L40q08RfDzR5rHUNUWxvPFFrqQkvrt55cJI0ewu5JPILcY9BXH9ZVoyUfdfU+n/sCpCpUw85xdWNrRuk3dX6+XRanpP7Q2nv4R+Kfw4+IVrE7Qw3w0LVTCOWtbn5EY98JIQeDkbzWCvwY8UW/i7WtH8DaVb/D/wAPTSk3/i6WX7ZqupF1DHyN5JQAsRuY8EHAr3r4ieFZfHngfVNGtdTuNFub63McOoWv+tt2OMOv+0D0/H6jY8M6TLofhzTNPnvJtRmtbaOB7q4P7yYqoG9j/eOMn3qvq6nPmf8ATOenm06OFhCNnKN4tO+17p22dtVrcr+C/Di+D/Den6OLy71FbSPy/teoTtNPKeSWdzySSa14bOKNnkSFA7HJYd6mVQFp6rXXyrofPOcpNyb37Cr90UUUtMkSijNRzTpCrO7qigdWOB+ZoAlrmfiF42034c+F73xJrAuBpdggkuZLaAzNEhIUyFB8xC5ydvIAJrF8UfHr4ceCXaPXfG+g6Y4OCk1/GGz6YBz+leQ+O/25fgPf6Lqeh3niaTVbfULeWzmhstOuJVdHUowDeXtxhievagD3rwT488OfETR01TwzrNlrVhIT++spg4DdwQOhBPIPIJrfbHBzketfhH4T8aa98P8AWl1Tw3rV5o2oR4U3dnK0LsBwNwGQc+jgjnpX2V8D/wDgo/4jF9Y6J450GTxK07rDHfaLEq3hYkAboAdspPJJTb06GgPU9E/be+MtxNqCfDrSZ2jtgiXOttG+wyhs+XbbuynG5vXKL/FXyX93A9OMYxj/AOvWz488SzeLPHvifW54poZ7/VLiVoriPY6BXMaqVPIIVFGCAePxrBaTOK+bxNSVSfkfzNxRmNXMMwmp/DHRfIl3Ubqh3Ubq5T43lJw3ynisLxN420vwjJp8eoSOst9L5NuqR7yW4/xFa+/5T6Dk56fjXz18RvCZ8VfHXSdJfU70I8RuZCjn/RiAx+Q9vuKc+9a04KcvePp8hy2hj68vrMrQim3byPo3IUAg4P8AdPUf4Um7c3Jrwb4qHVvDf/CGeGdF1K6l1GS6aQ3M8zF5DvwN3PIyxz/uirviuS/+Dfg28vm1q51fWtUkihSa4BxFJhiXUEn3I9sVpGjf3lLc748OU6kKUqddN1fhVtbX3PbVYBuvFIW/OvnXxp4T1r4f+BRrg8U6j/bdyVjuI2dsM0h5UehH9KXUbrxHN4s8C+HdJ1GaG6j05JriZ2ZghfLl2GfmKj+VV9Xv9o648L06sfaU8QnHXW1vh3/yPonzN3BpVkHYAY9a8D0Oxv8Awn8cLDR4davdSt5rQT3bXMhI5UtnGTgDr+NUvE2vw3/xU1DTfGWqapo2mIAlgtnIYozn+Jm9+ualYd3tcyXDHPW5YVbx5eZNLXtt1PdvFGp3em6DfXljYnUr1I/3dsp/1hyOMViSePx4f8E2us+LLU6XNM4je2jXcVYk/KR9Aa4L4yXtz4R+Guk6VpmqXFzcXl0kUd00zGSVAGPLd/vJXPfHLw1NqGseC9IXUbuSW7Mdu1uzsUGNo3gd2yz8+wrSnQjdXOvLckwuIp041pe7KUmnqnaK7X0R7zqOrSp4dn1GxtHvZ2g86G2UYMjFSce3Wq/g3WNV1nQYrvWtOXS7+Rmzb5ztGeK8u+JML/C/4WXNpZ6tfXc95dRpHczyMJAMZ2g+m1cY/wBo03xT4h1aG58JeAtLvZYLy8to2vb4E+YFwQ34/Kx/KoVG8bR7swp5FSxGH/ctSjKT97W6jFantu4E8/pRuX0xXz/4u0m8+FPi3wxPpOualcNfTGK4t7ubzAxVlzx25P6VofEDVte1j4yaV4f0K+exaK1JkcMSse7cWbaO4Aqfq937uxz/AOrMalSDp1r05Rcr7Wt5HuKsuPQ01nzXgnhq01Lwv8eF0a21m91KxeyMk/2qQvklCTx+v417s0mGOMYzxis6lPks77ni5tlkcuqQjCfOpRUk/Uk3Uu6oPMzShu1Z7ng8pMsjxyRSRSywTRyLJHJA2yWN1OVdG7Mp5B7HFfo1+y78bD8XvACvqTIviLTH+x3+0bVmYKpEyj0cEHHYkjtX5vs+3iu6+Cn7RVj+z14s1HUNT0vUtT0/ULJUkXTlQkPG52Fi7BcYkkH1cV6GDnKMuXofp3BGYVaOK+q/YkfqevI/Sn18WL/wVD8BR8f8Ih4oz1OBZ/8Ax/r6++aD/wAFRvAp4Twb4pkc9Fxade3SYn9K97zP33ZtH2nRXyPpP/BSb4cXFrHJqej+ItKuM4kgexMnle+VNdBY/wDBRD4IXUio/iK/s3Y8C50m5A+uQhH60AfTFFeI6T+2d8FtYUFPiFpFuW5H2uVoP/QgK73QPi/4I8UYOk+LtF1HcPlFvfxMT9BuzQB2NFQW9zFcLujkWQH+JGBH86mzQAtFJS0AFFFFABRRRQAUUUUAFFFFABRRRQAUUUUAFFFJkUALRSbhUFxfW1rzPcRwDGf3jhf50AWKK5rUPiN4X0xSbrxBpsAAJ+e6Xt+Nc837QXw7N01tH4v024njGWit5TIwz7KDQB6NRXn3/C7PDEi7oDqV6OwtdKuJM/7QATpUE/xy0iFwE0DxhdDGd9t4Yv5F+hIi4PtQB6RRXmX/AAvfSv8AoV/HH/hJ6h/8ao/4XvpX/Qr+OP8Awk9Q/wDjVAHptFeb2/xx0iZiH8P+MLZcffuPDF9Gv/fRjqZfjd4YjybgarZDv9r0q4i4/vcp09/agD0KivOv+Ggfh19pjt28YaZDcyfcinl8tyPowBxwfyrf034jeFtURWtPEOmTh+V23Sc559aAOmoqra39veD9xPFN/wBc2DfyNWM0AOopN1FAC0UUUAFFFFABRRRQAUUUUAFFFFABRRRQAUUUUAFFFFABRRRQAUUUUAFFFFABRRRQAUUUUAFFFFABRRRQAUUUUAFFFFABRRRQAUUUUAFFFFABRRRQAUUUUAFFFFABRRRQAUUUUAFFFFABRRRQAlLRRQAVwfx6/wCSI+Pv+wFe/wDoh67vNcJ8ef8AkiPj7/sBXv8A6IegDzf9gj/k1jwd/wBvP/pRJX0JXz3+wSR/wyx4O/7ef/SiSvoOgBaKKKACiiigAooooAKac5pd1QTN8w5x37UASMwzUckyKwUtzXm/xO+L9v4N+GOu+MNEgi8Rw6QWFzDb3AAARv3mWHQqMnFeIfCXVtU+KX7TmuXXiTU5p7bQLNNQ0C3gZoYjb3WD5joOHK4K5NctTEKElBbs9vC5TXxFCriJ6Rgrv8NPxR9avnBGeTwD9f518kePPDvjn4bfFfxp4+TwBo3j2yZEu7LUtR1BYptOgjQZhiRlYDaQzcAEkjn0+t/lRcn5TxwecV418QPB/gr45+NG0O68U3l3PpdsrX/h/TtRaOCWNnO03Crx94NweeBU4in7RJJ6orJ8SsNUk6kU4SVpXu9L+TWvzt3PNLBPH3/Cb2nxQ+Gfh611XSfHujWrXlvqd15H2OZMGOZhjkbGOQOScV7EPgH4fvviEnjPVptS1bUomWW3tb67aSys5AgUtDCflQn1POc+1ejaTpttpen29lZRJb2lsoiiijGAigYCgelXVG0fzqqdFRum7r9RYrNqld3pJRsrXW7j0T9FoEeFUD8BUgpnDcinrXUeH0Fopjdv/rc188fHb9svwp8Jb8+HtGhm8aeN5H8qLRdLO8pIeglYdP8AdAJ6dM0AfQd1cxWkbzTSLDFGNzSSMFVR6knoK+dfif8At3fDT4f3Umm6bdz+M9c+4unaCvnfPkjBkxtB9uT04rzOx+Afxl/adkW/+L3iSbwd4Wc708K6RhHZeoEi9FPP8ZY8dK+jvhb+zx8P/g/ZpF4Z8OWttcqoDX06edcv7tI3IP0wPagD58/4Wd+098bEB8JeDrD4baFN8ovtXKtc7D0dQ/8ARD0qzb/sK+K/Hrrc/FD4w69rzvxPp+nMY7c+w3Hb+UYr7GVRyRT6APm/wr/wT/8Agz4Xi2t4ZbVnUqwk1K6eQgg5zhNgrudY+F/wy+FvhHVdZ/4QvQoLTS7Oa7kb+zo3YqilsDILE9QMHPNer1BdW0V1GY5o0ljbqjruBx7UAflB8Ev2GPH3xoli1jWoz4N8PXD+a11eQ4uZVODmKDjrngtj8elfoR8GP2Y/AfwLtlHh7SVk1QqFl1e8xLdycYPzYGwdeFA6mvW0X5f8OlHAaj1EfmH+0z4Fm+Hfxq161aLyrDVJf7UsSv3Gjl/1oXvuWUNnP/PUV5Yzd+BnkBa/Tb9oz4F2Xxw8GGzDx2evWO6bTL91yIpCOUb/AKZuAFYegB6gV+aniTw7q/g3XbvRNfsJNL1i0O2a1m5x6FG/jQj7rdxXg4qi4S5j8G4syGphsRLGUvgl+ZT3e9L5ny4qEH5QeaTdXnn5uorqT7sqe5yMD15A/rXkeueEfF1j8WJPEuiwWV5BcQrBm4kUCL5Qp4J64HFeq7qXeduO1XGTi9D2MuzCpl8puEU+dWd9rM4DU/BOqav8XtJ8QTLG2kafb+WrGVCxk2ufu9T8xPPtTvjZ4Fv/AB14fs4tLKfbbO488RyttD8dMn613zMeM0fdwc1XtZLl8jqjm1eNahiIpL2atFdP6dzxfxh4B8efESHSn1WaxtoreZSbGGQbUQDmRj3PQY966nRPA+pW/wAWNY8R3USRWJg8ixUSqzKo2gDHbgH869AZw+WNIzYX5TlauWIl0OupxBialF0FGMYtNWSta7u/mef6J4O1iH4pa/4kuliSCSForBhIGPIwvA6e9Yvi/wAOeNfiDpaaLf6RpVrEJQTqSzBmVQeqjNeuZ8tRu6Gk4Xa34ilGq73JpZ9Xp1Y1lTjdJKL7W/rU808U/DfUdX1bwTbW6pLo2j7WmleUKxYMCflP+6Ki+Jng7xLqXjrQfEegw2922nx7PIncKA2XIJ9sH9K9Q87LFhSeYSu33zT9tJMVHPsTSnCo4J8qa/8AAtWecfELwfrnjg+FYmS3WO2mWe/USKqjlMhQfvcZqDx94G17/hPtN8XeHVt7m4tY/Jktrl1jyCGUn8QxH4V6buNLvH8XWhVpRdyKOeYjDqEYRjyxTVu6lvc800fwLr/ivxpZeIvFxgt/sKgWmnW53hGHOcjj7wH5Vb8MeCdTtfil4g8S6msQiuk8m1CyK52ggHjtwK78sB0NBk+XH40vbSHVzzE1OaMUlGUVGyWy3djgvCvgvUrP4n+IfEt+qCG6TyrbZKCcZAHA+lehbuvrk9vemMwVQO9M3VE5OVmzyMbjKmOmqlTolFeiJt3vS7vlzmoN1G786z16HBGN2T7yeBkHsw6jnH9RX0n+yT8LbPxfofi/VdesIrnRdSiGkRQzj5ZFRi0zD/YD+Wo9Giz1AI8h+EPwh1f40a61lZmSy0a3I/tDVsYWBT0RP70h9P4fvV+i/gHwXY+H9L07SdMs1tNIsYxFHEoxjHr6knJJ7kk969fBUJRftGfsPBuR1Kcnj8RHlv8ACflZ+03+zfq37PXjIWxjluvDeoM0ml30g3AgZJhc/wDPROcnuMN3rrP2A5PCcX7Qemt4nTdcTW0seivMoaL7YQOGz/Fs3hP9o+uK/Tn4rfC/QfjB4Jv/AAx4htRc2NyvDqcSQSD7ssZ7Mvr+HQmviLxt+yJrHw4/Za1mb5F8W+CdeuNcsNTtfla5swkRZh6fJGHK9mhr1z9f9D73n8L6PqQY3WlWNyX+801sjlscAnK+mKxbv4O+BNSYtdeDdAuCRgtJpduT+ezP61U+A/xIj+Lfwl8M+K0wJdQtFa4UD7sy/JIPwdWrv6APHta/ZN+EOvZF34A0gjrmGJoj1/6ZuDXC+IP+Cd/wW15m8vQbvS8nP+hXrj8f3m8V9N0UAfHdx/wTvg0aQN4N+Kni7wtt+5Glyzr9DtZR+lQH4QftS/D3zJfD/wAUdN8W2sQxHZa1EMn3JdR7fx19l0lAHxq37TH7QHwxU/8ACf8Awc/tiyh/4+NS8OylgPcLlh/49XX+B/8AgoN8KvFFxFaaveXvg3Un+9b65bGNV9vMBK+vXmvphk/P24rivHXwV8D/ABKhki8SeF9M1beeZJrcCX8HGG/WgDo/D/ibSfFNil7o+pWmqWcg3LNayrIuPqK1Awxkcivj7xH+wGvhXUH1n4Q+ONY8CaoDvW3adpbUtnuAM4xgYYMBjNZVv+0n8af2fLqO0+MXgxvEHh5Tj/hKPD6hiq9NzAfKx4J5CHmgD7Xpa8++Ffxu8GfGXR11DwprlvqagfvbcMFuIe+Hjb5h19xXfr3oAdRSZooAWiimSf596AH0ma4HxJ8XdB0XVG0qz+0eIdfU4Ol6LH9omX3kwQsYHfceM5rF874i+LNxurqw8Eae/SCyxfXxH+1KSIkPuobFAHpmp6pZ6VatcX13DZW6/eluJFRR+J4rh7j46eF2nkt9IkvfFF3E2ySHQrKS6KH/AGmUbR+dZdn8HfDUdwJ9Tt5vE18Ot34gnN4578ow8v8AJM+9dlFCkNukMaiOBRhI4wAij0AAAA9hQByj+OPHOreaul+DbXSk/wCWdxr+qKoYevlwq7j6HFMbT/iDqUwa98YWOlxMuHttJ0oOQfVZZZM/+Odq7Db7AfSjbQBxH/CsVui39reJ/E+sox5S41MwIP8AdFusRH/fWafafB/wfaoEbQYb05AJ1KSS93DuD57uD+ddpto20AYWk+CfD2gxhNK8PaTYRjOBa2EUWOf9lRz+FbcLSRqFRmVB0ALAU7bRtoAQu7dSzfUk/wA6Z5YP3hk/7VSbaNtAEfkr/dWjyl/ur+VSbaNtAEXlqDkAA+wxUis69GYf7pI/lS7aNtACPI8ikPI7A8YZmI/LpWJqngnw9riMupaBpN/GfvLeafDJ9PvA1ubaNtAHGXPwe8HXSbBoMNkc5/4lss9kR7Awsn+FRt8MUtVRdL8UeKNGCfdS31ISgj0PnJJn8Tmu320YxQBxw07x9pcjPZ+MLLVIlTEdrq2lBfm/25YmB9Oi1JD448d6SIl1Xwba6uv/AC0uNB1NSEHr5dwI2OfQZNdbtzRtoA5yz+PHhdZo7fWv7Q8K3ch2pDr1jJalz/ssRtI9813el6tZaxZrc2N1BeWzHCzW0iujfQqTWLLCs8LwyossLjDQvyjg9mHQj2PFcbffB/w3JObnTrefwzfx/du/D9wbNgev3FzETz3BoA9Ypa8lR/iH4RUCG7svHNgv3oL8LYX23sBKP3TnudwXNbfhv4vaHr2pLo959p8Pa8w3f2VrMX2eeTrzHu4kGQcbSeBmgDv6KbHjbxTqACiiigAooooAKKKKACiiigAooooAKKKKACiiigAooooAKKKKACiiigAooooAKKKKACiiigAooooAKKKKACiiigAooooAKKKKACiiigAooooAKKKKACiiigAooooAKKKKACiiigDP13T21XSr2zW6msHuIHjW7tyBJCSpG9CejDOQfXFfml8Sf2zvix4JTxp8MPGmnaNrN2q3OkTX7xPbybGQosqqnByhWRSeoINfpzJ1HHTn/wDVXwN/wUw+Ce6DSvibpkR8yILp2r+WvO058ic+mGOxj/tx+lAHiHwr/bW8f/D74c6J8O/COh6W08LPDa3k6zTXEskspZf3f3QwL8duK/UH4X6Trmh+B9KtfE2qPrHiDyRJf3bABWmb5nVAOiAkgD0FfnJ/wTr+CX/CdfE6bxnqMH/En8MkfZtwyst2wIUZ77F+b67K/UOMYXgYHpjGKAH0UUUAFFFFABTW5p1NY80ARSHYCc9Bmvn34X+JPGvxl8Y6v4kj8QJo3g3StXuNLg0SC1VpLwQsVeSWU8jceQo6cetfQUihgQencV8xXPwV+KXgvxJ4s0zwFrek2PhLxRdSX8l1fhzc6bPMf3xhVeGzkt83dRXJWc1KPKro97K/YSp1oTlGM7LlctrX963n2OK1Dxbo/wAA/FHxZ8AeIGb+x/EUcmseH7URljdSXC7JYEx1bzCD7Aiug/Zj+BPjLQ5PBHifxFKNH1HRtMn0W+snxI19b8NbvuXoVJbg819IaR4LsdO0nRrW6jXV7nSYI4Yb6/jV5iVULvLdmOOcV0UYGGGMHvWUcL7ynN/I9DE5+5YeVCjGzn8Ur72VrpW0utzyf4nfD/xv8RNch0618Vr4Y8F+SDcjS0K6ldOTynmniNMY5Xk811nw7+F/hn4X6O2neHNLh0+InM0igmWZu7SSHliSOSa67b+NPUYFdaglNze7PnZYurKisOnaC6LS/r3fqCfd/wAKdRRWpxiZxVHWNUtNF0+5vr+5is7G3iaSae4kEcUajkszHgDHUmo/EGt2HhvSrvVNTuorGws4WnnuZ32JGijJYn0GP6d6+G77WPFn7f3jmXSNFkvfDPwV0ubZd3gUJJqJHO0A/wAbcEL0RSC2SyggGx4z+PHj39qzxTdeBvgn5uj+FIWMWp+MpgyFk7+WeoHpt+YjBBANe6/AP9lfwb8BtPEmm239p+IZl/0vXL0briRiPm2H/lmM5OBycnOTzXovgHwBoXw18L2fh/w3psWlaVaLiO3iHOe7M3VmPdj1rpBQA2MYU/X0xT6KKACiiigAooooAKKKKAG/xV5t8Zfgb4X+NWlJaa5asl7bqxtNStcJcWzeqt3H+yflPOa9LqNvvdqTipKzMqlONWLhNXT7n5h/Fj9mHxv8J5Z5zZt4i0JTn+0dOjZmRf8AptCPmT1JUMOegHJ8fjmSZN8TK6nupBH6dPpX7MXFsk4G9A+K8T+Jn7JvgT4izS3culjTtTbk32mkwSt1+9jIcDryO9ebVwalrDc/Ocz4Lw2IbqYSXI+3Q/NXgUb/AEFfSXjr9hfxZobvL4c1W116EfdhvgbW4/F1DIx9vl+teIeJvhn4v8GylNa8L6pYnJ/fNamWI+pDxhsD3Zh9K8+eGqQ1PzjGcN5jhG+am5LujnNw70FvSoYbqC6yIXSbBxhHDY9jjvTm61zNNbnzk6NSnpOLQ/dRuqOikY8pJuo3VHRQHKSbqN1R0q0BYfuo3U2kNArEm7NG7HbNRjLdAWP6UkEomultov39033IIQXkP+6gyzfgKaTb0Vzpp4arVdoRbJg4+lG70Nd54T+AfxC8aCOTTvC13Bbv0utVAs4vx3ZcH6gV7f4L/YbG+Ofxb4keUfeew0WMxj/dM7HJ+q4rqjhak+h9Pg+FsxxbX7vli+rPli3jmvbyGytYJby8mOIrW3QySyH0VF+Y/hj3NfQ/wp/Y71nxBJBqHjh5ND0xhv8A7KgbF3MPSRhxEPVQS3p1r6x+Hvwe8P8AgO38nwxoFvpW4fvJxGTK/QZaQ8seBya9EsfDUMO1piZGH8OeK9Kjg4xd5bn6blfB+DwLU6755fgcv4L8D2Oh6TZ6XpNjDpmk2y7I4YIwqhfw6n3PPrXfWtulrGI4xhakjTyxgAADoBTlrvSXQ++VklFaJC1n6zpsGtaVeafdRrLbXULwSI38SsMEfiCa0Kawzg9xTGfIn/BOLUZtP+Hni7wdczGafw1r81r83ZSCpA9i0Tt/wKvrtenHSvj/APYohWz+Nn7Q8EX+p/4SPzB9WmuD/WvsFelAC0UUUAFFFFABRRRQAlV7u1juoXhmjSaGRSrRuu5WB6gg8EH0NWaKAPk/4sfsP6bdaz/wl3wn1OT4eeMYW8xPsbMtnN1JXav3Mk/w8HuDVP4P/tganoPiyP4efG/Tv+EU8WgiKHVmGy1vOcIT2Utg/MPlPfHSvrp/u14z+1R4J+HXir4W6jdfEZobLTLGMyQ6mMC5tpDwPJPVmY4GzvmgDB+PX7Ttj8F/ir8O9DvJ4RpetSTDU2KhjBE2EhlB7KJD83+y2e1fQNs6yQq6EMjDcGU5BBGc57/Wvwa8ReINR8S3UJ1HUrzVYrSBbG2bUJCZY7Zc7I8H7oAzle1fpt+wJ+0GPid8OD4V1i53eJPDUaIJJDlri0wRHIf9pfuN74oA+mfFninTfBmkzatq94tnYwgbpGBJLHoqqvzOx6BQCT2rzmSHxR8VNtxqcl74N8LuN0em20nlaneL1/fyjIgQgD92h3kZDHsDwrb/APCzNeHje/8An0eB2Xw3ZvzGkYJU3zDoZJR/qyfux7SvJNejCMjIPX3Of/1+n4UAY/h/wvpfhPSxpujWFvpdopx5dsgVW9SSPvE45JJP5VpFfmOBgelTbKNlAEO2jbU2yjYecZ99oz+lAEO2jbSwzQ3W/wAl0mZOGCPuwfQ+h9qk2qzMq9VOCfSgCLbRtqRdrBiG4XrTGniVogZVRpDhNxwSe4HvQAm2jbUwX8u2Tk/jSMvbHXuMfzNAEW2jbRb3MN15hhmjlCHa7RsG2ZHOcd+BXk//AA0x4cl/aOb4MwWGpT+JotPbUJ7pUU2kShCwVyWBzgen8Q5qb3fKI9Y20baJ7iG1ZFlnSJ2O1A7AFj/sg+tTeXjgjB79M/jiqv0Ench20bamKdxx3bGOn41DbXEN5HvhmjmXOCY2BwfQ470FBto21K21n8vPzEZx0NRxTRXW/wAp0kwdjbGztJ9T60noriE20ba+QPjH+2n460H9o7UfhF8M/hpB8QdW07T4ry63X/kuu9Fdxgsq4AeM/ezz0r039n34pfGXx3rmrRfE74Uw/DnSrW3V7a6/tBbg3E28ApgSHHygnNEffVxy909y20bakbEalnPQbueg46579RXi2seJvjN/w0tp2h6Z4X0wfCFLJZ77XriQNO8u1iUjAbO4ttx8mOvNC3sHS57Lto215N8P/wBpXw18SPjX43+Gek2WonWPCQH2+8mhj+zFtyqQp65G7n3zXr/l/X6tnmrsSmQ7ay/EXhXSfF2nNp+tabb6pZtz5VzHuCn+8p6q3oy4I9a2tlGypKPOY7PxR8Ldr6XJdeL/AApGP3mlXUnmalZqOR9nlJ/frjrHIQ3AwcZFek+E/FGl+MNDt9U0e9S/sphxKp5DD7yuvBVweCpAIIIIpm09PqBjk5PpXnHiyzX4W65c+PNLXy9MunX/AISSzQfI8YGPtwXtJFwX/vRqe6LQB7FRUNrMs8IdG3KffNTUAFFFFABRRRQAUUUUAFFFFABRRRQAUUUUAFFFFABRRRQAUUUUAFFFFABRRRQAUUUUAFFFFABRRRQAUUUUAFFFFABRRRQAUUUUAFFFFABRRRQAUUmayfEnibSvCWmSanrOpWuk2EeA1zezrDGCTgDcxAyc+uT70Aa2aNwrzST4uXmuZTwj4U1LWR/BqGpg6bZH3DyKZXGMHMcTA561Tk0nx/4gYHVPF1voMWQTbeHLBd+P7rTXHmZ+qKh+lAHqkjqoJY4XuT0FcfqXxi8FaPdSWtx4q0k3idbSG6Wab/v2mW/SuU/4Uz4YvsvrFtc+J5C28HxBeTXyg56qkjsqfQDHtXWafoun6RGsdjp9rZxDokMKrjt/CAO1AGXH8ctDvA39m6Z4g1ZlOMW+i3MQ/AzJGD9c496YnxU1u7VxbfDzxHEc4V76SzhVh6jbOx/TNdIWfpuOKaF980AczN468dsrfZPAtk3937Z4gSHj3Igbmud8bN45+I3hXVfDWt/D/wAOnStUtntrjHih5CqsCAwH2IZIO1hyOQDnivSdtG2gDxL4H+DfHHwF+HOl+EtI8H6BqvkBprrUm8SNA13cOcvIU+xvj+EdeigV6HB46+IKqxu/Aulq2flFr4j83j33Wyf5711W2jbQBzknxQ1+zRzcfDzXJ8YI/s+4tZj+O+WP/OKc3xt0yxhZ9V0LxJpAXqJtHlnKn0It/NrodtL8wGFoAybP43eBrySKJvE2n2VzKdsdvqUv2KZz6LHMEYn8K7W1uIriFZoZVnik+ZZI23Kw9Qc1y91p1tfRlLm2hnQ8ETRh1PtzXJSfBrwhHJLcWGlf2DdSNve50GeXT5Wb1LQsCfx4oA9b3Uda8p/4R3xnofzaH44e7jHAtfEdit4gHpvjMUmfdnOPQ1YHxO8QeH8/8JN4OuhbKMHUvD0v9ow4/vGIKs/4JHJjv60Aen0lc94U8daB40tZZtD1a11JIjtmSF/3kDddskZwyNyPlYA8jiugXC8dPagB1FJS0AFFFFABVe6ZERmkkEcaqSzE4AHUn2xj/OKkkbDf59+lfIv7XHxb1zxt4qsfgV8OpWbxHrIUa1eRuQthbH5mRmXlQVJZz2XA6uKAOQ+IHibW/wBuT4rSfD7wneT6f8KtBm8zW9Ztx/x/OrEBEz8pBIxGDweZGyFAP2h4K8G6N4B8MWGgaBYRabpVjGIobeHoMdST1ZickseSck1z/wAFfhDofwQ+H+neF9DiXy7dd1xclQJLqcgb5X9zgY9AFXoBXdrwMZz9aAFpaKKACiiigAooooAKKKKACiiigAooooAKKKKAGSRLJwyqw9xms280O1uMrs27hgjB2/l0rVpDSEeYeK/gH4O8YHfrHhzSNVK/dNzZKWHuGBBFeXa5+w74BvzI9vYalpjno1pqL7B9IySv6V9PHjvilXn3qXTi90ctTCYesrVKaZ8Sat+wPp4B/s/xVq8bZ6XdpDIo/wC+FUn+dcvd/sG6/DuMXjHTpV/hWTS5kIHufMP8q/QIj2qN7eKT70an6isXh6Ut4nk1OH8tqO8qKPznuv2JfHEIJh1XQ7k9t8ssefwKH+deffGT4A+Mfgv4DuPFOr/2Tc2ME8cLx2V3JI+X3YO3yxkZX14r9VG061720J+qA15h+0p8LIvif8EfFvh6zto1vrizaS2MaAN5sfzqB7nG3/gVT9VpfynL/qvlbf8ACPivT/2OfH2pWNreRXXh/wAm5hSZf9Pk+6yhh/yx56+ta9n+w/4wmx9p1/RbZcfwpLJg/gVzX0R+xH8Q7L4mfAnSILpU/tzQB/ZF/HIB5gePhHP+8pWvoJdNtO1pCP8AtmtCwtH+US4XytO/sj4P0/8AYQ1IMrXvjW0KfxLa6W4b82mI/Sur039hPw1C6ve+ItevfWKNYYkP4rHu/WvshdOtl6W8YPsoFSrEkf3UVfoKtYekvsndTyLLqfw0UfNeh/sgfDnTWUnww+pkn5l1e6luUP8AwFuK9U8O/C3TfDcKQaRoun6Rbr91bW2jQL9Mc16Hz60q9OTmtYxUdkerTw9GjpTgl6IwIfCqs37+dpPwrTt9JtbcfLHkj+Juau0VZ0gq7Rj+lIaXcKaW/KgAyfSj9axvE/ibTPCumyX2q3kNlaxqztJPIFGFUscdyQqseOflrzb4W/tMeFfir4iudD0+HUtOv0t/tkEep2jW/wBqtzj9/Dn76cjn61nKpGMuVnXTwmIrUpVqcLxXU9iHr0NIxXac8DvzTUG1fxrj/jJ4zj+Hvwr8V+I5GVTpumzzxhv4pAh2L+LbRWhxrufNv7AzHVvFfxv8R/K0Gq+KJDC5OTtEly4H/fLrX2OpzXzN/wAE9PCMnhj9nHTLuYHztavLjUv3n3wrERjP18rd/wACr6ZFAxaKKKACiiigAooooAKKKKAI5B/Lt1rxv42/st+F/j5c28/iTU9cT7LzBb2uoMltCcfeWLG0sfUjsPSvaKKAPiLU/wDglt4QkVv7M8Z65aNnhbqG3mAP/AUU4/GuYb9hHxb8BY9Y8aeGPiJa3Elhpd75tvLpbq8kJt5BIqkSuC2MMuVxvRK/QSq15Al1G0EsayxSLtaORQysDkEEHqMHkHqKAMHw1bwW/hvSorUAWsdpEsWOm0IMdOOnpWltrgPhpfS+Erxvh9qkrG/0xPM0maZmJvtPBOxlZvvSR5EUmPmGFY8OK9FRflAAwBwM4/pQBDto21Oy0m2jTqJkOzOfl3Dv/SviD/goB8S/E/iD4h/DX4A+DtYuNAvPG1xnVtTtnKSR2u7bsDDkAgOx9lr7m8vcpHqCp/HpXx/+1/8Asm/EH4k/F/wP8WvhVruk6b4z8NJ5Rtda3CGZQxZSCqt6sCpAyCMMMVNk5rm2K+yzV8B/sZ/D39lvVJ/iP4Z1fX4bjR9Fu/tkN9fmaC9Ai3eZKp6EFcgDjkV5L/wTZ1JvDX7NfxM+KusXLEapqt7qbNcP0WGNmwP+Bsfzr3jwf8IPi/4w+F/j3Svi/wCNdKudY8S2DWFnbeG4GSx0qMxlSykqrOzHaxz0HGTXzL4P/YJ/aH/4UTqnwl1rx54d0zwXbieexsdJeQS6lOx3JFPMYf3UIbDHCuTjGO9EuZqUVu0Ls30Zw/wN8QXngn/gnB8a/iLcXUz6j4r1G4gt3ll6B3WDCnt9+Q/hXsv7Dv7Gs114R+GHxR8d+Kda1DxDY2yXWi6Ok+LKwtXjcJGU/idxIZGb147Vq/EX9hXxv4g/Yp8AfBPQdV0Gz1HTr2G71u8nuZlgkx5jSeTiJix3PkbggOB0r7F0n+yPA/h/SdFn1C0sI7S0it4lmmSPKooXgEjjINaKUVeXXRfJIlpu0fVm0V3c4Azzx0r49/4KeL8Qm+AtnH4IttVudNk1JB4hXRQ32n7DsfcBt52kkZ6gcZwM19XN4y8PHcDrul9Dx9si/wDisivG/jVb/tDv4ws9W+DupeBtR8KzWCxS6Z4mWYMlwHbM6SQjLqUZRgtgFCcHNZP3max908i/YT8J/s9+ModU8X/B19e0zVRYNpeq6XqepTvNbrKysHZXZl3fu8o6Ht2IIr5k/ZJ/Y88DfHf47fGY3V1rp8N+FdSGnaZKmoOJ5W8x13SSj5mBERJ/36+2P2PP2SdX+AzeOvE/i7WLDU/HPjW7N3qI0iFo7KzG528uIHBf5pGJOB/CMcZPj3wL/ZB/aQ+AuuePtN8M+NfCFl4c1y4uNRt9Rurdrq8kuCr+TuR4gFGSN/JxjjrWsvjv5GKvy2Xc+fPDNn4Fvv2gvGvhn9quz8Wad4n1TVDbeHtWkvriCxgt1YpEkbIwBj+4FfayD5c7eSf1m8L6Fa+F/DWl6RYvK9rp1rHawGeUySMiYClnPViAMnvnNfFfjj9lb9oL9qLWPCmnfGjVfAejeFPD18t+8vhWO4lvL114K/vQAoIyOMAHHymvYvFnwh+MerftWeFvFOl+OE0f4P6RZJHc+G7e8kV7qQIwZJINgjcFivzFiQBxindKKiOSTbcTwj9obXNZ/am/bJsP2e7XXL7QPAWiWX9peIW02Yxy3pCqxiLjoPnjTB964bWPhnY/sm/8FB/hF4Z+F99qlrpXia2H9qaVdX73CyLvlVg2/nGED/VeK9j+Mn7JfxZ0H9pq7+NfwU13w4uqarZ/ZNS0vxGkqxfdVSUKo24NtQ4ODlTgnOK6f9nn9kfxVovxi1L4zfGPxHZ+KfiNdwm2srfTFYWOlx9Nse5VywAwPlGOeCcms6fuxjLqr3Ke7XdI+evEXhPxL+09/wAFHvH+h6N4q1Lw74W0DSItM1e802QpObUCPfBGf4Wkl3AsOdoatH9h7wMvw3/b4+MnhHwfqV/L4E0TTvs8kN3cmc/aC8OzcT1Ibz+a+hf2Rf2XvFHwX8efFrxl4zvNKvtc8aar9rh/smWSYRwb5H2u0kSHJMhzjIAA5ql+y3+yv40+DWs/GfxR4gv9DuvFXjjUJLmzl0+eaSGFCZXjEhZEZTvl52huFoT5Y2jtyv8AHp8gk+a78/yPkL4Iw/Gf4rftbfHT4k/B1fDMkkWovpEl14mZ/L8gy7YhEFRststUz6DFfWn7QHw78a+Pv2GvGFh8V77Q7Dxja2k+p/atInMVlA8Dl4F3sFwGUBT/AL+McV4p8Bf2QP2uP2b9D1XS/Bvi/wCGkFrqd6b+5kvZLieSSTaF5ZrMnBwOOxJ9a9Z+MX7Nfx0/aK8N/DvwV458V+G7XwlAUvPGVxo8ksd1qcwkLiOGHyAgjRdi5LAliWK/KoYkrwUfQPttnzB+zF4n8Tf8FAdW8A/D/wATXr6d4D+HOnQ3GtW8F2ftOuTK5jh3bSG2bNqsf4fm5y4r0T9l7RbL44fH79qXxNf3t7aeGvIk8Oo9jcNE1vbgFSYTk7PktTt/uhvevXrL9jHxP8MP2tW+I3wwk8O6H4JvdBOk3+kTzyxSB1gMaMiLG4ZQ0cDZLA/Kc5Na/wCyh+yP4l+CvwB8ceEfFWraa/izxVcXk1zqGlu80SiWPYhJdEJIJdjkYG4Y5zVSejk97P7xfaS8z5S/4Jw/sh+EPjBFr3xH1mXWDBp3iQLov2a/ZBLHCQ483HL4OzJ74r9V9ueTtJPOR0/z9a+P/wBhP9m740fs02t34W8W6z4ZuvAUEk9zaW+kh5bua4cr87u8ahFAUnG4nJI6V9jBe+QQeRt6Vcnol5ExV235kO2jbU22lVazLINtUdctbS80W/t74K1nLbyJMGHy7Ch3bvbGf1rW2ngjqOgU4JrzH4u6w2uR/wDCBaTMf7S1WP8A4mM0DEGxsCSJH3D7skgDxx/7WW+7G1AF34C6peXnw08IjUs/b5tFs5rjcMN5rQIz598k16aK5XwnZLHJvQKsUa4RVBVcdsA9BXVCgBaKKKACiiigAooooAKKKKACiiigAooooAKKKKACiiigAooooAKKKKACiiigAooooAKKKKACiiigAooooAKKKKACiiigAooooAKKKKACqep6lbaTaz3V5cRWlpbxNNLPO4jRFHJYsSAAO+TVfxHr2n+GdHu9U1S8isdPtImmnuJj8qKBkk9+3bmvMrPQL34o31rrviu2kttGhYS6X4auNpROhW5vEH3pu4jPyxY6GTlACy3xA8RfEEBfBlsuk6Iw48TavAW+0L62ttlWf2kk2r3CyCptD+GOk6TqMerXzXHiPXk+YavrT+dPGT/zyBASH/djVfXHOT2O0tztP44z+n9eaNvtigCPb759+f5HpRtqTbRtoAj20bak20baAI9tG2pNtG2gCPbRtqTbRtoAj20bak20baAI9tG2pNtG2gCPbRtqTbRtoAj20qqeMdexUZIp+2jbQBy/iT4d6D4puor+6tDbarHxDq+nytbXkWDu4lQghcqCVJKnPINZy6540+HshOpJJ430BSFN1ZwhdVtwe7wKFjnGc/NGFfHRHrudtHl8Hjng+h49M8UAW/C/ibTPF2iwanpF9DqNlLkCaFsgMDgqQcFWB4IIBB6gdK1q8m8UeC9R0fUbjxP4J8iz8Qt893prt5VrrKjGVlCg7ZcHCTKCQeGBU12/gXxlY+N/D8Oo2PmR/M0M9rMmyW1mQ4eGRf4WU8dwRggkEEgHRUmaM1z/AI68YaR4B8K6l4h128Sx0jT4GmuJpOyjGAPUkkAL3JA70Aec/tUfH60+APw3n1NMXPiO+DW2jWOMmWfH3yO6ruBI7kqP4q5P9j/4AXfw08O3vi3xYWvPiF4oc3WpXF180kCu25Yc9ifvP6thf4RXmHwB8K6v+1b8Ypvjb4ys2h8LaVKYfDOlyDKs0bEhyO6oxJPrIf8ApnX3An3fWgBIxtXHf1PU+9PoooAKKKKACiiigAooooAKKKKACiiigAooooAKKKKACiiigAooooAKKKKAEpkigj07/lUlFAHwx8WtF1f9jf46H4p+HbSa6+HniSYReIdPt04t3diS6j13Hcp6ZLr/ABAj7M8F+LdI8deGbHXtBvY9R0q+jEsNxE2QQeoPoQcgg8gg55p/iXw/pvivR7zR9YsY9R0y9haK4tpk3o6HrkevTHfPI6V8Tap4T8ffsF+IrnXfCkVz4w+D15N5l9pJbdPpxOBvz27Yk6HAD4yCAD7xpK4H4S/Gjwl8aPDkeseFdUjvYdo863Y4uLZscrIh5B9+hGCCQQT3qd/rQA6mNT6axoDzI/Lzk+tJkqc++KSZtqnOduOo+h59v/r15V8G/i9dePvEPjfQtVtIdP1fw7qjWvkRljvhZQ0TnPUkc1LklKzN6eHnUpyqwWkNX8z1GaaK3UySOI1XqznA+leR/F/4uax4f8RaL4P8EadZ6z4v1iCW7j+2zMlraW6YBmlKglhuYKFHPuK4f4qaTafF39o6w+H/AImvZl8K2+iHUk0uOdoo9QmL7GMm0gsEHQepzXiPhLwv4s+FPx01a78H6feeM9M8GStpy2Ec2+4XTrlRKIoyxwzI6j5ScgAeorzq+JkvdUdH1Ps8ryOhKPtq9Rc6hzqMlaLvok5XWvc3/jP4n1z41/CLxloPi3Rre08e+AbuHUbi2sN32e6tyD+8QMSQrxl/lJP3OvOB1EPjjw/8Wvjv8INS8DS/2lcaXb3Larc2iEJbWzwbVSY9MmTG1fXJr0D4W/DvXfFXi3x5438YaQuhnxNaQ6bBokjrI8dtGjqWlI43PvPy84GOa6T9mn4Y6r8Kvh6NA1qOyNxaXlwltcW3Ly23mExF+BhtpAx6AVnGjUlJTl9r9NjsxGY4TD4aVKmvehtFPT342n3uk1pqetx/NGOvPXOK+R/+CgXiq817S/B/wh0P95rfi/UYmljXtbxyDbu9jJtb6RNX1B4w8W6V4F8N6jr+t3a2OlafC09xcOOEUfrknAA7kgDkivk79kzw/q3x2+L3iL4/+JrVoLSQnT/DdnPkiGEfKzLnqAuVyON7yEV6+ysfnJ9ceDfDNp4M8K6ToNguyz021js4R/sRqEB/EDP41s0yPG3g5p9ABRRRQAUUUUAFFFFABRRRQAUUUUAFJilooA5bx54JsvG2nx291JJaXFqxubLUbV1jubKcDCyxOQdpAJByCCDtIKlgeQg+JF/4Dmj034gQR2cG4RW/ii2jK2M/ZftA2n7K5x/ETGcja/VV9XxVTULOK8t3imiE0bqVZWGQQeoI7g+mDmgAhdLiFJY2EiSAMsikEMD0II6jFP215dN8Jb7whO9x4D1ibw4jEv8A2UY1uNOYn/p3Yr5ZPOPKeMA5JU5p9v8AFTWNDbyvFvha5gVTh9S8PiS/tiM4BaMKJ1GCM5TaOfmI5oA9O20baw/Cvjzw940tjNoWtWeqxqzITbTKxypwQQOhHpjiug2554oAj20bakxijbmgCPbXjvxq/ZD+E/7Q2vWGsfEDwq2v6jZW32O3lGpXdsEj3MwXbDKinl2OSM89eBXs22jbSauNOx8qr/wTB/ZpVvl+Gpbp97XdTOce32nHbvX0h4S8K6X4K8MaXoGiWgsdH022S0tLZWLCOJFCouWJJ4A6nNbW2jbVdLE21uR7aNtSbaNtIZHt/wBnNG32xUm2jbQBHto21Jto20AR7aNtSbaNtAEe2jbUm2jbQBHto21JtoxigCPbRtqQDPqf5Vz/AIp8feHfBMCz67rllpUROF+1Sqpc/wB1RnJPtjntQBubf9nNRzSLDG7SOsKKu5mY4AUdSTxgD1zXmdz8XNX1wFPCfha5mRh8uqeIC2n2o9/LKtO/qMR4Ofvjtjz+B7nxfMkvjLVZfFADBl0uOJrbTEI5B8gOxkwf+ezyD2WgDS1r4p3niiR7DwAsd0mTHN4mukL2NuO5hXI+1OOwQiMZ+ZsgK1jwX4Ft9EjuI7Zprq8vJPP1DU7g+ZcXUhABkkbAHQAYUBQAAoAAA6vS/C58uNXUW9uigLHGFAAHQADgD25rpba0jtYwkS7V/nQAljarZ24jUD1OOmcVYoooAKKKKACiiigAooooAKKKKACiiigAooooAKKKKACiiigAooooAKKKKACiiigAooooAKKKKACiiigAooooAKKKKACiiigArL8SaldaTot7eWmnyarPbxNKtlC6rJOVBOxc8ZPTnHXrWk3H1rgPit8bvBXwa0v7f4r1230sOv7m3zvuJznGEjHLH0/GgDz/AMAftvfCjxxcCyk19vDuq7vLez16L7MRICQUEmNjEH0avd7G9ttQtxNa3EdzC3IkhcMvTsQTX4hfGrxFo3i74reJtd8PWd3YaLql293BDdIEYK/JIXsjHJAPY1tfAG++Klx4stdH+F19rFvqbHJtrCYrbRj1kBzGFPdmGeKAP1d8ZRnxt8S9I8NuTJpOjQR67fwdBcSmVks0PqitDPIR/fjhrtfL4HQ8dRwD+HavKfglY+KdF8ReItM8caxZ674tOn2F3cXdnbCCJ4X85FCgdQGjcbjjJB4r18rnn/PpQBW2UbKsbKNlAFfZRsqxso2UhlfZXOePfiL4V+FugvrfjDX7Dw5pCuIzdahMI1Zj/CM8k+w5rq9n1I/MZwcf1r87/Euj2v7U/wDwUtuvCXi2Ian4N+H+l+fBo8pIgluCIyzMn8Xzvnjr5YB4o3kooL2i5M+wPBn7R3wv8feH9b17w9450fVtL0OI3Gp3UFwQtnGAT5kgPIXCk5PpW3pPxY8F618PZPHVj4m0+58HRQyzPrUUuLZI4iVkct6KVPNfLf7e3hfwP8AP2WfiTqnhLw9pPhrWPFK2OiTvpkCwiX97uClF4X92JT+NcJ+0lr1r+z3/AMEwfCvgx7qODXNc0ixsI4A3zyu5Sa6ZR/dAMgPu4pSd07bgou6R9oy/HT4ew/DWP4gy+LtLTwVI22PWzP8A6OT5hjKhuh+cFf8AgNSeH/jV4B8WeNrrwbovizTNW8TW9sLubTrS4WSWOEhTk7e5EiHHuK+Av2yNDvvBf7E/7Pvwgs28rWNeubC3liXq7LFukGP+u00ZP+0K+3/gP+y54C+Adlay+H9FgHiM2v2e+1+Rme7vmZlaV5JG6lnUH8a2tq77Jkc2kWuquerMhZieOvp+efxrlviH8TvCHwl0P+2PGXiPT/DWnM4iW41CYIHY/wAKg8k/Tmuw8s7Tlc4xwP6V8Of8FBPgn8Qda+IngD4reFPDtj4/0vwdHLJe+FNSAdZV3bmcRn/WArwQASAoIFYS+JLoaK1mz6T8KftHfC7xv4R1nxNofjjRr/QNHAOp3y3OEtAcgeaX5TIzj1xXhX7Pv/BQTw18Yvix4z8OanqXh3QtJsr9bTw9cPfMLnV8s2HCt8pGMHj1q58G/ib8L/jF+yP4y8d6X4B0zw1pktpcprejCyiSKWe3iJUfu1VZF5XHGRu55rwf9h/9lHSfid+xh4i1iLR9PsfHHiSW/wD7K1uaAGSyGDGmxuoU/MOOm45qvhb7Iltcqtuz7Ltf2tvgze+Lk8LW/wAStAn117gWaWsd2GLTk7BErDgkscV6+VGTjBHY/wD1+/p+Ffmx+yHrFr8IfiR4V/Z7+L3wc0TS/Fyg3OieKrazhla7ZS0iyNJt3MMqwDo3VSCBiv0uVdwBPU8nk9e/61fKlFNEJu7RX2UbKsbKNlSWV9lGyrGyjZQBWaMFWz0xg7euK8/1KNvAvxW07Vrddlh4ob7DqA/gF2ilreX/AHnXdH+Ar0nZXh37WXhvxH4q8IeGdN8Ka4vh/XJPEFo9veGIPsZdzByeSoUBjwD1oA9c8YePvD/gDw1Pr/iHVrfR9KhTe09w2M54CgDlm7BRye1fF9xN4n/4KCfEC3hhgvPDvwU0W5JeYkpJqUi8YB6F8dAOEViT8+K8u+IXwH+JXgnxBZ+L/iRp118ZPCWnyZnjstTlQRjuTGeUA9QEHuOp+9f2ffix4F+KHgGyn8BmG0061RYX0lYvJewbshjHAGe65B65PNAHoXh/RLDw7otlpWl2sdjp1nCsFvbwrhI41UBVUemK0abHjBx60+gAooooAKKKKACiiigAooooAKKKKACiiigAooooAKKKKACiiigAooooAKKKKACiiigAqvcQx3ELxSxrLE6lXjdcqw7g9sfWrFFAHyT8Uf2KptL8Sv43+C+tyeAvFa7pXs4X22VyTztAAITP90hkPUhepyvCf7b2ufDXVYfDHx18I3nhbUR8ia5ZwGS1n7b2VSTjg/NGWHGeAcD7KrF8UeD9G8aaZJpuu6Xa6tYyDDQXkKyJzxkA9D7jB96AK/gzx54e+IWkxan4c1qy1uxlG5Z7GcSL+nf64NdB+tfJHi7/AIJ/aRp2rSa38LvFWrfDvV/viO2mZ7aRs/Kp53BQex3Vkr4q/av+DbCPUtB0n4raVF8q3NgSly/qSVGfzT8aBn2VIob6/wD66+WPix4is/gB+0ppPjfUJFtfDnijS5NN1CXGQtzBl4iAOckFhx1rM03/AIKIaJpM4tvHPgPxR4PuY/lnd7UzRBh128A/pXRr+2R+z38RBZvqniCwb7PIJ4V1qyZTE/qNynDVjWhKpG0Xa2p6eXYuGDqt14uVNpqSWjsyW48KW37VQs/GFpaeIPh3qGjzmLSNceJEuLy3ZQXbym58snpnnIzXrPwn+FGjfCnQrm1003NzdXk5u7/Ur+Qy3N5McZkdvXgAAcAAVyUP7XnwVjtfNT4j+H1jHOPtIDdf7uAawNe/b0+Cfh1WY+L/AO0iei6dbSTEn0GB1/GlCjGL52tWPEZjWrQ+rxbVJbK+y/XU+h1UKvAxznpWN4s8VaR4L0W51jXNSt9K0y1UvLc3T7UXHTJ9T2Hc9ATXyfqH7dviX4gXTad8JfhTrXiG5PAvdUQxQKOzYXOfX5mWodF/ZI+Ifxw1221749eK3u7SFvNh8L6PLst4++1toAA5wcEsQDhhW55Rzurap4i/4KBeO00fR0vfD/wW0S5DXt6x8uXVJM5AUf3sfdB+7u3N83y19x+HNBsPC+h2WkaVax2Wm2USwW9vCuFjRRgKPp/+vmmeF/Del+EdCtNI0Wwg0zSrRBHb2tvHsRF+nr6k8k5znrWrQAUUUUAFFFFABRRRQAUUUUAFFFFABRRRQAUUUUAFFFFACYqtdWEN5jzV3EdCe3uPerVFAHAeKfg/4f8AFVwLm8062nvQDsvGVo7mP/dmjKyL34DAfnWD/wAK/wDE/htGGgeL9WtoVUKltqgXU4FHphwsufcyt2r12kwDQB5PD4x+IGjzFb3RtG123jXDSafdNa3LN/1zlXy1/GSrUXxqFpHGdY8JeJdMkPEnk2Bvo4/dpINyge4NekzWsU/DoGFUZvD9lJnbEsZ/vAc/nQBy2n/HDwHqV4LOLxPYJeEZ+zXD+VIP+AsAa6qz8QaZqPFrqFrcH+7DMrVQvvCMGoQ+VO32mL/nncL5iD6A8Z/CuSufgb4akmeZdA0aKZussFmlvI31MSqSaAPS1+pP1xS8d68jX4H6VZTGWyj1GzlYctbatfLyOmFaUqO/8NF18NdXZAlv4r8Y2Sg5H2bUYjj1GZIHHXNAHrnHalArySHwt4oseI/GmvMcbQb2KCbI+gjUE+/FS/YfHEOBD4ykVMc+fo8Ltn6+Zx9KAPVjQBXzT8efHXjn4X/CLxR4kj8bRi7s7Ui2VtHhTdMx2ooO84JJPOD0rT+FOs/EjxN8NvDOr6r4wWDUL6wjuJY/7FhYjcMgk7xkkYPQdelAH0GaSvJvs/jObibxrIU9IdIhjb/vrzD/ACpk3hvxPdKfO8aa4gxjNrFbRED1BMbc/wD1qAPXKTjv/KvILb4e6msZjm8XeMNQGeRcajEufb93An+e9Nb4MaZdTrNd2erX0q9HutXu2A/4CJVX/wAd/GgD1K88QaXp/F1qVrbd/wB9Oi/zNcpffHDwJY34sn8U6fJen7trbyebI3sAmSayIPgr4eW4SVvDGky3EfKS3VnHcOp9Q0u4/rXT2PhGWxiEUDRWsIHCwjYPxUADNAGBN8aoriNzo3hTxHqrg4RpbE2UcvuslxsU/XpVGbxn4/1bb9l0bRfD8ToSzajePeXER9o4V2N+EgFd1H4Ti6tKc98d6uQ+HrONcNH5vOfmoA8om8K+IfEC7de8Z6reKyFHs9JiXTrd8+oTdL+UorZ8N/CvS9BuBc6Zo9va3ZUK1/IpmuXA4w07l5G/FjXpkVrFCuERQPSpl47YoA5608LL96eQMc8hefz4FbNvYQ2o/dRgH1qzRQAgpaKKACiiigAooooAKKKKACiiigAooooAKKKKACiiigAooooAKKKKACiiigAooooAKKKKACiiigAooooAKKKKACiiigAooooAKilPI9fzP4CnN978P8a+Tf2rP2gNfvvE1p8GvhaWn8dathL6+hPGmREZI3fwsVJLN/ApB6sKAJvjr+1jqh8VH4afB3Th4q8e3DeRPdRAyW+nepZsgFl6lmIVcjJPQyfCH9iLS9N1MeMPilqMnxD8b3BEsjagTJaQMDkqqEDzOR1Ix6KBXpH7N/7OHh/9nvwitlY4v9dvAH1LVpF+e4bOdo/uxj+Efnya9gRfl655oA+BviZ+yDrf7RH7TniHVY0PhnwLp6Wuni+MQWS58mJVdLaP7oAORuICjBxyDX2F8K/g74V+DPhtNF8K6VHYWwwZZPvTXDjo0kn8RruaWgDzT4nQ3HhfVtL8dWaSTQaZFJa6xbwDLSWMhDNKB/E0LqHH+y0wHJFdxZ3NvqFnDdWksdxazIssU0LbkdGGVZSOqkEYPpV2YAsoK7lPtn/I/wA+teVXGk6r8H7ie70Gyk1bwZOzTT6Lbf6/TGJy0tr03xnqYcjBLMpxkEA9O20bazvCninSvGWiw6pol9DqFhLwskPG0jGVZT8yMD1VgGB4IFa+M0AQ7aNtTbaNtNBa5AUHOfp09eOtfKPxs/YD074mfGY/FDw149174b+K7iIQ3txo6q3nAKEzkspU7QAeTkAccV9a7aNtTy2dwv0PmXxZ+w34W8Zfs3n4Talr2t3YN3/aj+IryYXF899klpmJPzfeYbewIrzK6/4JXeFte8L6XpviXx94k8S6rYXVv5ep6giSiOziUhbOGJiRDGcgswOTtFfc+2jbTvqw16Hgnxi/ZQ0f4zfFr4Z+N9S1q8tk8DTefZ6TFCjQzPvVwXJ5BBjj4/2fepviH+2l8FvhP4uv/C/inxzZ6VrtiUFxZPFIzRbkDKGKrjJUq3/AhXuTKWO0c8YPUdfTtWJf+A/DmrXcl3faDpd7dS4Lz3FjFI7kDGSSD6Uc0n6BZLc8Jt/+Chn7PeoXEVvb/EWzmnmYRpGtvNlySBtxtwc1R+J37HfiXx54u8T6no3xx8ZeE9H8RP5l/oNqElg5j8tliL42KQB8vY5PevoC3+HPha1mSaHw3o0UsZ3I6afCrKfUEL1roVXAx0/z9KPduu4anjPhX9ljwP4M+Ad78JNKtbiLwxfWs1vcytLuuJ2mxvkd+BuLY6f3QK8F8E/8E07nwL4ZGlaT8dPHdgLScXGktYukENk5JL5hDkSb8jrxxX3Dto20dWI+afhB+xjZeBfij/wsbxl421z4neOILf7LY6lrioiWceMERopIzyfm7Zr6PWMKOOnbjH6f59an20baLglYh20bam20baBkO2jbU22qOsapZ6HYz32oXUNlZwpumuLiQRoi+rMSAB7+vrQBMw2g56ce369hXj8eqJ8RfHw1uBfM0HQhLaabN/Bd3T/JcTA941UmMH13HtTNZ8Sal8YVksdPS60bwQxK3OoszW91qyd44OjRQNxmQgM+CFGMk974X8ORQ29vFDCltZW6BIoY0CIigYCgDgDHpQBu6HZ+Vpaq+GEi5IYcdOMj6dvfFfHX7QXwV1j9nPxgfjZ8Jk+zQQEnxB4ejG2CSAnLuEH8GQCwH3fv9Aa+21UKoA6VBeW8d1G0csayRupVlcblYEHII7jqMdwTQByHwc+LGifGjwDp3inQpCba6XbNbvjzLWYAb4X/ANpTx78EcEV3FfBupWs/7Bvx8j1G3Ej/AAc8ZTbLiLBYadMTkkf7mcj1jyOqCvuqxu4b2zhuIJFmhmQSJJGwZXUjIII6jBoAsUUlLQAUUUUAFFFFABRRRQAUUUUAFFFFABRRRQAUUUUAFFFFABRRRQAUUUUAFFFFABRRRQAUUUUAFNZd1OooAo6lo9lq0Pk39nb3sH/PO4hWVfyIrita/Z/+G/iEsb/wRoUxP3sWMa/+ggV6HRQB4wP2P/g39sN0fh5ownLbi3lvjP0ziuk0P4A/Drw7n+z/AATods3977Cjkc/7QNeh0UAVrOxgsbdYLaGO3hThY4kCKPoAAKsKNtLRQAUUUUAFFFFABRRRQAUUUUAFFFFABRRRQAUUUUAFFFFABRRRQAUUUUAFFFFABRRRQAUUUUAFJilpM0ANManqoP4VHKsaqWKpwM/NgD8/89Ki1K/t9MtZbu7uI7W2hjZ5Jpn2Roo5JY9APc18U/FD4+eK/wBqjxJdfDD4LRyRaC2U1rxcwaONYejKh6qh5H95/wCHjdQBD8bvFJ/a++Mmj/CXwY32jwbo1yL7xJq8IDQuUPEYI+8oOVA/iZv9mvtjS9Hs9N062s7W3jitreJIYkAztRFCqM/QCvP/AID/AAG8PfAPwXHomiReddNte91CQYmvJQB8zHsOMBRwABXp0fQ9+aAI/ssY6Rp/3zTvKj/uL/3zUlFAEfloOiqD9MU9RjtilooAKKKKACiiigAooooAKKKKACiiigAooooAKKKKACiiigAooooAKKKKACiiigAooooAKKKKACiiigAooooAKKKKACiiigAooooAKKKKACiiigAooooAKKKr3dwltFJLI4jRELMzHAUepP4UAeP/ALVfx8t/gH8NZdRhCXHiLUG+x6RaE8vO38ZHdUGWI7kKv8Vcj+x5+z3N8MPC83ivxSGvfiF4l/0vUrq4X97AHO8Qg9iSSX9+O1eYfC23k/bA/ae1L4i36ST/AA88Fymz0OFwfKuJgSQ4HQkkeY30iHevuKMYU+5z2oAIzlSff0xT6KKACiiigApj+5wPrin0UAec+KfhTDdarPrnhy+uPC/iJxmS80/BS4x0E8LZSXqcZGRngisu3+JfiXwcfJ8Z+HzcWycNrugRtPDt7M9vzInGM+X5nOeBXrVQXNpHdDEi59OxH40AYvhnxvoPjK1efRNVtdRjjGJVhl3SRezp95D7MAeRxW3wOnHtXBeJvgz4d8SXUd3Np0MeoQkmG+t90FzEx7pKhDKfcGsUeEvHPhWIro3i+e9iVdsdr4hthfIOSSTKpSZjjHWQ/T1APWVpdu6vK4fiN4y0gldW8Gw6lFGvM2hagC8h74gmCbfoZTVqP466BCsQ1Kz13QZZTt8u80id1Q4/ilhWSNPqWxQB6Vso2Vxtn8YPAupXS2kPi/Q3u5BxbNqESTen+rYhv0rrLW9t7yISQTRzI3IaNwwP4g0ATbKNlOX6YpH6UAJso2UUUAGyjZTJpo4FLSMqL3ZzhR+NctqXxV8F6LcrbX/izRLS5c4jgl1GESOfRVLZP4CgDrNlNYba88k+OvhZpJIdP/tTV5lHH9n6TcvG3sspQR5/4HVGb4peJtS8v+x/As9oCcO3iK/itdo7ELEJ930JQ/TqQD1HjvWZr/iPS/C9i19q2o2umWQIQz3kyxR7j0G5iOfbqe2a8xmi8da+yjUvFUOjw7ubfw/YBXdSD8rSTGRh/vR7TUuh/CbSbW8S9/s+XU9S2gf2hrEsl7OR1x5krE4yTxnjJoAluvjFeeIF8vwXoFxqqsMf2pqitZ2S9QSd48yTB54RQR0cVmQ+A7nxFqEN94v1FvFN/E3mQ2jRiPT7Vu3lwfdcjs0hLe5wK9KtfCu4g3DcD+AZIH09PoK27TT4LNcRRgH3OaAMLS/DrMyy3PA/unO78c9/6YrpY41jUKowopC2Opo3e9AD6KaGpQc0Acd8Wvhno/xe8Dap4W1yIvY30W0SKPmhk/hlX/aU4P4YPBNfNX7JfxK1n4X+ML74BfEGbbqulsx0C/kOEvLYciJSeuBlkPXAZOqV9isu6vnz9rz9nmb4weGLTXPDbtYfEDw6ftWkXkLbHkKnf5Jb1yu5D2YDszUAfQUf3f8A62KfXgX7Kf7SEPx08Jy2eroNO8c6Kfs2raa6mNiwbAlVOwOMEfwOGXtXvacLQA6iiigAooooAKKKKACiiigAooooAKKKKACikpaACikpaACiikzQAtFJuo3CgBaKaWWgMO1Ah1FMMgFHmA9DQMfRTQ1LuoAWik3UZoAWiiigAooooAKKKKACiiigAooooAKKKKACiiigAooooAKKKKACiiigAooooAKKKKACiiigAooooAKKKKACiikzQAZrk/iZ8SvDnwo8L3PiHxPqUWm6dCMbpOXlbskafxMfQenbqOX/AGgf2g/DHwA8LDUtcka51C4DJp+k25/fXcmOnsg43MeBnoxwK+fPhn+z74s/aS8TWvxM+OPmLpmfP0fwaCUhiQ9DKvUJjnafmbjdx8rAGK1t8R/2+tVEj/aPAXwYhmwqksLnVFByDnpIeM5+4mQBvYMa+xfhr8M/Dnwp8L2ugeGNMj03ToR0HLyMeru38TH1Pt9K6SxtYbO0it7eCO2t4VEccMShVRQMAADgDHQemKsUAC0tFFABRRRQAUUUUAFFFFABRRRQAUUUUAFFFFABRRRQAUUUUAFFFFABRRRQAUUUUAFFFFABRRRQAUUUUAFFFFABRRRQAUUUUAFFFFABRRRQAUUUUAFFFFABRRRQAUUUUAFfMX7eXxWu/CPw3tPBWgb5vFXjWX+zbWGE4fyMgTEe7BljH/XQntX0xMu7I9u3X8PQ18U/Cb/jJT9sjxR4/l/0nwl4IX+zdHJ5jkmyVDrng8maQH/rnQB9LfAH4T2nwV+FeheFbYK01tCJLudRjzrhwDK/03cD2UV6LTIvun6/5NPoAKKKKACiiigAooooAKKKKACkYbhgjNLRQBWksYJchoUP4c/nVKXw7ayKQNy/jkVrUUAclf8AgCx1CPZOlvOn9yW3VgfzrlL/APZ98HXt0txL4V0OW4XlJzYosiH/AGWxn9a9YooA8kj+Cel20ZFvZzWSdhZ380Wz/cCSVwHx2XSfgn8Lda8VXl3rMkkERhtIH1+9DXFw/wAsacS5wSfmwOgyelfS0gLHA4yMf596/Lj/AIKGfHP/AIWF8TovCGmXO/RfC7mOXb/q5r1h+9b/AIAv7se5loA534R/than4duhaePZde8SWTNg31rrNzBdw9iSocI4HplW7bu1fcPw3h+H/wAZdDOo+GtYl8Qw7R5yXGqXL3EQP8EySSbxn0Ix15PU/kZxt469vTFey/sxfCL4jfEzxfJd/DnU10G90wqbjVft32f7OrHgkKS7j5fu7Cp/ioA/TmH4AeEReG8j8H6K91jb9olt0aTA/hLFc8e9dPpvw8t9OUC2sbO0HQrDCgx+QFWvhnpni7SfC9va+NdcsfEOsx8SXtjY/Zlk6cldxBOc8gKDx8o6nrx3oA52PwqVUA3GFH8O0Vbh8M2sfLjf+GK2KKAKkOm20KgJCo+ozVlVCjAAA9hTqKACopGAOD+H+fwqWoZup9cUegj5++IHxh8W+LPijcfDn4ZxWcN/psSz6zr9+pkhsQ3KxrGPvueuCcYI+o2vBXizxv4FuPEsHxQm099C0u3jvLfxXboLeKeM53o8RZtrqRng4wR9THffs+3+lfE7VPGvg3xfN4auNaZH1exmsY7yC5KjG5csrRtgAZyR04ryn46eKNK8YfHaLwZ4/wBZh8M/D7Q7aHU3t7uQxf21OScJuzyiYOVGSfSvLlOdFc9Tufd0KOEx7jhcLFciheT5W53W/rd6JLS259Y6Frlj4i0m01TTbqK80+7QSwXEJysiHkEH0xWinGfc18R+MP2rru81i18S+HZZ9P8Ah7o0j2el2MEA8/xLegFRDGpG5IU7tgfqM++fBP4ya/4+aLTfEvgjWfC+rLZpdSzXNvizkLZyqPnOQQflYBh3APFb08VCpLlW/wDWx5GNyHFYSj9YkrLs2uZeVuvnbY9j70h9jz0pqnKj1p6967eh83fqj5E/aj+BGv8AhHxhD8bvhSv2fxVpmZtX02Nd639uB87hByzheGUcsoG3kYPs37Pv7QXh79oLwZHq+jsLbUIAseoaW7ZktJSM/wDAkOMq44I9CCK9SkxvByAccf4/Wvjz45fs5+Jvhb46f4w/BJWg1eMGTV/DcKZjv0JBkKIPvburR/eyoaPDcEGfYydPTnNOrxf9nT9prw1+0FoAazYab4jtYx9v0Wc/vIWAwWT+/GTnB/MAgivZV+XNAD6KSloAKKKKACiiigAooooAKb/FTqa1ACcUdenNYfi/xpofgXSJdU1/VLXSdPjHzT3coRc+gz1PoBye2a+XviB+3fDE01p4E0B7x8MF1XWwYIc9mWDIkfPo5iPfkEVlOrCHxOx5mMzLCYCPNiaiifXJ+VsnAFcT4w+N3gT4fySw694q0uxu4+tl54kum/3YUzI34Ka/PTxn8a/HvxEeT+3PFeoG0kH/ACD7F/slvjHKskeN69eHZ64a3tYraMJbxJFGOixqFH5ADFefUx0fsr5n51jeP8LRk44Snzeb0R9y+IP28PBGnu8Wi6TrWvYH7uZYFtoGPp+8ZZB+Mded63+3x4ovFYaP4R0vS2B4e+u5bwH6qixYPtk/WvmLvzxTgxX7p4riljqvQ+NxPHmZVX+6SivQ9l1f9sL4rasD5Wrafo7Hp/Z2mo2D/wBtjJ/Kucvv2ivijqShLrx1qHv5CRW5/ONFxXnZz3o+lZSxNWS1keBV4ozes9a7XodJP8UPHVzgv478VBh/zz1u5QfkJKjb4h+M5lxL408TzrnOJ9auZFH4FzXP80oYr3xUe3qP7RwyzzMpb15feb//AAsbxuvH/CdeLEXGAE165VR9AHFXLT4uePrEho/HfiQsvebVZpR+Tuc1ym4+tJ9TR7ar0kOOfZnH/l/L72elWv7THxXslCxeObtkXr51naygj3LRE11WlftqfFDTUCytoWpqOS95YMGx9YpUA/75rwujitPrVZKydzup8VZvSd412/U+r9E/b9vlaNNZ8ERumPnuNN1L5j9I5IwPzevR/Df7bXw41sIL+XU/DsznCrqdkzKR3O+DzVUdeWK9K+CaUEr061tHHVI7q59HhePswpW9tGM16WZ+q/hXx54c8bWslx4f17Tddt1+/Jp90k4X2bYTg+x5reDHzO1fkRFH9nvIruBmgvIjmK5hYxyxn1SQYZT7givWfA/7UnxK8C7I113/AISOwBx9m15DcNj2mysmfcs4HpXdTx0JaSVj7fA8eYDEWjiE4P8AA/SJc7jSrnnNfN/w3/bY8IeKZIbPxNDJ4N1SQhQ93KJLF29FuVAVf+2gTrgZr6Ks7iO5t0mhlWaKQbkkQghgehBHBFd8ZRkrxP0LDYujjIKpRldeRYopNwoqzsFooooAKKKKACiiigAooooAKKKKACiiigAooooAKKKKACiiigAooooAKKKKACiikzQAZryH9pL9ojRv2ffBp1G7Vb/Wrs+Tpmko48y5k9cddq8En8ByRXTfGP4r6J8F/AuoeK9dm22lomI4EI8y4lP3IkH95sH8sngGvmT9mn4Q698cPHB+O3xRh86edt3hvRn/ANTbQgnZJtP8IySgPU5k+9toAvfs5/s2654w8Tf8Lh+Mo/tTxReFZ9M0a5UmKxTqjsh6MAfkj/hzk/Pgj7ChU7fm4OaWMbV/Gn0AJS0UUAFFFFABRRRQAUUUUAFFFFABRRRQAUUUUAFFFFABRRRQAUUUUAFFFFABRRRQAUUUUAFFFFABRRRQAUUUUAFFFFABRRRQAUUUUAFFFFABRRRQAUUUUAFFFFABRRRQAUUUyQd9uT/n/wCvQB4v+2B8WD8IfgX4g1S2m8nVb1F02wZThhNLkblPZlQO4/3KZ+x58Jx8IfgP4d02e3EGrX0f9pX+RhhNKAdpHYqgRD7qa8a/aBX/AIX9+2B4D+FyN5+g+GF/tjWo8ZVmIEmxx6bBFH/2819op93PagBVpaKKACimbtvU4o3+9AD6KRWzS0AFFFFABRRRQAUUUUAFFFFABRRRQBj+K7fUrzQb+30i7jsNSmt3itryVC6wSMMK5UEZAJ3YyM7cd6+GvjJ+wj4G+FfwT8Z+L7zW9c17xHY2Ml0t3dTKkRuD8oYooySWbJyx5Jr78xXz3+3vqf8AZX7LPjIqcPcfZbZQOrb7mJSPpgn8M0AfJfw1/YHl+K+k+E9Vt9RuPDujX/h1by7vmjS4Y37TSqEjT5ML5e0kbield38T/hj4q/ZL1rwv8YdBt7W5FrbQ6Z4t0/SAY7e4RAI1nCEDAdFUsAAFlCtzyT9d/s96cNL+BvgK2CeWV0SzYr3BaFHOffLV2Ov6NZ+INJu9N1C2iu7K7iaCaGZdyujDBUj/ADjr2oAoeAPG2k/EbwfpniTQ7lbvS9QiE0Ug4I9VYdmByCPUGuhr4R+H+qX37Dfxvk8Ca7PJL8K/FMxk0bUZW4spSQuGbt2V/XKP3r7ribeuRgjPGKAH0UUUAFFFFABSUtFADWXNc1408B6H490m50vXdPiv7O6iaF0bKttI5AYEMuf9kg+9dNimMvzdamUVJWZcKk6clOm7NdtDxXwj+zZ4f8L/ABGXxXLdG/Sxt47HQtNkiEcOkxBcMseDyzd2IBwAO2T7HHwW578cdPauO+Knwx0z4paPDZX9xfWM9tJ59nqGnXLwTWso6OpHB7cNwa4TwhqXxT+Hview8OeJLNfHPh+7kEMHiWzCxXFuMH/j6i+7jgZdfUccVhDlovlitGevUlUzKPtala849Ho7f3Xt67P1PTPiJ480n4Z+E9Q8R67dfZdMsY98soQueSAAFHJJJwBXMfDj47+HviRqlxpNvFf6RrUEAum07WLR7WVoScCVFb7y8jp6ivMv2iJPHOq6b4x8Kaj4In8ZeFNagRdKuNFYCe0l2gYnVmBwJAG3rwFODXE+N7vxFrngnwh8I1sor34r6hpsI1XVgSv9lW4IZpJJYiG3bl4VW+YjODkA89TETjNpdPxfY9bB5Rh6+Gi5y95vVpp8sbfE1vpre9ulj680jX9O1troafe296bWZref7PKHEcgxuRsdGGRkdq0l+6QPl57DNfMnga30j9jTSJdH13XJ9ej1y98zS7Oz015NQllKlpi5RmMvJX5sfKABnkY9x+GvxM0H4oaDLqeg3DzxQzNbXCTRGKWGZMbo5EIBVhkcH1FdNKt7TSekuqPFxuX/AFaUqlC86N/dna1/l0PFf2gP2QIfGGvJ48+HepHwX8RbUmZbq2YpDfN3EvBCk8DdghgArAjBHO/C/wDbOu/Cmvp4F+OelN4O8Vw4jTWJE22V323E5ITOPvAlD6ivrr1PauO+Jvwl8KfF7RG0nxXotvq1rg+U7qBNAx6tHIPmQ/Q/UGug8k6rT76DULOO5tpkuLeUb45o3DK6nowI4II9Ks18S3H7O/xk/ZnuptR+DniVvFHhlTubwprBLELk/KgLBc4A5Qo3se/U+CP+CgHhtdQ/sP4m6DqXw58QofLlF7A7Wxb13Y3KOv3hj3oA+sqKw/DHjHQ/GWnxX2g6xY6zZyLuWeyuVlUj/gJraVvx+lADqKSsjxZ4ksvB/h/Udc1JpI9O0+B7q5kjjMhSNASzbRzgDJP0oA2KaaxvCfjDRvHGiwatoGpW+rabcLviurWUSIwPPUdCPQ8itV24JPpTAGb16449DXzp8fv2t7H4dzXPh7wpFBrfiqM7J5JWIs7An/nqRy7Dg7F9RuKggmH9rv493Hw80m38KeHro2/iLVYWea9jHz2NryrOp7Ssdyoe2Hb+GvhaG3W2iWNF2qPfJPuT3J6k9yc9683FYpUvdjufm/FHFKypLD4f+I9/I2PFHibWvHWtNrPiLVrjWdRAZUnumGIlbqsSD5Yh/u9vU5Jymz7DjovT0+v50UV4MpOpK7PwDFYyvjJupXlzN9xKKKKRwhRRRQAUUUUAFFLSUAFFL/DSUAFFLSUAFFFFABRRS54ovYaFHzcdjwfx6j/9fWu5+Ffxq8WfBi6UaDeefpAO6bQ7p2+yyD/Y7wt7x8E9Qe3C7TS+/etYVJRd4nr4DNMVl1RTw07eR+lvwY+Ovh3416TLPpbPZ6raqv27Srr/AF9uW6HjhkJzhxwcEcEED0uOvyY8M+JNV8F+ILHX9CvGsNYsX8yCZRkEdGjkX+ONh95f9kYwcEfpZ8E/ipYfF/wDYa/Zj7NO48m8s2OTbXCACSPPcA8g91KnvXv4bEKvHXc/ovhziKGd0bT0qR3Xf0O/opBS12H2QUUUUAFFFFABRRRQAUUUUAFFFFABRRRQAUUUUAFFFFABRRRQAUUUUAFQXkyW8EksriOONS7O3RQBkk+2P61MzAYB718qfty/FbU7PRdH+FnhDfL4v8aSi0KxfehtC21zntvOVz6K57UAed2lvL+3Z+0JPdTrJ/wqLwTOY1iYfu9Snzz9Q+Nx/wCmYUfx1902sKQ28cUaCOONQixqMBQAAAB247Vw/wAD/hLpfwV+G2j+FdLRdtpHm4mHWeduZJD7k/oAK74Z70AFLRRQAUUUUAFFFFABRRRQAUUUUAFFFFABRRRQAUUUUAFFFFABRRRQAUUUUAFFFFABRRRQAUUUUAFFM3YqnqeqWej2r3l/dw2VrGBvnuJBGi/VjgD8TQBfpM15tdfHfw7JcTW2hQan4tu4nCPHoVk8yqfUyHCY9wxFVW8YfEHVw4sfDOlaAm47Jta1HzyV9fKgGQfYmgD1ItSbvevLBofjbUpN2oeOjaxFfmt9J0yNAP8Adkclh+I7VDH8LbSTd/aPiLxPq4Zt2281dwvTpiNVwP8AGgD1Se6it13yyrGo7uwUfrWZceMtBsc/aNZ0+AKcEyXca/zNefWvwZ8F2cjyLoMcrudzNPczzZPvvkI/StH/AIVn4S8sL/wi2iyDriawicfqtAHTf8LG8KYz/wAJLo4+l/Ef5NSD4k+Ez08TaP8AjfxD+bVz1r8PfC1nIXg8LaHC+Mbo9KtlYfkvSn3PgXw1fKBc+HNFuFToJtNt2APr9w0AdJD488N3WfJ1/S5gOvl3sTfyatW21K3vM+RPFMe+yQN/ImvP/wDhW/hKPIHhXQ0900yCP8eEFUb74PeDNTjdJvDlqobjMDyQHjtujkzQB6tu9/0xShq8k/4VJo9rD5el3+u6Dj7p03V5lYf99l8/iKf/AMIl4qsI0XS/iDqKomNyarZwXxf23fIRQB6zS15Z/wAJB8SdKaQyad4e8RQLwi2l09pOeP4vMBQH6Gpf+F32ekceJ9A1vwyAoLXNxaGe13dMCWLdn64FAHp1FY3h/wAXaN4st/O0fU7XUov4mtZg+3gHBA5B5HBwea115HqKAHUUUUAFFFFABWX4l16y8LaDqOs6jMLfT9OtpLu4lP8ABHGpdyf+Aqa02r5Y/wCCgfjy50j4V6d4J0jMuv8AjK/j06GCM4d4Q6FwD2DOYUPqHNAGL+wP4fvfF03j34xa1Dt1XxZqckdtvXmK3VyzKp9NzBP+2FfYCDaoA4HauU+FPgO1+F/w58O+FLPa0Ok2cdsZFGPNkA/eSY7FnLMfdq62gAqOQ7eakqGTPrx6Ubh01Pnr9sjxVrml+DdA0Lw1qc2l654g1WKzgmtz+82jLMB+C/pXlEnxw8Qa1+yYbY6xdQeMxrKeGJLyNttwZvP27wfVkHNeyfEzwXrHjP8AaM+HNx/ZUs3hzQobq/lvyB5UdyRsROe5Bb9K8d1v9n/xlD+1RCbLTZJfh7e6rF4guLjCNClwiYKnvnctfOVFifbuUdpu3/BP1HKJZbLA08JiXBSgnUu927v3H8rH2XoNvNZ6PZ29xI8s8cKI0kn3mIUDJ9TWmucVBHgt14Aqda+iVuh+YSfNJy7jqKKKZIUUUUAFFFFABRRRQAUUUUAFfJX/AAUq1c2fwP0bTU3F9U8QWsAVep2rJJ/NB+OK+tM18c/trN/wlnxy+A3gpF85LrVje3MfpGskag/l5v5UAfWfhnSk0Hw7pumxjEdlbR2yjsAiBP8A2WtPFNjOV9qfQB5t8fPgvo/x3+Hl/wCF9WUI8i+bZ3gUF7WcfddT19iO4JFeG/sifGrWdE1u/wDgl8R3aDxhoOU066lY/wCnWy4KqCfvEL09VwO1fXJ6184/tefs53HxS0ey8W+EWbT/AIi+HT9p0+5tzh7lVJbyCe5z8y+/HRjQB9GQrtU+5zUleEfsp/tHW/x48GtFfqtj400k/Z9W05ztcMDt81V7K2Dx2IIr3ZaAFooooAKKKKACiiigBpXNNZcU/FFAEMihtuRkZ5/Ij+ted33wb0g/FKPx9bTXtlr32f7NPHbT7IL1QrBRKuOcZyMHOQD2r0nimOCc49KmUVLc2o1qtC/I7XVvkfGnxEg+KfjjWPBun3/ge7tvHehaus1v4o0wD+y2ty37w7ixIRkChoyM5Ar6mutQ0TwVayzzvY6XJeTAs8jLB9onKgDLEAFiFAz6KB2roVjCtvJyfyrC8ceA9A+Iugz6P4j0u31fTZB81vcJkA9iD1BHYjpWEaTg5SW7PVq5jHFKlRqw5YR/lv1d+r/A8v8ACn7TFm3iJPDXj3SZvAfiCVttul66vZ3pIBBguB8r5/u9R+Ve2xTCWMMrBlIyGByK8Cs/gPceB4dTs72/l8e+AYrZri18M6tbLc3MMy4KLDM3VcAgBucnrXE6V8ZPFWreLL3VfAuq/wBvRpt/tD4ca/ELLULDaAv+jn3KkgNkE559MlWlT0qndUy+hjG5YF2Ud97fjqn6trzPrY9OuPwrm/G/w18LfErTWsfE2hWGtwEYC3UAdl+jfeXv0Ip/gPxU/jHwvZarLpt/os1wpL2OpRhJ4WBwQwHHUdRXQRSdRkE57V3XTWh8vKLhJxa2PkzxN/wTx8PWOpSar8OfFmufD/Uyxb/Q52kiPopwyttz6lqyo/Dv7XHwvKR2Ot6D8SdPj5IvAEmK9h/Ae3619nCkbnjtQI+OG/bQ+J3goN/wnvwJ1u0RTg3GkM0iv2yAQR/49Vw/8FFvhdqWnT2niTRfEmiRTRNFNBfaaWBUjDD5Sc9h+NfXJQcckY54NcD8ZNU8N+C/h/4h8Ua5p1jcw6ZZyXIW5t423uB8iDeCCzPsUD1IoA/Hj4d/F3xT8HfED6j4L1660358vGuWguV7ebE3ysCMehGOGGK+9/gb/wAFG/DXjEQ6X8QbWPwpqhAH9pwszWEhxyWY/NF/wLjnrXyX8I/2Mvif8YmhvI9K/wCEd0iQ7m1PWYzEuCeTHERvbrxnAx3r7h+EH7AHw5+Gslrf63FJ4y1mLEgm1MYto2BBysH3Rg5PzFutGvQUtj5V+LPjD/hYXxQ8WeIEn+021zevDbNvDr9ni/dIqkfw5Rm/4HXIkknJyT3JrsfjF4TbwH8VvFuieR9nhjvpLm3RUCK0Mx81GUDgDc7jgAfKeK45sg4PPvXy1fm9rK5/KHEfP/alf2m9xKKKKwPmgooooAKKKKACsnxd4gXwr4X1LV2AcWkRk8tiQHPQDI6ckVrV5b+0hfyW/wAN3soT++vrmOEL6qDlv5LVQipSSZ7GT4aOMx9GhPZvX0H+A/il4i8eXWlSw+Hhb6NgLe6kzNsVhnIQ9x7+pNbHwy+I0/xAm12V7SO0s7C7+zxyKzZZeSc/gBWjb6WfDPw0W0tE/e2mlsNqjPzCIk/qTXhPw5+JVv4Z+FGq6dZ21zdeJZXuJHjWPCou05kZvRRnj1zXbyRnzW6WPu6eBw2a06/1TDqLjKMV6Nu8vuPUvCfxel8R+HfFOtzWUdvaaU0iRGNm/ebVOCfTqoJ965z/AIX14h1Twb/b2neGEktLXm9ndyIlO4AKgPXGevufSuZVf+EZ/ZjO7d9p1i5AJA+Y7mJyf+ApXUfEyOPwb+z/AKfpEUe17lbe2Kr3ZhvY/pj8ar2cE27dT045dltKvGKo8ynU5F5KKs2ep+DPEf8Awl3hfTNWEXki8hWTy852k9f1rZbjisbwXpY0Hwjo2njg29rGh+oHWtkqR1781xVLc7sj8pxypLEVFRVoXdl8xKKKKzPPCiiigApccZpKXPGKY0LjcpHY/KT6Zr6G/Yq8anw9448QaVPdLFaXtmt8I5ZEVfNibY5GSOWWRB/2zr55+6uSDgnBr0n4N/Aaz+Oen+MYNQZreK1tUtLG+QkeTfOS+RjrtVIwR3EtduE/in6BwT7X+1Y+y21P0a/4SjRwP+QpZE9P+PqP/wCKpf8AhKNHP/MTsvbNzH/8VX4b+NfCOt/D3xVqXh/XYZLPU7GUxTRsxIPoyk9VYYIbuCD3r2L9jv8AZ4b9oT4gTLqUskfhbRljuNRaN8PKWJEcIPbdhiT2VG74r6I/pXS2h+u1jewahbrPbTJcQt92SNwyt9CDVis7w/oth4d0e20zS7WKx0+1XyoLWBNiRIOAqjsP59e9aNAgooooAKKKKACiiigAooooAKKKKACiiigAooooAKKKKACiiigCjrGpWuj6bdX17MtvaWsLSzSt0RAMsT+ANfGv7Iej3Px0+NPjT466xGxtDM+meH0k/gjGAWX2VNq/VjXa/wDBQP4h3Ph34S2vhHSWJ17xjdppcCLnPlFh5h45Gcquf9qvbPgz8ObT4U/DHw94WtANmn2qxyOMfvJSMyMT3yxbk0AdrH93jp2p1FFABRRRQAUUUUAFFFFABRRRQAUUUUAFFFFABRRRQAUUUUAFFFFABRRRQAUUUUAFFFFABRRUcjbfyye5xQA/Nc54z8f6J4EtIptXvRBJOdltaxoZbi5f+5FEoLOfoOO+K5nxX4/v9U1y58LeDo4bnWLfA1HVbkM1lpQIyA4H+tmIIIiHTIZyoxuXwn8PbDwzdSajM82teIbkYuda1I+ZcyH0GPlRB2RPlXp60AZ0uu+PfG6h9Ps4/AelyHK3WpKlzqTL6rCD5cTf75Y/yotPhHoDXkd7rK3PirUk+ZbzXpjcBD/sxk7FHsF6k13O3juT3NIUoAiiiSG3jgjjWOBBhIY1Coo9AABgUvTpgD2p+yjZQAyin7KNlADKKfso2UAMop+yjZQAyin7KNlADKKfso2UAN25pVJjOQWX/dOM+xxS7KNlAHKa58L/AA3r90LyTTI7LUl3MmoaaxtbmM+oeM9fqD9KoxWvj3wa2/TdTh8baavP9n6wRb30a4HypcIu1umT5i5OeorudlLtO3aPrQBj+E/ivo3inUG0yQXOieII1zLo+qReVcjGc7RkiQe8ZYY79q7hGDAkHIzXD+KvBuj+NtPSz1qwjvEjbzYXyY5YXH8cUi/MjD+8CCO2eRXN2fijWvhTcR2niq9m13wpIRHB4kdAtxZEnCreqMfKcgCcAckb+u6gD16iordg0KkNuHZvUdj+VS0ARy/dPOP8/wA6+L/C+P2jP259S1koLjwt8NrYW1t/zzku8soI/wC2hlcf9cY69z/ao+MkPwP+Det68JRHqcsf2PTl/iNw4O1h/uAM59krA/Yq+Dz/AAl+COmnUYiPEOut/a+pM6/OHkAKIT6qgXP+0WoA9+Vdq4606mpwvByM06gApvanUmKAGKucmjZ81P20baADFLSUtABRRRQAUUUUAFFFFABRRRQAUUUUAMk/z7V8cMx+I/8AwUgYKQ9p4K8PhZFP3Qzxk7h75u0/75FfYV5cxWdvJPM6xxRKZGdugUDJP4Cvj39gmGTx14i+LPxTu0/5GHWnt7WRjykQLSFR7APCPwoA+x4zuUkepH9KfTU6Z6c06gAqOTGefTHP+PapKKAPjP8Aak+EeufCPxtF8dvhhHs1Wy+bxBpKA+XeQcbpGUdVwFD45UbXH3a+jvgr8YNB+N3gGw8S6DOWjmBS4tZiPOtZ1A3xSAdGUntwQQRwRXbXiRyxMkiLJGw2srdCDwR+P69K+GfiV4T1r9iX4pTfEjwfaz3nwu1ydY9c0S3+7asScMq9BgkmNjwuTG3DCgD7tXpmlrB8D+MtI8f+FdO8QaFex6hpV/EJYLiM9QeoI6qwOQVPIIIPSt2gBaKKKACiiigAooooAKKKKAEopaKAI5FB479sVw3jL4P+E/GutaZrOq6RBLq2nSrNbX8W6KZCpJwWXkrzyDxzXe1DNgtjJXvmlyqWjNadapRlzU5OL8jwf4+fE7xNZ+LvDfw88DvHbeJ9eWSd9SuVDR2FohAeXaT8zHICijw14D8ffC3xNpl/c+PrrxZ4Ukim/txfEBRZLfCErLCyoDgEY2k9O/Fdl8WPgnonxUm029uZ9Q0fXdMLNY6xpM5guoMghgGHGCOzcc1598SvhJ4w8dTeHvh+upXSfDuG2Eut6zcXZkvtSIORbknoG6s3oa4KkJ3c3q+n/B8j6fC1sNUoU8PFqKs+e8Vf5Pf/AArud38O/wBoTwL8TfMi0TXLWa6+0SQJbSzJHNNtOC6JuyVPUHuOa9IVsA845446V8R6p4DsPjJ4+07QfhPpumeFvDPgm8Es/iyO2Dg3KceTCf8AloBxv7dm613Pwa+Pt5pniTx9beMvGFlqvgzRZo4bLxNcRR2yy3ByZYVKnEm3APyj+Kpo4p3tVVvTbzOjH5DDklVwTeiu4PWaT0Wq0u97bn1Mvy/eAH9aiv8AT7XVIhDdW8VzCGDbJkDLkdDg15sv7Rnw/m8A6j4ztfElle6DYKWlmt33NnGQm04IZjwoPU13HgrxRD4y8L6brcFtc2dvfwrcRw3kXlSqrDIDLng4Nehzxk7JnylTCV6MeapBpJ2179jajUbf/wBVNcDcfXFSUGqOVnzh+1p8Arj4l6PbeJPDtt5vifS0KNbBtpvbXJZox/00U/Onqdy9GNfCO8uzZVo2DENG67XRs/MrL2YHII9Qa/Xhl5J6nHAxXzv+0B+ybpvxIuLnX/DcsOheKWBaZmQm2vjjgTIOjHp5g5GBkHHHn4nCqr70dz864n4WjmyWIw2lVb+Z8IUEEda1vFnhXW/AesHSfEml3Gj35baiScxzEDrFIPkcfTn1x0rI55yQT7cCvCnBwdmfgGLwWIwU3TxEeVruFFFFSeeFFFFMApslvFcKBNDHMqnIEiB8H1wadS0ioylF3i7C5+XAxjpjC/y9KrR6XaW/mGO0t4/O+/tjUb/ZvX6VZ2mk5NPU0jVnDSMiJrO3aFInt7d4k+5H5SlU+i9qWS3huFCzQxzKvKh0UhT6he1SbTR0ouyvbT6SAfcA9vb+nSkooo1MW29WFFFFBIUuOM0lLUgGTR1+tKWVFJyBtGSS2OP5D8a7b4a/BvxR8WLiN9Ktls9G/j1u7VlgA7+UvWVvZcKfU4IOsKUqjtE9rL8rxWZVFTw8N+pzXhvw5qnjLXbXRNEtvtep3OQig4WNcjMsh/gRePm98dSK/Qb4P/DGy+HfhXT/AA5YsZhEd93dldrzTk5eQn3PQdgBVH4SfBnRPhnpcllosTXF7MF+2alckGe5btlugXjhVCgZ6A5r2PS9PjsYcL8zE8tx+Ne/h6CorzP6K4d4epZHRte9R7v/ACPmH9uX9l9fjB4RHibw9aBvGWiwMfLiGGv7YfM0XvIDlkP++v8AFXzt+xamp/Bv45+AoLpnXT/iBoE0rozYCOJ5hGMf3gIEz/11r9M24YHt/npXxx+1fZw6H+09+zXNZxxwGXVpYGjjGFC/aLXP/o1q7D7E+yY2DLnGPb0p1RQ52rk5OOfyqWgAooooAKKKKACiiigAooooAKKKKACiiigAooooAKKKKACmPjoeOKfWX4k1iDw/ol/qdy22CytpLlyf7qLuJ/T9aAPj+9X/AIXl/wAFBYIOZtE+HNiHcY4F02D/AOhOP++a+0IeIwDyR39fevkT/gnfo02s+FfGnxHvwzah4r1uWXMnURo2QB7Auw/Cvr1fu8dOlADqKKKACiiigAooooAKKKKACiiigAooooAKKKKACiiigAooooAKKKKACiiigAooooAKKKKACuF+KHiS/wBNj0zQtDbZ4h16U21tMFyLSFRunuiOh8tCCq/xOyL0Y127nGfYZ56V5zD/AMTL44a28gUrpOhWcFvuPzqbie4afA9GFvb/APfs0AavhPwrYeDdBtdJ02MrbQ7mMkhLyTSMxZ5Xc/fd2ZmZvVj6Vr7am24478DOMZ4o20AQ7aNtTbaNtAEO2jbU22jbTQEO2jbU23jn16jqBgk/yr42/bO/a21fwB8SPCvwj8E+I9B8HeJdeQXOpeLPEUkS2ei2pDYP707C5CufmyPlCgEvkQyoq59h7aNtfnv8A/j58RtN/a+0v4a2/wAXbD4/+Dr7S5LvUtZ07ToUj0x1SU5EkRfIDIin5yCJgAFIBOT8K/jd8W/2vPiR40ttE+O2l/B/UdJ1F7TSvBZ0aC5uZ44yQXdpXVn54fHmYI4AGK15dUkR0cj9CPFXirRfA2gXmt+IdUtdF0e0UNPf3sqxRRAnAJZuPwqxoetaf4m0e01bSbyHUdMvIxNb3Vu++OVD0ZT3Ffn5/wAFVn+Iem/CfwJox8WWs+j63Lb6Tqelw2SrJqN8u2T7QG2hlQFPuqf4+RXoo8XePP2Bf2YdY1f4i+LLHx9eWqW2neF9LtLFLKOAiMqsLsiguM7WJJJwhAwSTUKzUpD7I+zNtG2vzk+I15+1r4D+A7/G/Vfi5pdpLHDFqEvgyLQ4RbxW0jKFjDlTuba4BQj+985OSZ/il+2z8VPEni79nmw+G9rbnVvGWijVb7QyIzBcSSF0Xe7BmjjQxmTgggAjJp2urdwSuz9FNtG2vz/034rfHr4H/tnfD3wJ8Q/H2n+NtF8bQmWSztNPW0gssmQYjOwPhGjODu+YEGv0G29RnJ78Yp205vkK+tiHbRtqbbRtqRkO2jbU22jbQBDtqK5tI7u3lhnhSeCVDG8TpuV1PDKw9COMd8mre2jbQB5z4HvJvhv4yPgm5mkn0O9iku/D0jnc0aIR51nu/iMeQ6eiEj+GvUri5jtY3meRUhRSzyM2FUDqT7cEk9sGvDP2qPGtp8M/Auj+LruC7uf7I1q1lWO0i3FlYOjozcbEZW5JOMqvFfMWsftFeL/21PEtv8MfCk1n4G8O3Yze3WoXi/bLyEYLIFUjecbj5SHLY+ZlXmgDsRO/7bX7TsE0Cmb4V+AZd4lYZjv7ndkcfxBigz/0zRf+elfc8ShVwAFAOAB0rivg/wDCfQPgt4HsfC/h+Ax2trlpJpDmW5lblpXP95uOOAAAAAABXbigBaKKKACiiigAooooAKKKKACiiigAooooAKKKKACiiigAoopjckD8x7UAeGftrfEj/hW37PPiaeKbytR1aL+xrP8AveZOCrFfdY/Mb/gNbn7Kvw9Pwx+AvhDRpYTBevaC9u1b7wmmJkYN7ruC/wDAa8E+P7H9oT9rnwN8LLf9/oPhf/ib64MblLkByjD02CNP+3ivtKMAKcDA7UAPooooAKKKKAExWdr2i2PiLSbzS9TtYr3T7yFoLi3nUNHIjDBVh3Bz0rSpMUAfBkMuu/sAfE3yn+16v8EPEN18snzOdJmOePXeAB0/1qKO6V9yaDrFj4g0i01PTbuK+0+7jWa3uoGDRyowBVlI7EVneOvBmifEDwzfeHvENhHqOkX8flTW8wBDc8EHqrA4II6HGOcV8Y+DfE3iT9hH4iQ+DfF91cav8HdYuX/srWWVnbT2YkkHbz1xvX33r/ECAfd9FVdNvrfUrG3u7SaO5tbiNZYZoXDo6MAVZWHBBHcVZoAWiiigAooooAKKKKACiiigApKWigBrLmoZFXcMjP8AnrVimN15oA8z+IXwpPiPwBd+FfC+oDwXBeSfvrjTbZN/lM2Zgo7MwJ+Yc818u6j4W8J/B/40zW/jjQb1fAnhrS4h4ahhsJbizmmIJnlcqpVps5GX9T9a+7tua5n4h6THq3hDVbdtCtvErtbvt0m8ZViu2wcRsWVgA3TJBAzXFiMP7Rc0dGj6TK83q4RujUu4y0dnZ69U+9tD5W+EPwotf2iPifc/FXVNBGh+DS8T6VpLL5R1OSLPl3U6gYIGW2j0xyep+x4Y0jjIVdqDoBjpjpx+X4V5L8Mfj14c8Q3kPha9sZ/Bfia2jCt4d1SIQyBRlR5X8MifKQCnYZ4rvtc8ZaXouq6fo1zqEFrquqRzNY28jfNP5YBk2eu0Mp/GlQjClFyi9Xv6hnFfF4zEqNSDhFJKC3XL69e7fU3UmDOVzlsfl7VJu2qc+tfGnwVXxt4m1bXtZvPiDqdt4u8O620eu6JfSiXSmtS27EUZHyKyBijA5GDnHWuo+DP7Vl/8Vvi+mhS6Za6JocttOtq0zPM9/cRuQzW8wAjZVT5mxkjd1prFQ0U92VX4fxNNVXSfMqavJ9vv7+R9TKwo/lUSyDAxzxxUkff612+aPlzA8YeCdF8caPLpuuadb6nZS8NDdRLIn1w3GffqO1fLnxC/YZtmaW68HatNpi5z/Z+o7rm3x22yZWRD26sAAPl7n7C78HFG09eprKdGM9zz8Xl+Gx8eXE01L1Py68W/Bnx54JaQ6r4auprcHAutKzewnHUjYN4GO7KBXEQ3UNw0gilR2Q4aMEEqe4bHQ+3FfrnPpsFxnenPsa4Pxn8D/CfjZlbV9A0zVJV/1ct1bqZI/wDdfG5T7qa4J4GMvhep+e47gHCVm5YWfJ+R+Zn3sHP5Uu09uRX2n4i/Yh8I3W59Nl1jRiTkLZ3ZuAPbEyuce3Feda1+xLrVo7vp/iu2kUfchv8ATWjb8XST+SVxywFVbO58XiOAsxpNulJSR839OtHHpXsF9+yZ8R7JWZYdFvk7C11Bwx/CSFcH8fxrnrj9n/4l2zYbwbeSJ/fhvLRx+Xnbv0rneGqrRxPn6nCub03Z0G/Q4Cj8K6u6+EvjmzZhL4N1rC8fu7RpP/QAa57xdpOs+BdFbVde8PaxpenLIsZuLzT5YI9xPALOoA4BxzzU+xqbcpxvIMzTs6Eirx6UceldDD8O/GM0cbx+ENekjdQyt/ZcwBBHXO3H860bf4MfEC+I8rwZq3PTzEWP9XKij2NT+Ua4fzNuyoM43j0pwUt06V6LY/s4/Ey9fEnhVrNem651C02/+OSs36V0mnfsh+PbqQfarvQbCE9W+0zzOP8AgIhAP/fVaLC1eisd1LhPN6j0otep4ocrR/EOpJ7dq+mtH/YpG7/ic+MZ5FJ4TS7BYSPxleQfjgH2r0Xw9+yL4D0tlefR73Xpl4Emp3MkqH/ehGIj+K1vHA1Zbs+jw3AOPqWdWcYnxBa7r69+xWcct/eHpa2cbTTEevlqpJH0r1Hwf+zT4/8AFpV59Ni8Nae3JutYfEgHqLeMlj9HaM9etfdfh34c2fh+0S10nS7HRrRPuwWsCwqv0VQAPwrpLXwzDFzKfNJHINdtPAwjrJ3PtsDwJgMPaWIbm/wPm74f/sl+EvDcsVxqyy+L9VjIcNfJttkb1W3AC/TeWPueK+gdP8MOyoHAt4VACxjsB29Py4rpIbOG2UKiYAqYN8vpXfGMYq0VY/QsPhaGEgqdCNkR2tpHaxhUHAqakU5FOqzqGs2Aa+PP2if+Kq/bg+Bnh9fnfTIpNVKdcDzC+cf9uv8A47X2FIQOuMe/+fpXxv8ACgj4rft9/EPxQgEmm+ELH+yIJQ2dsxxGy/8AfX2n86APsiEbYwMYA7U+mr065FOoAKKKKACiiigAooooAKKKKACiiigAooooAKKKKACiiigArwP9uXxgfBv7M/jCdGKTXsKafER1BmcIce+Ca98r48/4KJXUusaX8MvB1vh5dc8RxCSM9404P6sKAPcP2XvBo8A/APwRo2B5semRTSt3Z5B5hJ9/mr1Oq+n2sVjZQ20K7IYUWNF9FUAAfpVigAooooAKKKKACiiigAooooAKKKKACiiigAooooAKKKKACiiigAooooAKKKKACiiigAooooAK838REeF/i7pOrSqFsPENkuizTn/lncwvJNar9HWa7X67B/FXpFYPjTwrY+NNButG1FHa2uVA3RPskicEFJI2/hdHCsrDkMoIoAv7fXH4fp+lG2uE8JeNr/TdXj8I+MGSLxD832DUFCpDrUS/8tYscJKBnfF2PI+VhXoCrx/hQBFto21Nto20AQ7aNtTbaNtIZAwwDjggE7h1wB0/lX5s/tNfCjW/A37b118UPEXwb1D4zfDnWNKjtPsWm6aNQNpMsUcfzRYIBVozgvgESkA5Br9LdtI0YbrRrzcyBP3eU+Vvg38SL+x+G/jXWPBX7Nuo/D+x0q1FxpmjXFnDpd3rdwd26NYI0yqj5cMSSxIAHFfK3xb+Hmq/tefF7wVqfgL4CeKvhP4ntdTS/wBf8Xa7YnT4wikEnKMBLKG+YNgSHbx0Nfqj5YHSgrtB4zVc1pxkTb3XDufBH/BSPwh48vvHHwY8S6D4K1Xxz4Z8Oam17qOm6PbtNI0gkiZQyqGKgoHG4jq2O9W/24/hx8Q/2nP2YfBfiPQ/B2o6b4j0zUl1q48IXRP2wRYddhXg+YAVYoBuGcAV92baNtRa0OXs7lReqfbQ/N34s+NfjN+234H0j4VaB8H/ABF8N9JupIH8Ra94oha1ghSPHyRhwNwLfNwNxIXjqa8xj1zXvhj+3XrGp/D/AMA6h8Q9B+Fuh2vh2XTtPcfaYYVhWNpo48EswfcThccnoMGv1vMeWGOvGD04yMjPvgflXhH7PH7K1p8B/HHxG8VS+IpvEWq+MtQN9NNNaLCIIwzMsYwzbsbj83H04qo2vzPqS78tl3Pn34D/AA3+If7Sn7WC/Hr4i+DrvwD4f8P2v2Pw1oGrowutwyBIysqkAbnO4qOXAHAyfvRF+Udfx6/j7+vvmp1THbHt+FLtp30QWV2Q7aNtTbaNtIZDto21Nto20AQ7aNtTba5D4gfECz8Ew21ukT6nr18THp+j2+PNuW9TnhI1/ikPCgnvigDm/ileDWvFnhbwzbyN5kdyut3wUjC28O4IrZ6CSQ4yOf3deU/tLfszWfxG8FXXi7wzbLpnxA0dWvrPULKLy5LwodxRz1ZgFypPO4KO9eo+CPC99ZtcXeqXK6l4i1OUT6hdwqRHuH3IoweRFGAFGeTgsfvV6rbWwtbVY1wSvzHb3Oc0AeTfsofGpvjl8HdL1u7IGt2rNYamo73EWAz47BwVfHbfivZFr41/ZJgb4Z/tOfGr4dBfI05p11ext/7kbMfm/FJIvyr7JXpQA6iiigAooooAKKKKACiiigAooooAKKKKACiiigAooooAK434u/EbTvhL8Pdb8V6o4Ftp1u0ixF9vnS9I4gfV2IX8c9q66QfUcEcf5618QfHPVLn9rb9ofSfhBoszt4N8Ny/bPEt5CfleReHQH1UExqf7zuf4aAOx/YL+HupL4a134qeJlZvE3ji8a6DyLtcWu4sCF/hDuS2P7ix19Xx/dzUGm2Ntpen29nZwpb2lvGsMUMYwqIoAVQPQAAVaoAKKKKACiiigAooooATFcr8SvhzoXxV8I3/hrxHafbdMvEwyZ2vGw5WSNhyrg9D/AEyD1dFAHwd4F8eeJv2FvHkHgPx7PNrXwq1KZv7G8QeXk2W45IwM8DPzxDJH+sXIYg/c+m31vqdjBeWk8d1a3CCWKeGQSJIhGQysOCCO4rD+Ifw/0H4neGbzw74k06PUtKu0KvHIvKN/C6H+FwejDkfnXxn4d8UeMf2B/F0Xh3xU934m+DupzldM1VMySac3pjqOOWQ/Kcbk5yCAfeVFZXhvxBp3ifQ7PVdJvoNR027jEtvdWzh45EPRgR1z/n0rUU5oAWiiigAooooAKKKKACiiigAooooAKjfBbB9KkprUwOJ+Ivwl8MfFLTVsvEOlw3qKd0U2Nk0Df3o5B8yn3FUPF3wX8MeOvDunaLrNrNexaeENndNcyLdwSKABIs4IcNx1zz3r0T9KY8Yb696zdOEtzohiq9PlUZ25T5O+NHwJvvA/w+tdG8BaZqt7pmsasknimSxn87VLy2I+cBnPzA8AjOMHp8zV3Xji+t/C/wAF/EOgfDV7Ox8T+HdJUQ6cioZ7UNGWUEEYDlQxy2QT1r3ZlA4PTGcda8v+JP7OfhP4mau2rXq32mavJB9mm1DSL2S0mmh/55SFCNy8ng+tcsqHLFqB9Bh839tKlDGv3Yvmbte7/vLrpp5I4r9mex1/UtL0XxTZ+Ob/AMU+DtW0wyS22u/PdQ3eQDsfapVRh1KkcYyDgivoaDO3kY5rD8G+D9K8B+GtO0HRLNbLS7CIQQwRnIQDn8SSSefWt+PgYropQ9nBJ7njY/ELFYmVWKtG7tolp0vbrYdS0UVqcAUlLRQAmPypjQo33lDfUVJRQBVk0+3k6wr+WKrSaDZt/wAsefUEj+VadFAGM3hq2boNv4k/zrwn9tj4af8ACSfs1+L47WNrm5so49QjjVckmJuefZWY/hX0diqeqWMGqWNzZXUKz2txC0csUnSRWGCp9iCQfrQI8l/Z01W0+J3wU8IeIIbnc01hHFOijOyWMeW6n3BWvSv+EWg/v5+or5D/AGYtcl/Zr+OHiX4GeIJWi0fULr7f4XupvuSh8nyx7kDj/aR6+1Y124oAy18O2q4yu/8AEj+VTx6JZJyIQD7k/wBa0aKBleOygT7sSj9alVFXhVAHsKfUcjiPLMwVR1JoDccaY3X2ppkG3epDAjIweteGfEr9q/QfAOuanp8Gja14jTRwP7YvNHtRLBpuRn965YAED5iBk4xxzWVSpGnHmk7I6sNhK+Ln7OjG7Parq6htSDNMkSHtIQMmvCPjN8ZfEUHxK0v4W+E4hpOu6xCtymvXarLDDB8/mMiZ+ZwVUAHj5u3UeaeGfC+h/tgeKPiRqXiDUbq8tNNu1stBtYp5Io7KPygyXIQNguWYnJGcKBjiuLute8Rx/BH4cfFQTpqGv+EdYuNHuLm8Zgs9v5rWwllYE/L8qt9WFebVxUpx91e6/wAup91gMhpYfEqlXd6qsnFqyUpRvDXqr6O59Hfs7/EXxRq2seLfAnji4h1DxL4ZmjDajDEIheW0qkxTFBwpbDZA9Pwr3WL7v414h8C/ht4h03xR4o+IHi24sP7e8TJbL9j00MYLe3hUiJctyWwxyele2fKFGeMDHpx/kV34fm9mub+kfJZt7L62/ZWWivy/De2tvn8jjvjV8Rrb4S/C7xH4ruQrjTrRpIo2/wCWsxwsUf1Z2UfjXiv/AAT8+H9z4V+CjeJdVzJrXi69fVJp5PvvGTtiJ/3vnk/7aVxf7WWsz/tBfGzwf8B9EmcWNvcpqfiK6tznyVCEhCeg2xsWw3DPLEByDX2VpOm2ujabbafY262tnaxrBBBGMLHGoAVR6AAAY9q6DyCyn3c5znnNOoooAKKKKACiiigAooooAKKKKACiiigAooooAKKKKACiikzQA1mC5+hP5V8dftEqfFX7cPwO0NeU0uOXUpF/4GGH/oqvsVmHXHvXx1Ira5/wUwjkXc0Wj+GAhGMgMyPz7f60c0AfY0f3c9KdTEYbfX/9X606gBaKKKACiiigAooooAKKKKACiiigAooooAKKKKACiiigAooooAKKKKACiiigAooooAKKKKACkxS0UAYPi/wfpXjbSZNM1izW8tWxIoLbHikU5V0cYZGBPDA5HauCXUvGPwwZoNRiuvG/hxMmK+tYwdUtl+XAljXAuAOfnUBj3BI3N63UU0SSDDgMvcN0oA57wn440HxzZtc6HqdvqEak7ljJEkbZ5DxnDKc9iAa6AL/ntXDeLvhDofii+XUTBJZ6wnKapYzvbXgP/XRMEj2fcv8As9c4Jh+JHg35LXUbPxZYp/yx1eP7NdhfRZ4wY3Pu6oKAPWNtG2vMY/jpaaWpPijQNX8MYjMkl1Lbm5s1x2+0Q7lP5d66/wAP+O/DvilYv7J1ywvzIokWOC4VnKnvtJ3fyoA39tG2lHeloAbto207buo2UAN20badso2UAN20badsoxtoAbto206igBu2jbWdrXiLStAQPqmpWunIw+VrqdIwfpuPP5VxVx8dfDk0rQaImo+KblWKPFo1m0ojIGfmchVUc9ScUAejbao6vrFhoFlLe6leQWNpGNzTXEgRB+JrzK88VeP/ABJxa2umeDrUp/rrhhqN4vPaNQI8Yxnc3HvVaw+F9nd38V/qrXninU0YtHd604m8ts9Y48CJPbam4Ajk8UAWL74rav4yzD4GsAtgxwfEeqROsHp+4i4e4Y9myIx3PFP8I+A4dJuLi4SS41bWbvi81a+dWuJ/9ktgBVXsqgAc4z1PcWPhl5GEly+T3GST+oFb9vaxWybY12igCppOlJp8YON0pGGbj9Kvn9fX0p1Bxn3oA+OZo/8AhFf+ClVtNjb/AG/4ZMWf721F/wDkevsZelfHfxbZrX/got8HDE2PtGjXCyj22XpH/oNfYcf3R9KAHUxmxn0p9ZniHXLHw3pVzqOp3MdlYWyGSa4mbaiKOpJ7UXS1Y1FyfLFasv7+voKcpzmud1HxxoWk+GV8QXWqWcGitGso1CSYCEqcbTu75zWzp99DqFlBdW0iywTIJI5FOQykZBH4UlJS2KcJxXM1pt8y3RSKc0tMgKKKKACiiigAooooAKKKKACmtnIwKWvLf2hvjzonwD8Cza3qhFxfS5j07TlfbJdzf3R6AZyT+XOKAOE/bC/aDm+Fvh208L+GFe++IPiJha6ba2/zSQq5Kebt7sT8qDu3P8Nb/wCyn8AYPgD8N47K5ZbvxTqTC71i+Bzvm5Cxhv7qDI923N/FXm37KHwR1zWPEFz8avierXXjTXP3mm2cyY/s63b7pKfwvtwAvVFzn5ia+tk6cdKACNQq4HSnUUUAFFFFABRRRQAUUUUAFFFFACYrD8ZeENI8c+H73RNc0+HU9Mu4zHNbzjKnPTnqD6MOQelbtFAHwXfaT44/YB8SS6hpSXXi74J3s6tcWbHdcaaScf8AAT0+b7rgAMQ2M/ZHw0+JHh74qeFLXX/DWpR6lp9wCd6DayMOqOvVHHGVPI4roNTsbbVLWa0vLeO6tpo2jkhmTekingqwPBHsa+MPiB+zz41/Zn8VXfxD+B5kudEY+Zq3g6RmkRoxy3lL1YegHzL2z2APtlW3LnGKdXjX7Pf7T3hP4/aIG02f+z/EFumb7RLxts8BHBIz95c5GeuQQcEEV7Gv3RzmgB1FFFABRRRQAUUUUAFFFFABRRRQAUUUUAFFFFACUtFFABRRRQAUUUUAFFFFABRRRQAUUUUAeDftYfs6xfHbwnBNpjrp/jPR2NxpGo58shgQTGzjopIBz2IB9a539lf9qOb4hPL4B8eRPoXxM0fNvc290BEb3Zw0ijs+BkqPUEcEV9LyKGPzdMYwTgc9a8C/aQ/ZR0j44CDXdMuj4a8eWID2WtwKVJ2/dSXHJGejDlc8ehAPflp9fGPw3/a88R/CTXrfwH8f9Nm0TU1/d23ieOMtb3ag4DOVGGyB95Qf9oKc19f6LrVj4g0+HUNNu4L+xnG+K4tpRIjqehDDg0AX65n4jeGU8Y+DNb0R5pYBqFnJa+bA5R13qRlWHQ101RSdcZ4xUyV4tGlOo6U41Func8Q/ZM8bXnir4PWVhqrK2teH5pNEvwAR+8gOzOD2IxXj/hr4l6J8Gbj4reCfG9pcHUbzVLrUbECEyNqkVyp8tYgPvNnKBfYmum1X4O/FHQfjF4wTwLf2eheFvE4hvbnVrgCWW2m27JBDF3fAU7m459q+gvCvg+PRtG0i1v5m1u/sYVj/ALVv1R7h27sWx1PtxXmqFSqkno0faVcThMHUqVYtThW5ZJJ2lFrXf1umux8wfB39juY+BNC1KbX9c8GateWHkavZaZIqefASWjiLNyjorY3rz1r6Kk+DPhaX4YyeAl0/Z4ba1Nq1uHILKSCWLddxIyT3JzXdLHwQBt55HWnqoHauqnhqdJWijwcdnWNzGq6labet15f8Nsrmfomlw6HpVrZWwb7PbxLDHubcdqgAc9+BXmP7TXx9079n34d3WsylJ9bvFa20mxY5M9xjhiv9xAdzeowOpFa/xu+Onhb4D+FZNb8R3yxuwK2mnx4M93IASERffux+Vep9/nf4FfCHxR+0N8RI/jR8WLRre1iKv4b8My5MUUYGY5SjdhuyN3LtliANorq6HjSk5Scm9zuv2MvgVqPw/wDDOo+NvGHmT+PfFzm91B7ofvIImYuIz/cZi3mSDpnav8Ar6Wj+6cevekgKtHlOVJPPrUlAgooooAKKKKACiiigAooooAKKKKACiiigAooooAKKKKACo5MtkA446/XvUlJigD4x/ay+PHxJ/Zh+I1lqekyWmt+DNfi3rZapE7LZXEa7XRJUIKqQUfbg5+evl7Qf20dU0L48+I/imfCVnd6jq9illHp0t8yx2u0KNwfZls7TxgY34r9Dv2rPg4PjZ8Gdb0OFFOqwJ9u02RhkrcRglR9GGV+jGvyN+Gvw51T4o/ELSPCGmxMl9qFwLd8jBgUHEjn2RQxPvigD9Qf2R/in8QfjtZar428UC00zw40hs9I0yxgKLJhv3kzyOxZiCNgxgdeOtfSEf3c+pzWH4D8H6b8P/B2k+HNHhEGm6bbrbwJ3wo5J9yck+5Nb9ABRRRQAUUUUAFFFFABRRRQAUUUUAFFFFABRRRQAUUUUAFFFFABRRRQAUUUUAFFFFABRRRQAUUUUAFFFFABTWAYYPIp1FAGdNo9tM5YKY5McPESD9M9K5DW/g/4f1yZ5bvSdPnnYYMzW+yQj0MiFW/8AHvwr0CigDyD/AIUv/ZccaaNq3iDQoY2GyHTtWk8pRk8bH35FL/Y/jyxmja18ZzTRR5H2e80iGQOM95FIb9K9epOtAHktxrXxMt/KEE/hW4jBw73NvdxOw9tpPNWIfG3jm3UCfQdHuGXkmDUWjB9vnB5+tenNbxScMisPcZqH+y7P/n3j/wC+aAPPP+Fi+Lzz/wAITaj/ALjsR/8AZaP+FieL8ceCbYn/ALDkWP8A0GvQG0e0Y5EKL9Fpv9i2v/PNf++aAPPZPHnjaWNmi8M6XbP0Czap5gX3OxaqDxJ8S5ron/ikre1IwqkXckmfXgBf/wBVenLo9ovWJD/wGpBpdp1FvH/3zQB5RLF4+1G6R38ZQWKqfmgsdGRw/sXlPH5VC3gG91SZ5NR8TeJ9R8xdrQi9MFufX92iAf8Aj1ewrZwx/diUfQVMqheAMUAeSaP8GNA09Ua38OWUu05Et6huXB/vDzWfB+gFdpD4VkaJEebbGvCrjAA9MdB9BiuoooAybbw9aW+CV8xunNacUaxrtQBQOwp9FABRRRQAUjUtFAHx3+0Aqp+3Z8C5QNsht5VLL94j9/x9K+w1r4+/aE/5Po+BX/XGb+U9fYNAC1zfj7w7B4u8Ha1ot0iyW9/aSW7xt3DKRiukqjqEbTQyojbGZCAxBIGQecZ5rKrHnpyibUZulVjUjummfB/wD8MeIPjpa+H/AANr4Y+DPANxJDqG44XUrqOQ+VER3RACSPYV962saxQrGgARRtAUYA/CvLP2efgzP8GPC1/YXupR6pf6hqNxqNxPDEY03ytkqFycAV6xGvBrmwlB0KUYvfr6n0HEGZU8wxb+rq1JbJbXesn82PpaSlruPmQooooAKKKKACiiigAooqOT0wpzx838qAOX+J/xG0T4U+DdS8TeILn7NptjH5j45aQ87Y1HdmPAHevkv4D/AA1139qr4jD4z/Eu2ZPDttJjw1oEpLQlFY7ZGXoyqf8AvtwT2qD4lLc/tiftOJ8P4JX/AOFb+C5Fn1eWPhbq4z8y59Sw8senzntX27pljbaZp9vZ2cMdva28axRQxLtRFUYCgdgAOlAE0PEYHPvnGf0qSiigAooooAKKKKACiiigAooooAKKKKACiiigApkihsg89O2afRQB8yfH79juy8ca0PGngDUG8E/ES2bzo760JSG6kGcCUL0J6bu4wCDiuZ+Ff7ZOpeFfEUfgH46ab/wifiiPEUWrsuLO85wGJHC7iMbh8vPODkV9gYrh/ix8HfCfxm8PPo3irSYtQhxuhnwFmt37NG45U/oaAOxsrmK6tY54ZEmhlG9JY23K6nkMD3BGORxU9fDEnhD4zfsWzPN4We4+JnwvjO5tJmXdd2Snk4CjK45+ZAwyRletfQfwS/aj8B/HeyX+w9VFtq+zdNo158lyhA+baP8AlooOeV545A6UAey0U2Nty5Bz7jpTqACiiigAooooAKKKKACiiigAooooAKKKKACiiigAooooAKKKKACiiigAooooAKTFLRQBy3xC+G/hv4naDJo/ifR7bWdPb5hHcJko3ZlI5U+4r5T1D9kf4mfAnUptV+BXjSX+zmbe/hfW5N8Jz/CrNwcZPJw3PXpX2rSYoA+NdJ/b11b4f3S6X8ZPhzq/hG8U7X1GyiMtq3oRuIHPXhiORXuHgr9qT4VePVU6V430ppSuTb3U/wBnce2JCB+WfrXpuqaTZavbNBf2cF9AwwYrmNZEP/AW4rxbxl+xP8G/G0kkt54LtLKd8l5tMZrVyfX5KAPZLHXNO1OMS2d7a3aEcNDMjj8wSKsS3kNrGXkljjRRyzsqgfqK+VLr/gm98PvO/wCJb4h8VaTB/wA8YdR3DpxywJqvD/wTd8IZAuvG3jC9X+JXvwN3twBQB714w+P3w68CWpn1vxlo9kv937Wkr8eiJub9K+efEn7dGp/ETUJfD3wQ8F6h4s1WQ+X/AGveReVZwer8nHAw3zFR9a73wj+wH8F/Cl0LhvDLa3cZyW1i6kuVJ9dpOP0r3nQ/Dml+GbFLPSNPttNtFGFhtIljQADHRQKAPl/4R/sdajq3ipPiB8bNXPjPxfuEkWmOd1nZN1UYGFYrk4AG0depJP1hCoRdoGAOMYx2p6nI46UtABRRRQAUUUUAFFFFABRRRQAUUU1mxQA6isXxJ4s0bwnZi61rVLPSrbtLeTrEGPoufvH2HNcW3xrtNSk8rw1oOt+JdxK/aILM29sjDj55ZtuB7hWHP5AHp1M3Yry5tX+JWtGMrb+HvC8LcSC5kk1CcehGwxpn2YYqu3gPWtUiC63491+6G7OzTDFpuP8AZzCuSPxPWgD1Wa4jt42kldY0UZLNwB+J4rmbz4q+ENPkeKbxPpHnx8tEl6juP+Ark/pXIx/Bnwf9qjurrRRql3GOLjUbiWeT8SzEH8RXQ2PhfR9LwbPSNNtnxgyRWkSk+2QuaAKC/H7wXNcPBa6jdX1wnWK00+4k/XywP1psnxrRpI1tPBvi7UFkOBJBpWF+pLOMCumDSKoUPIiAYCg4H8hTGUnrk/jmgDBk+JWtTHda+BNaYY+UXMkEPP8A30cD3qndfEbxuqr9l+HXmt/EsuvW0X6kHNdUq0u2gDlLb4gePLhn834fW1qAu4M/iG3dT7HC8dCc+1ePfDf4K6v8NfjJ4x+IFt4N02a51x1e2tzrUarYhwDcBSYznzH+bPoTX0Zto20Acc/xF+IULOF+G0MgB2hm8SWy5x3+517fhVyH4i+MAim4+H0yMfveRq9tLj8gM10u2jbQBzr/ABW1OzidrnwF4mdhyFs4YZwfoQ459qIPjZYLGsl/4e8TaSD1+2aQ+V+uwtXQstKpZPunb+ODQBg2fx+8C3lw8K68tvInDC7tZoMH6ugFdHpnj7w3rkxi07xBpd9LnGy1vI3b6YBPrUM4+1LtmxcJ/dmXeB+BBFYV94A8NapuFz4f0qdnzuP2RELZ68qAaAPQt1OU5rx+P4L+HLGFo9GOq+Gt38Wi6nPbH/0M5+mMVa/4RrxfpDB9J8eTzxRodtrrtjFcR+xeRdkjfg2eKAPV6K8qh8YfETQ9g1Pwvp3iGHrJcaDetFIOOi284JP/AH8HX87lj8dvDP2gWusyXnhW+2l2h1+2Nsq4/wCmuTFn235/MUAek0VVsr6C+tY7i2njubeQBkmiYMjg91IJBH0qypzQAtFFFABRRRQAUUUUAFFFFABRRRQAUUUUAFFFFABRRRQAUUUUAFFFFABRRRQAUUUUAFFFFABRRRQAUUUUAFFFFABRRRQAUUUUAFFFFABRRRQAUUUUAfHv7Qn/ACfR8Cv+uM38p6+wa+Pf2nsaf+2J8AtQVsSNNJAQ33cbiP8A2pX2CvSgB1NbrTqKAGjrTqKKACiiigAopm7Fc/4o8feHfBQRte12w0jzB+7S6uEjeXk8IpO5j7KCaAOjorzZvjZa33/IB8M+JPEWTjfb6cbSMH/eujDkdOQCOeM84i/4S74hajIVt/DOjaRC33ZtQ1VriYexhjiA/KQ/WgD06ms2K8tW1+Il4GF74s0ezyeF0rRirKPfzppQT15wB049WR+C/EMqn7b8RvEV2N2QEisrYD2HlxKT+eeaAPVN47kfjXN/EjxH/wAIn4C8Q6zG4WSxsJ50bPRljYr+oFcbL8M4LxStz4n8WShjyYvEFzb8/wDbNgR9BxWVrHwH8Pa/pN3p1/q/jC7sruJoZILnxZqEiOrDBBDTYb6EH6UAcD/wTp8LJpvwLPiadQdV8UajPqFzLn7wDFUH6GvqaNht4YY7e3avEfDn7PnhnwpoNjo+lar4vsdOs4xFBBb+KtQhjRQegRZFVec8AVtQ/C+3tlAt/EviyHnIMniK7uPm7f6x2/KgD1lTnvmlryibwXrqqVsPiJ4jsVB+8Y7O5J9c+dA3FPOn/EHT4v8AQvGWm3p4G7WNG3hvc+TJEAfoce1AHqlFeYf8JR8RdNdBceH9B1uEcSz2OpSWrj3WJ0dWz6GQY96kj+Ma6eD/AMJB4U8R6Ftbb5n2IX0Z9x9lMrY/3lX6dyAel0VzHhr4jeGfGEzQ6Lr+n6lcIPntYbhftEfs8R+ZT7MAfaulQ7hn+lADqKKKACiiigAooooAKKKKACiiigAooooAY/PBGRXzz8bf2LfBfxYvJNb0sSeC/GCnzI9Z0kbd0nJBljBAb6hlbp83Ar6JooA+H1+MXx0/ZYmjtPiVob/EHwbCQi+JNMJ85FHGZG7f9tR7BjX0X8JP2kPh/wDGmBG8M6/BPesuX0y6xDdrxyPLIG76rke9eoTRrIpV13KRg5xjHp9DXzv8WP2Gvhx8SriTUbC0l8HeIWbzF1LQf3K7+u5ovunn02t/tdKAPolX465+nSnqc18WLpf7UX7O3FlcWvxj8KxfKI5FJvo0HQ7ciTOOytKB/d611Xgb/goT4C1S8/srxnp+q/D/AFuM7Z7bVbeSSNG/u7lXf7kuiACgD6qorB8MeM9A8Z6eL7QNasNbszyZ9PulmTp6qTzW4vfuaAHUUUUAFFFFABRRRQAUUUUAFFFFABRRRQAUUUUAFFFFABRRRQAUUUUAFFFFABRRRQAmKKWigAooooAKKKKACiiigAooooAKKKKACopmCjJPbJz0x3qK+uorOGWad1ht44y8ssjBVVQMkkngdyT6CvKG1bxB8XGb+zLm68M+CiSE1G3Pl3+qjpugPDW8Po/LsM7dowSAdH4s+LWj+HNSbSLVbrxB4iAGNG0iMTTpnBBmIwkK+8jKCOmelYU1r8QfGWG1PVbfwVpjDJstFH2m8bPZ7pwFUf8AXNAQcjca6Xwx4T0nwXpaafomnw6darklY8kux6szHlmJ5LEknPJrV29OCB2BoA4/Q/hX4Y8P3TXaaet/qTACTUtUka8umHUZeUnvnvXWkFupz29Mfh2/Cn7aNtAEe2jbUm2jbQBHto21Jto20AR7aNtSbaNtAEe2jbUm2jbQBHto21Jto20AR7aNtSbaNtAEe2jbUm2jbQBHto21Jto20AR7aNtSbaNtAEe2o7i1iuoTDPFHcQt96KZFdD+DcVZWPcwAGT6VX1rVNM0F7aO8vI7ee4bEcbtlm+i/1oA4yb4P6JZ3D3nhua98Iag7b2n0SYxxO/YywZ8uT6MCKkTxP458GKf7X02Lxrpac/btFVYb8KO727EJIc5O6NlxjhSevbFOT1/Hr+NKqkYx17EdRQBX8HePND8c2Mlxo2oJd+SwSeF1aOaBz0WWF1VkJ64ZR1z0OT0yHK9MDOK858U/DvTPEl5Dqkby6P4gtlb7NremsEuY/UE4IdPWNgVbPSovDPj7VNH1mz8MeNIooNUuDssNYtQVs9TI52gZPlTY+bymPzAMUyAyqAem0VHD/qxk5PcmpKACims2KVTmgBaKp6pqtro1nJdXs6W1vGMtI/QVJp99BqdnFdWsomt5l3JIvQigCxRRRQAUU1jXI618UPDmgzGGa/8APuFODDbK0jA/hxQB2FFcXo/xW0DVrtbbzprKWQ4jW9j8oOfQH1rsA1AElFJuooAWiiigAooooAKKKKACiiigAooooAKKKKACiiigAooooAKKKKACiiigAooooAKKKKACkpaKAPjn9vBn0Px58CPE3Ag03xKomZumDLbn/wBBWSvsSMgrkcg8ivmn/goP4Jm8X/s46rdWwf7TolzDqSmEfPtG6NsfQSbv+A17B8E/HkPxO+E/hTxRE6udS0+KaXac4m24lX8HDD8KAO4ooooAKKax281xHjj4lReHdSg0PSbKTxB4puI/Mi0uBiqRR5I864kwRFFnPzEEsVIVWIOADrNS1K10eznvL66hsrSFd0lxcSBI4x3JY8D6mvOpvi9deJl2eBtAn19D93V793sNM4PVZChkmHvFGyHOC4wcVrX4aya5fw6r45vk8T6ih3xWTRldLsmHTyrckhiP+esm989PL6V3AXgDk44y2c0AcNJ4M8ReJsN4o8Y3phYfNpnh1W023+m9CbhvTiXaePlFa/hv4f8Ahvwmzto+hWNhNL/rLiOJPOkb1eUjczdOTk+9dFjbRt3UAMyTj+R7Uc0/ZRsoAZzRzT9lGygBnNJjNSbKNlAEfIoxmpNlGygCPbRyKk2UbKAI9oPWjaNuMnHp2qTZRsoAwfEngfw94vjjj1rRLHVRGcxtcwLI0bfwlCehznkEEdjWKvgXWfD7GTwp4u1CwUH5bHWWk1Sy+n71hMo/3JlA9DXcbKNlAHIQ/FTV/C2I/GfhySzth/zGtD3Xtl/vSRgedCP+AugGN0g5x6BoesWGu6ZDf6Ze2+oWM43xXNrMsscg6ZDAkH8zWdt2nOcevOCPpniuL1j4aiPUpta8KXz+FfEEjb5ZrZA1ren0urcnZJn++Ckg4w3ABAPVlOaWvPfCPxKl1DWF8O+JrFdA8T7C8cMcpktb9F+9JaykDeB/EjKrrxlcYJ7+L7vb8KAH0UUUAFFFFABRRRQAUUUUAFFFFABRRRQAlcv44+GPhT4j2QtPE/h7TddgUYT7bbLI8fujEblPupFdTRQB8k+KP+Cd/g9dQGqeA/E2v/D7VFOY2srhp4k6ngFlkH/fzHA4rJHg79rX4Tp/xJvE+jfE3TYj8ltqRUXDD1YyBG6f9Nmr7MooA+NR+3L408AER/E74L69osScSajpqs0JP+yJFCEfSQ13vhH9vr4M+Ktsc3iKbQrh+Vh1iykiH/fahk/8er6KcZ9fwrhPFXwJ+HfjhpZNc8FaJqE0n3rhrKNZj/20XDfrQBoeGfir4N8bLGdB8WaLrAkGVFlfxSsf+Ag5FdYvSvmTxN/wTt+DWvM72umaloLt/Fpt+559cS7wPw9K5g/sC6z4dYf8IZ8a/F3hyJRhYjI7j6Hy5Y/btQB9iUV8dt8Bv2oPDrBdC+NtjqMK/dGrQEkj33Qy/q1KYf2xtBOFufCPiLtuZI0zjv1j6/hQB9h0V8eR/E/9r3T1zefC/wALXfo1rcKMY9cXTdf8ilP7SH7Rdiwa7+A32mNuAttcS7gR3ON3FAH2FRXx9/w1R8etpJ/Z3vyO+25l5+n7rP6Go0/a6+N146x2/wCzhrdvKPvNcTXBQ/Qm3Uf+PUAfYtFfH3/DU3x9wMfs8X3PP/HzL/SOj/hqb4+f9G8X3/gRN/8AG6APsGivj7/hp39oS8by7b9n+eCU9GuLiXZ+qD+dO/4aC/aX/h+Btrjt/pTf/FUAfX9FfH//AA0F+0vzn4HWw9P9Jbn6fNSD4zftWXmZbb4P6JFC33UnujvH1zMv8qAPsGivj/8A4W5+1n/0SPw9/wCBX/3RQ3xX/a3m/dx/Cfw3FI33Xe6G0fXN0OKAPsCivjv/AIWF+2V/0TfwUT3IuEwfzv6P+Fhftlf9E48Fj/t4j/8Ak+gD7Eor48Xxl+2TqTeX/wAIV4M03HPmCaM59v8Aj7f+VO/tr9sjvofg0f8AAo//AI9QB9g0V8ff21+2R/0A/Bv/AH1H/wDHqPtX7Y1+3Nv4O03b6CNt/wD4+1AH2DRXyAbP9sUcf2j4Pb32R/4Ck+yfti/8/wD4P/74joA+wKK+P/7D/bF1JvLPiLwjpmOfMEUZz7fcf+VOPgz9sPt468I/+A0Y/wDbegD6+or5A/4Q39sT/oevCP8A4Dx//I9A8F/thudh8e+Eot3G/wCzR/L7/wDHsf5UAfX9FfHjfCv9sHPHxh8Lj/txj/8AkGlX4V/thf8ARYfC/wD4Ax//ACDQB9hUV8e/8Kr/AGw/+iw+F/8AwBj/APkGkb4V/th/9Fh8L57YsYxn6/6B0oA+w6YzbSM/h618fp8Dv2qLgGSb426YkrH5litRsB9BiAcfgKG+BP7Uf3T8cNPGemLXn/0T24oA9s8ZR/8ACx/HC+FWct4d0mKO81eJDxdTMd0Fq3ooC+Yw/iyg7V3ioOgAC/w7RgY7ADtgYH4V5B+zjovibwy3jLSPGusJr/iuPUori71SOPYl1G9upiKjavCr8nTqhr2ZVPfIPoe1AEGyjZVjZRsoAg2hccbj2rhfiJ8cPh78JZreDxj400Xw3c3AzDBqV4kUkgzgkISCV/2h75rste1JNB0W/wBRkUtFaW8lw4UZJVFLED3/APr1+d37AXwd8O/tVL4++NfxU0a08ZavrWtS2Vtb6xGLiGzgRUchUY7eBIqDgkbQRip96V30G1ZXPui7+L/gXT/COm+KJvGOix+HNTljgsdV+3Rtb3EjthFRw21iTkcc1TX48fDiTx0vgtPHGgP4rZti6OuoRNcb8Z27Q2dxHODzgivh39v74c6RpY+AHwD8A26+HbPUdbku7e3gmJEAMmN24kk/NIxG4nGFx0rjP2xP2ZfBnhH42fAT4bfDy0k8PeJdXuX+1+IIpH+2zBpAGnlk+8Zc72Dds+lWvefqwls/LU/RS3+PHw2uvHh8FReONAk8V7zCdGXUIzcBxyUKgk7u+33qf4ifGjwB8JWtB408Y6N4ZlusiFNSvFheQA8lVJHpjPtX5+/tAfs/+Bvh3+19+zh4G8B6Muj3xnF7qOowuzT3UaTbvMmf+Nj5chLH1x2rS/ZD+HPhj9sb4t/GT4w/FDTbXxJBaam2m6bp+rEyWtnCoLAlScELHtAz0+Yjmlfmhzev4E9ben4non/C2tV+LX/BSbw34d8L+Mr6bwNoPhz+0bqz0rUnaw1AyR7gzhH2y/6+Llh/APSvuFUG3Od3+12PuP8A61fnL/wS68B+G5Pjr8dfF/hW1Fv4Rt73+ytFGSdtu0ryEAkk/cER59a/SPYf4s7u+aq3LGKE/eqSfyKV3cQafaT3NzNHbW0KGSWaaTZGijklieAB61554P8A2kvhX8QvEg8P+GviF4d1zXW3CPT7PUI5ZZdoJbaoIL7QCTjoAa5X9uL4ReLvjd+zf4m8JeCZlTXLowyLbvOIBdxpKrNAZDwu7A+8QpxgkDNfPv7CHjDwDrXjiL4eeIPgnpXw6+MfgjTwZL6DTYkluEVFieYybRJvdZASH3Aq+QxzWcNUzSWlj0P4s/t9eE/h7+0R4T+HFrf+Hb3Srx5E17XrnWUjh0gqxUo/Vd4Ct8shzkivZPE37S3wn8Fx6bJr3xG8N6aNTt1urTzdSQGeIjKSKN3KHsx4OMdq+H/hl8B/h98aP+CkHxas7zwdpt34P8PWmZLF4swT3jlN8j56uzySn3xXJ+NPBf8AwxX8ePF/iX4rfB7SfiT8KfEd3HbWGuy2cNz/AGVCM+XCkcgYIQgCbTtJEY2tnIqo6qN+pMt35H6laDremeKNHs9W0a/tdU0u8jE1veWUqyQzKf4kZSQR9Pen6xq2neHdLudS1W9t9O0+1XzJ7q6lWOOJfVmbgCs/wBY+HdJ8E6Fa+G7a307w+1pGdPto18pEhZdyAJgY4bpgY6dq+Iv22Zp/jr+1v8I/gNe3c8Hg66xq+tW0EhjN0f3jBSR1G1CB6FjTlbnVNdSU/dc30PrDwT+0j8KviN4gGieF/iF4d17VnBKWVlqEck0gHUoo+/8Ah0rqNa8f+GPC+vaToer+INN0vWtVD/2fY3d4sc1ztyX8tSQTgDnHTHNfnj+3N8IvBHwz+Nf7O+m/DXwvpvhrxXc60jPDolusDyW6ywiMyBfvHPmAseSA+a0/2jPAy/tQf8FJvDXw8ur66t9E8OeHlk1Y2kpR3ibLyxgjoJBPHG3+yxoh7zj6v8CpWjdva1/vPuDwf8d/hz8QvEN3oPhfxxoOv6zao7SWWnX8csqhThmwCchT3HvXzL+1h+0J8WbH9qHwN8F/g/qej6VrGr6c93c3GsWwkiVj5rLvfY5QBbdm+Vf4q808H/C3wp4b/wCCrel6J8P9FtvDek+F/DzXF/aaeCsbSNAV5HqRcRZ9xXNyfD7xb+1J/wAFFPitf+DvHtx4Bl8IwJaQ61Z2X2t49qrA8KrvQDL+cc5/hqI2lyNbO7E24Kal0S/E+pPhfb/tF/DzxBdeIvjr8Q/h9/wrzT7OWW7GkxtAyvtwjM8lvGFUElid3UCvdpfit4Mg8BjxvJ4p0ceD2Tzl1xr1BZsu/YD52Sp+b5evJzXl+i/Ce7+GP7P/AI90j4x/Ey5+IGl3ttcvf6zq9slsltZmDaYwgd8jOWznqQO1fmb+yHHf/tBeNvAHwI8Y61ND8M9KurvX9PsfJaFtZCtuWMn+KMmORvqZO+Kp2k3TQ7ciU+h+pM1xrHxH+NXgvWfCXxH08+ANN0uTUNT0WwlzNqBlBFtMx2keSdr9wMqevbI+FP7Y2kfF79pbxP8AC7w/Z2N/pWiaf9sXxFZ6isqTuHCNGsaqRhScZ3+vArwz4R6bqfxU/wCCg3xemsHuLPwZ4W0iPQI47Yn7GJTB5MY8tSEZlRptvcAHtiu4/Y7/AGKdS/Z0+OPxJ8Y3kGk2uj6sFtNDs9PlZ2t7YSbiSCo2kgLwM49amN9G/Up2S09D3GT4va3qF9qNrpnhZtQW1kaEyRyMQCc43ALxn69q6CHxpqulfDe517VNNW21CBm32pDIOZdoIznrnP40eAvBN/4bvtemu2hYX1z5sRUknHvkDHSp/iuo/wCFZa0B02r/AOjVpi6XMPRfiZ4l1m4sC/g+aGyunjVrrzXKqjsAW+7jgEn8KT4iTReJvGFr4K1C1im0nULXzpJVJW4ikUsyPG4YbWVkQq2MhgDnIFdT4Ej/AOKP0A/9OcX8q5TxEm/48aHx/wAuDj65EtMRb8C61rHiLQdR8PX+qNZ+KNEufsFxexQhvtG1VdJwrDHzxvGzAYw5dQflqO68IeOJrpok8YRbedjGIxuVyMkgf4mrln4c1W3+JmvaxHDssbu2sljl8wfvJI/O3/Kf9lk59vatfxvJrqWtk+h6bHeXUcu9mklVPLC9sd9wyvtmgChcWGseGvh3rn9oavJfagkM0qXe4qYxtGAD1HTPXvXKeFfAet+LfD9lqc/jHUYVuU3+TukbHJGCxkIPT0r0XxNb3WteDtSto7fbd3Vo6CHepAYrjG7v1rM8L2er+G/h7Z2osvO1iCFlW3aRdpcsTycjjkZoA47UvhloY1CPTb/xhcNdyY2288ili2eOPQ8163pOmw6RpsFnbjbDCoRRx2rzj4c/D6/t9YuvEHiJA2qSOTFEzhmU8ZYkE/QewFeor+Y7UAOprHnpz/OnVneIL9tL0W/vEXc1vbySgZxkqpI/UAfjQBwPifWNQ8ceJZfDOjzG1sbb/kJXi/eAP8I/w7/hXU6D4U0PwTZr5EMNqV4a6mI8xiT3Y+vpWJ8G9NFp4RW9Zg1xqUr3EjjknJwo/IE/8CrD0uxX4teKNRvNRZpfD2ny+TbWuSEkYZ+c47nhvxFAHpt89j5AW9MCwSnaVmK7WPYVg+NL5vCul2mqWyny7OZBJAoGHhY4ZR9B831UVy/jy0F54/8ABukROwt4SJngLHZtVlA698A/lXVfE7b/AMK/1wN/z6vjjHPGP1xQB0cMlvNCkitG6OA6txyp5H6UVmeDX3+E9HMn3vssf5bRj9KKANyiiigAooooAKKKKACiiigAooooAKKKKACiiigAooooAKKKKACiiigAooooAKKKKACiiigDM8SaHa+JtDv9Jv4ftFjf28lrcR5xujdSrD8QSPxB7V8c/speLbv9nj4oa98BvF8/kQtdyXvhu+m+WOdJDuMYJ4G8AMB13+YvUjP2w1eN/tHfs5aD+0J4dhtbx5NL8QWGZdN1q3H723bOdpxyyk4OByCAQQaAMKb9rbQfCfx11n4ZeMDFoc8TQtpuryN/o1wssKSBJT/yycMzLk/KcA8dK98hkEkYcHKtyDnPH1r8Rvjwviiz+KOt6Z4x1aLXvEOlsunXGoRuHSZY1CpuY/fYLtBD85BDZIyfav2X/wBuTXPg49p4e8WNc+IPBa4RGZvMu9PXH8BPMiZ/gbnqE6YIB+kPxK8X3fhnT7Oz0eGO68SavN9j0yCbJTzMFnkfH8EaBnb1C4HJFU/Bfgu28I6XJEJpdT1G6bzdQ1Sf5pr6YgZdj2XgAL/CAB2rmPh94s0j4t+OtS8X6LqUGraBaadb2GnXcMmVZpWeW5OCMg5jgUg8gK446V6ey/McjB7igCEqR1IJ7kdKTbU6rRsDZDYx057jBBpre/YDmvFnjzwz4BtYLjxN4g0vQLe4fZFJqV0kCyMOSASRk+1Q+F/iZ4O8eSvF4c8V6Pr0q8ldPvo5nH/AQSRXwh+3XDpXxe/be+B/w01wQTeHbeBr7U4p5fKQrIzO6s2RgFIlHbr1rz/4k/DTwB4O/b4+Dugfs/Qw2OqQTR3GuJot7LNBFGJCz7nLuMmHfuAPRk9aiD5oKT63HN22P1T2+2Px5o218fePv22fG3iT41a/8PfgZ8OIviBceG9w1nVLq68i3hkUkeWh6ZB3Lk8lgwAIzWj+zH+25rH7QPxE8caHqfghPBuleENMEmptdXBkuYrwMVkhKY27AUm6/N8i5weKvukLVas+sNtG2vi/wB+2J8bfj1ZX3ir4WfB/SNX8BW981lFJqWvCC9uNu0lghxtzuU4963fGX7XvxA8TfG3xJ8MPg38PdM8U6p4XgWXWbzW9UW0hVjt3JEMjfguOc9jxS3t3Y+7Z9PeKvFGkeB/Deoa9r2ow6To+nxNcXV7cHCRRjGWP4kD8ap/D74heHfip4WtfEfhXVIdZ0S6LCG7g+4xU4YD6HIr52/af+OWqeAf2O5fEHxJ+Helz67q80emXvg+e+Mls7PMwx5qcsNi+ZgevWqWg/tFP8Hvi58EvgzZ+BdH8PeHvFOiQXMZtZ5ALKZ0Z3hjBU7gGAGSc0RinePcUpPQ+uGWk2187eMv2p9Tsf2uvCvwT8O6BaaqbyyF9rWoTzsr6fGyswAUKQeAh5IyXAxXK6x+1/wDEH4lePfEvh74CfDmy8baf4am+zap4i1jUFtLMz5AMUJYhWKkeucDOKL6+un3D6XPrPbRtrwn9jX9qA/tS+AdU1O90JfD2s6LqLabf2kcpmgLgBt6MRnBDDg56HnmvfdpAGME8Yz78/wBaqUbEkG2jbXzf+0d+1hrPw1+K3hX4T/D/AMLW/i74ieIIWuoodQvRaWsEIEmMuerN5UuB/s1r2HxT+Nml/Bvxdr/if4V6Vb+M9Icf2fpFhrAktr6LALyNJ0VU5yOuU96jm925TWtj3pVoZa/KT9jP9o/4meCtH+Ivxb1nwhceIfh7qeqSXmr65c6o5OniMO5gt4W4Y5mRRjj7tfVnwT/aK+Pfxel8KeJ1+Eeg2vw3165XbfJrqm7gtt5XzWjHOQFJ2+1acvMTfWx9XbaNtThT3PYY4I6DHel21LGc54x8G6d440V9P1JHCqwmt7qBvLuLSdfuTwv/AAyJyQw6ZIIYMQYfhj4wv9Qk1Dw14hZT4n0cqs8yx+Wl9A3+rukXsGwQVz8rq69q6hlrzj4jL/YHjrwP4ht0cXE13JolwydPJmheVWb/AHXtwF95TSA9eWlqtYXAurVZBjkkcexxj6jGPwqzQAUUUUAFFFFABRRRQAUUUUAFFFFABRRRQAUUUUAFFFFABTSBnNOprUAN+gpGzxxUUzeWMk7VA5/z614zqX7RF1ca5qNv4a8Faz4t0fS7lrXUNU08xqiSLncsSswMhQ8Hb0NZTqxg7Nm9HD1MRzezWi67HtTLvODwP0pUXHB5/DFcKvxOt3+KS+CRZzNef2YdUe5yuyJd4QKRndkkn8q8/wBe/aw0fQbm4hbRdQuiviB/D1utsEd7mVE3s6AN93t6jBzWbxNOPu3OulleLrS5YQvon02ex73tHoKZLtXjC5rnPh74o1LxZ4cj1DVdBuvDd40jqbC8kR5AoOFYlCRyOa0PEuvWnhnRr3Vb+XyrGyge5nfbnbGoLMcewFdDkormZwypzjU9k1722hq/KoGRijauemTXjPhX44654utptRh8AatDpEljJfadem5hYXYAVkQqGzEzg8buDznpXNfs6/G7xb8QbfWdR8RaFeWmhtc3VzaarI0XkQwpJsFvhG3MyhW+bocZFc/1iHMl3Tf3Hqf2TilSnVaS5LJ6q+vbzPoxtgAzRwM1434D+Ot348vkuofB2qW3hG5jkntddkkiZGRATuaNWLqGA4yOc1lW/wC2R4DmlSNbHxVukYIFHhq8xycZJ8vAHOc571Sr02l725j/AGZjJSlGNNvl7a29bbHvQAI9aaV564P0ryXxl8dJNJ8QL4f8MeG77xfrq2y3dxa2rpAltGc7fNeQgKzYIC9eKg8WftD2vgnwp4W1fVvD+r2tx4gu1tIdJMS/bIpCG3Bk3fNgjovUEUvb01zXewo5dipOKULuWy0v9x7Dj5sdsUvIJAP6V89WP7Utzda5rHhpvA2sw+MLNY5rfRfMiZpYX6StICUjA7hj3A61raf+0/ouo/DGx8VjTb4aheXr6VBoQANzJeq5RoVyQDgqTu6YpRxNKS5kzaeT46nbmp72tt1V0/TzPa3kWPaHdV3cDnnNOXO4+tfLtj481f4pftEeBtK1Xw/qXhi48PWt3qt3ZXMiMjswWOFg6EhgQzcdjmvp9fkU47dcD0qqVVVU5GGMwU8E4Rq7tXt+Xr3J16daaw/H2ryfx98arjw54wHhjw/4ZvPFOtQ2gvrmG3mjhSGEsVUlnI3MSGwo5+U1wXxU+PXjPSfiJ4J0Pw94Q1S4F3bNqV3Zq8AmuIhEd0PzN+7ZHdMk8Gsp4qnTV33sb4fKsVimowS1Tlq0tFqfSeTt9+3+FSR/d9+9eP8AjL42XugaxpHh7TfCt3rfie+sxqMulR3EUJtYchWZ5HbYTvO0AdTXpnhfVJta0OyvrjT7jSp54ld7G7AEsBI5RsEjI9q6Y1IybS6HFVwtWjGM6iVpbar8u3ma1FFFWcoUUUUAFFFFABRRRQAUUUUAFIfzNLRQB5r8Q9Pu/C3iC18c6XaTXy28H2LWNOhG5rizLFvMRe8kLFmA/iVpB1212GjatZeItLtdT067hv7G6QSxXMDbkkU9CDWpOgYjPJxgYrzPVPAeqeD9Uutd8BvBbGdvMvfD9y3l2N42BuljIH+jynqWUFWONwzkgA9F20ba4zwn8VtH8QX39kXgm8P+I0A8zRdVHkzjtuQnKyKTnDITnB5ruAMjg/mDn9aBMo6hYRalZT2k8YkgnQwyIf4lYYIx9M18QeFf+CZuofD/AFDVtN8MfG7xV4e+HupXQuLnw3psXlSOgxlDcedxkAAsFBIAGOK+7WWhVpLRlc2lj548S/si2XiT9pDwL8Up/EE/2XwdpwsdP8PSWqum8IwEhnL7s8qeVP3etTeI/wBlS38U/tWeHvjNe+JZp00PTfsNjoD2imNXKuPN84yZOd2cbO3WvoFlpNtPrcl6ngN9+y1Bqn7WNp8bL/xJNdSWGmf2dZ6EbMCOA7CDL5vmZ6lmxtwN3WvGtF/4Jj2Xh/xp4iGn/E/xJp3w38QXRutS8HWSeSlyN24QyziTLRnO04TJXgkYFfcirQy01e90V0sz5M+Dvgv4X/8ABOX4dz6N4p8f2lmniLVJr6K61GL7O0hCRr5SLvf/AFalOdxzmuv/AOG8v2fgdx+Kegj/AGVlPAz04HfivZPFXw/8NeOlgj8R+H9L15LfcYV1SxiuRETwxQSKQCcDNc6f2ffhiV/5Jz4TA6caDZ4A/GPn8KTu9GLRao83+IHhO+/ai0Dwp40+EXxnv/CVtaG5ji1HRbdbq0vlLBHDwyEAlGhwrYOMtS/s8/sh2PwW8ZeIPHfiDxTf/EH4i6+ggvvEOowJb/uhj93HEpIRTsQHk7tg4Fe+aLoen+HtNh07SrG302wgG2K1tIFhijHoqKAAPoKvciiySdg1loz4t1L/AIJ23Mfxw8U+OvDXxe8S+DdO8UTGbVNL0eLyppC2GYLc7xtG/JBEZIzikuv2AfFPjyPRtE+Jfx38R+PfA2lzpMnh65sIrdpyn3FmuAzO+OOSCT14r7TxmjbSWkVHsNrW581fHr9jOw+OXxA+GuuzeKL7RNG8EussOhWdtuS42OjKVfevlsNoGcNkfkK37T/7Fdt8ffGvh3xzonjDUvAPjrQl8u11nTIRPmPJO0puU5G4gMDyCQVNfT22jbQI+W/gn+xHZ/D74mSfEjx34z1T4pfEPyzDbavq0axx2SlSpMMILANgsAc8Bvuiuj+Gv7Ktt4D/AGkPiB8X5/EUmtap4pjEEVnJZiNdPjyvyK4cmQEIn8I+7mvoBlpNtVd30FZW1Pn/AOFX7Kdr8Of2hviL8WJ/EMutar4tURR2r2iw/YIgwOxZA5L8Iozgfcrwe1/4Jm+KfD/jjxX4m8LftAeIPClz4j1CS9vF07Sghk3yvIodhdDeFMjdefm6V98haXbSXTyHrr5nyD4u/Yd8SfEL4R+H/h54o+NPiDW9Gt9TOo63JdWIe51ZSyGOAyGX90iBTx83Jz/DXRfEX9ifRfFPxW+FXjfwxrf/AAhF34BjitIbazsUmjuraIgpA2ZF2gAOvQ/eJxX05tpGWm9RJWPnn4Afsot8C9Q+J+pQ+L77WdR8cagdRknmtRB9j5k+VQHILYlI3cH5am+AP7OPiD4B+IvGWsap8VPE/wAQrDVEU2Wna7PJIlgFLNtRnlcEncq5Crwor6AVa86+NnipNH8NtpcTbrzUBtKL95Ys/M3/ALL/AMCoeruPYxdH+GfinUYJLnU/E+o6bNKxdLeK4kk4bJwfnAGOeOenWtbxV4bfwr8G9X097yS/ZSX8+UYZt0wb1Pr61sxwXll8ObO41Kb/AImljai4M3pIozj8R8tWDrGj+L/CdjJfR+bY6sY4TFz98ndtyOflKkfhSAseBF/4o3QP+vOL+VeXfFzxgng/4vaI8Nq2qavc2Lx6fpcTYe5mxKAM/wAKDOWf+EDNdVcfFzwX4FaPQZ9UMk9lEI3NrC0wiwPullBwcY4PPT1rzubWtF+IHx/0bWtFBnm/s5rRpnjZJFA81toBA4+fP4mgDrdK0HxlHoFjY2XiuRdZ82S4vbqaKN4biWRy7hQUJjQMxCqOgAFakfhb4kjA/wCEstD6ZgXP4ny+a9A0nSl0+MH70mMEmtEdKAOGdfEPh3wDrM2q6ol7qsUMssVzCgG0bBtAG0DOQ3bvXL+G7T4h+JtEtdTtvFEEVvcKWRZYE3Dkg5xF6g133xGlEPgXXWZto+xyAH8DVT4S/wDJPdFHX9yf/Q2oA55vC3xJZdp8V2Zz1zEB+ojB/Wui8A+HtY8PWdymtao2p3M0u5W3MwQY7bvfNddRQA1PujscVn+IbE6not/Zqdsk9u8at7kYH64rSpp5oA5L4Y/8iPpcDLtlt0NvKucYdGKsPzrE0zxd4T8BzajpnnXFjK1y9w8c0D43MBlUz1HA/OuputX0vw5qEou3XTxdNvEkuVhkfp97pu4HHoBVz/iU6lJHOxtLmRR8shKsV/GgDi7jVfD83iTSfFl9ezaXJJbNBBb3sZQMMnkE9Pv1T8ZeI4/iJLB4Y8Py/a453WS8vIhuijiHPDd8nFdl4i1Lw6Y4LXV57F1lkCxR3BVtze3ofetTS9Js9Jg8qytYrVD1EagZ9z6/WgCS1torS1igjby44kCIobooGB+lFWA3HAbFFAD6KKKACiiigAooooAKKKKACiiigAooooAKKKKACiiigAooooAKKKKACiiigAooooAKKKKACsPxpfatpvhnUbnQdPXVdZSFvsdnJII0klPC7mPRQcE+2a3KKAPzv8O/8E2fFPjLWLvXfiB4zt7O71CeS6uY9Lha4maVmJbLsdvJzyBX0F4C/YO+Efgby5ZdAfxDerjFxrEzTYbHJCDCjp0INfR1FAHlXhnTLXwb8Vte0a0tLWw0/VLC31KwtrWBIk3REw3CgKAOA9ufxr0VkIY9T75zmub+JXhK68SafZ3mkzR2niPSJvtmm3ExITzNrK0T/wCxIhZG9A2RyBTvAfjq28badJIIZNO1W1fyNR0u4/19lN/cZe69w38SkEdaAOh20jKccDJ7fXip1jx+fQdB9KQrg5/Lj+WKT1Q1uflxpnwb8L/tnf8ABRb4vR+K7WXU/C/hizWyEENwYyZYikK8jnGUlr7l+Ev7L/w4/Z/sb+TwB4UtNJ1KeLy2vnZpJ5OOFMj8hdwHC16jp/h3S9JvLm6s9Ls7S5uT/pEsFvHG83u7Dk/jWht6/wAXTPB59Mf40Su4cqFpzOT6H5LfsF/tM+HP2ffB/wATdC8QabqupfFjUNfke38PQWcjXd/IECrEzfwkS+YSW+7uY967r/gnr400TwH8DfjF8bviM5h07xJ4lEGoXUEBnDKWAJCpk7PNu3ywGMKTX6LweC9At9bm1iLQ9Mi1eYMsupJZxLcOCMENIBuOehz1qa18K6Ra6TJpcGk2MOmuSXs47aNYTnrmMLjn35qubeS3aSCV5O/zPyi8Of8ACL/DX9rLwD/wy1441PW/DusXRufE2hWrST2NnbBlZy4KqNvl+YRxuAjXB5pn7WXjL4LeLb9PjB8DPHuq6X8adSuoYxoekJLHPeMWCN5kW3EbBVyRkhyBxnOf1a0HwP4e8LNL/Ymg6XpDTDD/ANn2UUHmD/aKrkiobP4d+FtN1T+1bXw1o9pqeSft0NjEkwJ6nftyaX8q7Fc2rkfnv+3JdeIfiCv7L3wz8QNt8Va9f2t9q0WAv74JHHIGUcD5mk7DpV//AIKU6xB8G/jR8APic8EstpoV3NA0EHylkjKuFU+uOlfoTdeHtNvtQtb+50+0uL22z5F1NbI8sX+4xXK9e1N1jwzpXiSGKPVtMstTSJt6JeW6Tqreq71xn3qXe68pN/eZxjyr5WPh/wDZE+F/ivxF4T+Knx61+xePx/8AEG2vJNEtWGHtbXy3+zqv93e2we4CetfJn7Jmn/AG3+HOs2/xb+I/irwV4vi1K4GoaJbatcWUMwHQ+WiEM2NynJycYxzX7Qx26QxJGiKkSABVUAbB2wABiudvvhr4T1PU31K78K6Hc6izhzdz6bA8zN6lypOffrV3tK/lYr4o27u5yX7N/hPwD4Y+EWhj4aaGdC8KahF9tto5YXimlD8+bIr/AD7mAB+bnGO2K9N2jjhiCMDP1GOnIr5z+I+vftQ2XjbVLfwN4T+H114SjkC6fNqepypcPHtHLqFwpzngVkeH/EX7Xdx4g06PV/Cfw1tNJe4jW8uINTmZ44Sw8wqNuS23cR9KLiXunh37cniL9m/4sXfiK51fx3deDvi34HSays7izjmiu5JY8OkQGMSLuPysCGBL4z0rsPAvjn4nf8Ox/E3iHxot/c+Lv7C1D7LNdRf6U1sQwilkGAQQnzAkZKhc8819lX3w78L6xqSajf8AhrR7zUVwVu7nT4pJgQOMMV3cf0ralt454DDIitCy7TGygjaeMFSvSoiuWPIVe7ufmN+yT+0f+z3oP7H+hfC/x3qzJHqi3UGuwyWEpggeaVyDLMowjFEXa2c5HQ0n7GKr4Q/bEu/CXwW8aax40+CCaa1zqUlzmS0tJihKxpIwUbg+zDAKTkjHGT+jcfwz8JW+nz6fH4V0SKwuHEktrHp0XlysOQWTbg/U1p6D4X0nwxaNa6NpdjpNs7FjFY26QIT3+VAB+PXitIuzuLl0sW1QjORg9SO2fb/PXNLtqbaGwQMDsKNlSC0ViELzXmXxQmTVfGngrQoy7SQXcmtXQjbAEMUMkSqx7bnmyvqYjXY+OvGWmeA9EbUtTkIDHybe3iXfNczN9yKJP4nbnHpyemSOF8F6HqUl9f69rKr/AMJDq5UyxB9yWUK/6q2Q9wuSxPd3c8ZxQB6f4bz/AGeNxBXkZHf5jzjsT1/Gtiq2n2os7OOIfwj9Tyas0AFFFFABRRRQAUUUUAFFFFABRRRQAUUUUAFFFFABRRRQAU1qdTSOaAKGtQyTadcxxNtkaMhW9CQRmvm/9nHWvFXgXQ9K8BXvgbWDqFveTC/1aZBFZ7XmZ2nEpPzltxIUc819OuBnrzTdu3sB+HWsJUeafOmd9HF+yoToThdS1+70PmbXbrxd4I+PXjTVrTwbqOvS61pdra6ReWyqLZNm8ssj5Hlje2TnrkVy/wAE/hL4rj8beAbzxFoU1qbKHU9b1Ce4AIW+uZdoTIJ+YIT/AMBK19g7R3UU1lHbj3rljg1GfO3c9VZ5UjSdKMEm0k3rslZf13Gl9mO31Ncx8R9V/snwhqE50C68SwMnlz6fYqrySRN8r/KSNwwTkema4fxB+zHoHiLW77VJvEXi6Ca7lMrx22v3EcakgcKgOFHHQV1nw2+Fem/DO1vIdP1LWNRFy4dzq9894wwOApflRXU1KpdSVjy1HDU1GpGbcl0tp99zxT4OeE/Eej2/j2Xw5pOr6J4Qm08ro2h64xWRbsBw3lK5LRwn5AAfT0re+BWtaj4U/Z9t7S48Da59u0WBLa602WBI57tiR5zwgkBlG8nk8heK+gcbVUHgk/xc07aOflA4rCOFSW+53YjN5YiMozhu0769FbV9fVnyv8HfBOty+KvE3/CJ2+vfDzwLeae0UVrqiYkt7xj/AKy2ifdsVVznJxuK4Fdjo/wB8ZadqVrdXHxm8VX0MMyu9vNDa7ZgDkq2I84PTg17wv3uCMemKOWPTHb61osLFRUexNfOMRUnKcFFJpLZSenm9bnzFouo+JPhT8YPiDLN4G1rxE/iG9gudOvtPQNEY1hCeXJJ/wAs9pDfmK7Dxb4Z1nxh8efANzcaQ6aLodjdahJcMA0aXbBUjjz3OGc/gK9tblhj1waXaPTtQsPbRvQU80cqntowSly8t7vtb5aHgngjwxrlp47+Lvi+80iZLyV0stLRk+e5ghgJUp7M7H8jXlmjeA/E3wy0r4PeIrnwpqGsppi3k+pafZRiS4t7u5ywkKHrtJZc9iRX2dt+Xpz1pjxhhgqDxWDwcbKztb/O5tDOakG24Jp2VtdlG1jwD4J6T4o8RfGLxt408UaFNoME1rb6fplrOQ2IBlyTj+LLYI7EGveZJQuACMtyfzHH41y/xE+HWn/EbR4tOvL7VdPiilWcSaPfvZyEgEYLpyRz0rgdO/ZZ8O6be21yviTxlKbeVJQkniCdkJXkAgn5h6itoxlSXIo3X+Zz4mtQx8/a1JODSSUVF2slbds89+NdpqfjbxsreGvBviLRvH9hcrBY+IodqWclur53TSbgjxFSzbGBOa6rW4vEGh/tMaFqt34d1LWNLk0OPTYL+xjDwW9w8+Zml5GwBVQ57qK+goUO3kYx/nNSbe5+bipWFV07myzicIKlyKyi49W7Ps+nofLX7Q1ne+NvET2mieCPE1p4708iPQ/E2nsI7cq21sySh9oj3ZDI4x8px1r6V8OLeR6LZJqMqT36woJ5YwArybRuYAdicmr5HzZ4HHSpIwVXmtqdL2cpSvucFfGuvQp0HGyhtu/+GXkOpaKK3PPCiiigAooooAKKKKACiiigAooooAKSlooA5vxd4D0Txtp5s9X0+G8hB3r5q5ZG/vIeCjf7SkGuF/4RHxt4HOfDfiD+09PjB2aX4iDzgcj7twgMqgAHCtnqct2Hr1IaAPK4fjWuj/J4t8Oan4aVdxa+RRe2IVeh86LIGeuCAR3rtfDvjLQvFsKy6Pq1pqQ2hwtvMjuoPqucg/XFaVxpdvO2duxhzujOD+lcT4h+C/hvxBK89zpNrJOx3efGnkS57HzI8Nn6mgDvsY9fxpyruryaX4d+JdF8z+xfGetWG7H7u7K6lEgHYCVeOMd6cniL4j6PMPPt/D+t26LjYrS2Vwx9W3box+HT0oA9Y2UbK8sh+Lus2Nv5mq+AtaSToy6TNDqCj3DAqSKtN8evCdrsOpXGoaPI52eTe6bOGB99qN/6FQB6Tso2VyEPxc8FyQmQ+KtJhGQAtzeJC35OQf0re0/X9M1bH2HULS8B6GCdXB/75JoA0dlGykH/AAKl/P8AGgA2UbKctLQAzZRspW/H8KTdj+9+VABso2UxpAvJJAA53Agf4Vi6r438PaGrHUNe0yxAxn7TeRR454+8QKAN3ZRsrhtU+NHgvSUMk3iOxmTbuJs2a56e0QbNZ83x10OaES6Tpuva+Dj5dP0yQkZ5z+82YoA9J2UjAL1rzCf4oeJrqZRp3geeKA/em1W/jt2T0/dgEt+BrMmv/iRrUTpNrWi+HRuzGdMs2u5lHoxnIUn3AxQB6xqH2j7JL9i8oXW392ZgxTPvt5NeGSL4a8LeKG1bxt4u0/UL8TDbY2paVzL/AAK0YBP0UitSX4Y/8JAr/wBvaxr/AImilILwXV48VsfdY4guOc8ZxXV+Hfh7a+H1C6XpdnpgIwzQQqjn6sBvJ+uaAMHW/iBr/i61lstE8JyW1nPGyNe+JnNsuD1xAmZW45DAADPNc/4b+FUn2fTl1/W73xHJYsJbe0jAtLKBwSdyRRkbnBJwXPPde59itvC8UeTLKzlu3+etatvZQ2qgRx4xxk0AeXaP8D9LXxBdaxdwCQyuZIrZkURxk9TtAAyep9zXomm+HdM0tla10+1ikX/lrFAisfxAzWqKWgBBnnNQ3UZmiaMO0bOpUNGQGHuKnooA8k8QfC/xRr8n2e68Urdacp+VZIyHI7HjgnqM16T4d0WHw7otrp1uS0NumxWPU+pP45rSooAKKKKACiiigCveWcF/bvBcRRzwuMNHIu4EfSuKuvgx4XuJC8VlJZse1rKYx+ld7RQByGi/C/w5oNwJ4NOWS4U5E1xmRgfxrrl+7S0UAFFFFABRRRQAUUUUAFFFFABRRRQAUUUUAFFFFABRRRQAUUUUAFFFFABRRRQAUUUUAFFFFABRRRQAUUUUAFFFFADW79q4bxx8OhrWox69ot62geK7ePZDqUKl1lTJJhnj6SxnJOPvKclSCTnu6KAPLtL+LQ0jUItF8b2Q8L6ozeXDeyNv0y9bHBimPCFuvlybWOcAsc16RH8y5yT9cf0qvrmi2evWMtpfW8d1byLteOZN6sD1G015k3wt1nwT+88Da/NpFqo40i8U3unjk4VYyVkjGT0iZc570Aer7aNteXRfFjW/D/7rxd4RvLeMHDaloJN/bLgD5mTaJVyc/KqSEetdZ4X+I/hnxhJ5Wka7Z3tyF3tZ+bsuYx6tC37xTx0YA0AdLto205f07U89qAIttG2pKKAI9tG2pKKAI9tG2pKKAGKtDLT6KAI9tG2pKTcFPPfigBm2jbWB4o8e+HPBvlprWt2WmSSg+VDNOBNLj/nnGDuc+ygmuOuvjJe6u+3wr4X1DVFO3/iYamf7OtMdyN4MxPoPLwc8sKAPT+AQDkk+lec+J/jBaw302j+FrY+KdejO147eQLa2hz1uJwCEx/cUFzkYHOa5648L+IfGX/I3a/JdQMMNo2hxvZWbcnAdstLKMYyrNtJBIAzXa+H/AAetlZw2lpaw6dZRjCwwR+Wi+wXAx+v1oA5DQfBt5PrX9u+ILz+3PErKyxyLGUtrFW6x28ZJC5/vkl27ngV6fouji1XzZOZOnfpgevSrlnpUFio2KC/941dFAAvSloooAKKKKACiiigAooooAKKKKACiiigAooooAKKKKACiiigAooooASilooASilooAZt3U5VxS0UAJRS0UAJS0UUAJS0UUAFJS0UANK5pFGKfRQAUlLRQAlLRRQAUUUUAFFFFABRRRQAUUUUAFFFFABRRRQAUUUUAFFFFABRRRQAlRvbxyffQN9RUtFAGfNodncfeix/u8VWl8OxbdsckiD3c4/LpWzRQBx938O9NvMm5tLK6z/z8WUcn8waw734K+HrxsPoemuO2Igg+ny4xXplFAHjcf7PHhezmeW18O2tpI3LyW9xNGW9j83I9qtR/CG1hAEUupQgf6tY9UmUR/Tk4+letUmKAPI5Phm8TYbX/ABMT767Mfy9qb/wrtj/zHvEv/g9mFeu7R6Zo2j0oA8i/4Vvv4k1vxFKneOXXZijfhQ3wf0u8Ueet7cIpyqXGoTMF9wMjmvXdo/uijaPTH0oA8bt/gD4St7hriPwxYG5f700jyszH1OW61uWvwj0m3UBdA0tMdN9skg/UH+dek0tAHJWfgqOzIEKW9p6eTCqj9AKuf8IsZP8AWXTv9a6GigDHj8M2iY3lm/GrkOl28H3Yx/wLmrlFADFjVRhRtHsMU6looAKKKKACiiigAooooAKKKKACiiigAooooAKKKKACiiigAooooAKKKKACiiigAooooAKKKKACiiigAooooAKKKKACiiigAooooAKKKKACiiigAooooAKKKKACiiigAooooAKKKKACkPNLRQBVnsYLjO6Nd2MbgOa5HxR8JfD3i23MOp6VY6jF97bd2yyHPbGcYPvmu4ooA8kX4S32i720LxF4g0Q7dqpDqH2qCIdgsFx5kY+gWkVviTpXlRxa/pOrRJ/rG1XSnjlkHb54ZVjU/wDAK9cpsihlIIBHuKAPKx8QPHlncbbnwhpd1bgczWetssp/7ZPbAD/vupm+MWowzIk/gDxKEx801u9lLGv/AJMhz+CGu8mtYDn9zH/3yKxry3iVvljReOyigDGj+M9hHHuutE8RWvqG0t5CvtiMsfyyP5VKvxs0D/nz8Qf+CG8/+NU51G7oKbtHpQAp+Nvh8f8ALpr+f+wDef8AxumN8aNLdC1vo3iG5HT5dJkiOfT97t/wp20elIyjHSgCifjLfTXGy2+H/iZ48f6+drGKPvxzdb8/RD1qKT4ieNrmaMWfg3ToLY/ek1DW2Eg9D5aW7Bv++x+NaaqOeK07CGN1y0atz3UUAcfLqHxF1BpRLreh6VbsMCPT9NkmuE9/NlkKN9DEKqt4C1HVvKGs+KfEutshOAl4bCN89mS0Easvs1epW9rCGGIYx/wEVqRqqLhVCj2FAHmnhv4W6X4dGdK0KxsCxy00MEYdmPViepPvmutt/C448+Ytx0FdDRQBTt9Lt7YDZGvHdhk1bWlooAKKKKACiiigAooooAKKKKACiiigAooooAKKKKACiiigAooooAKKKKACiiigAooooAKKKKACiiigAooooAKKKKACiiigAooooAKKKKACiiigAooooAKKKKACiiigAooooAKKKKACiiigAooooAKKKKACiiigAooooAKKKKACiiigAooooAKKKKACiiigAooooAKKKKACiiigAooooAKKKKACiiigAooooAKKKKACiiigAooooAKKKKACiiigAooooAKKKKAP/9k=;" vertex="1" parent="1">
                    <mxGeometry x="10" y="220" width="726.73" height="300" as="geometry"/>
                </mxCell>
                <mxCell id="3" value="" style="shape=image;verticalLabelPosition=bottom;labelBackgroundColor=#ffffff;verticalAlign=top;aspect=fixed;imageAspect=0;image=data:image/png,iVBORw0KGgoAAAANSUhEUgAAAHMAAABTCAYAAACs7zjQAAAgAElEQVR4Ae2dB5xW1Zn/J+IwvVAGEaxRY4zu6mr6bjRBscRusGBssZANJkaDmnWzfzWiBiWWaEw0sQMqit1EioBoELCCgnSQOv2tt75lfv/P9w4P3MwOAgluNPp+PmdOvefe9/me5znPOfe+d0o6OjpkoVAoqFgsKv4hb4F6a2ttqMvn87JjSRNoxyeXy208Jt439eStv+5iO8dn8dZJoAQIBAAgeANhwjWQJvyuADiNlVls/XGM9W91tLe+qKPcgrXlGqy9XUfXeOu+3qerVUl7e7sSiYSICclkUplMRo7jKJvNRsHyvu+LEASBwjDcKHATvsGJ5xGnlZtoAWVlW4LWFaLlra/P4k0SKBk7dqwIDz/8sMaMGaPHH39cf/rTnzRt2jS9/PLLeumllzRx4sQo/dZbb+mdd97R22+/rQULFmjlypVavXq11q5dq8bGRjU3N2+M0+m02tra5LpuFBgAaD7BNBHopo1WZrFB+1vjTV/x05Mqueeee/SHP/xhY7j//vsjuI8++qi6hscee0wEyseNGxfBZwBQ9sADD+iPf/yj6I8B8eKLL0aD4rXXXtMbb7yh9957T4sWLdKSJUu0Zs2aCLxZBTTf87yNoP9WgPHjPj0IN33TEjQIYVogj9lFy9avX69169apqakpArB48WIRgDJ37lwBasaMGZo+fbqefPLJCC5Qn3jiCT3zzDMR8KeeekoTJkyIADMIDDoxdWYFZs+erXfffVfLli3TqlWronO3trZGZh+Tj2bHTTNp4JmZtjorN7B81Xg7a2/18djEYn1Z/pMSl9h8iUlEeKYtzJ2pVErAjQO3eRQBo03MoZhSyhkQxBxHf5hfwCxcuDCCj4ZOnTo1Aj9+/Hg9/fTTEWhgk3/wwQf1+9//Xr/97W8jLacccz9r1iy9+eabkWn/4IMPogHG9RlggGCyiQFBMBMOPNIEM+FxoFZmUMkbTCszmF3zVv5xiSPNBBYAEBBwiS1QHg9WTmzlNiDMgbK+4tpuoIHN+Tie9mg+gJYuXSrmZOChrc8+++zGAFRA33XXXfrd734npgLavPrqq9H8jZVgwDBvm7kGNADNQzfABtKgxwGRpn5zn3jbzbX5R5aXxOFsKQ2kuKYazHgZ0MgbWGILLS0tUdpgG1Ric5TQeNL0g3nHycK0z5s3T6+88oomTZoUOWTARpuZo2+++WbdfffdkdlmMGD6cdIYJOaEGTzTxLj2WRmw+JhWW/4fCWhbzl1iQLrGBrZrueWpj6e7a28m10ywAQYUxyJoAmmAmoaTt2NscFBv8OmH+Xz58uURNObsmTNnRnM38/VvfvObjYBxxhgA1L///vvRcfSP5gIxrrEIDoBx0CZM08qPM+CNZtaERcyX7S7E21ja2iF0A0CdAQOQ5W0AkDf4ppGUcTx50gbWYFvflFNGTFugcA3kcdqYo/GcX3/99UhD8aofeughjRo1KgJMGueMJRdzOEsr+jFIBo11NP6ALaUMtLUzyB+neLOaiUC7BgNnIMhb2kBZ3gRseYNtUOibNmiZwbE+rF87xgBSThntOI4+4nna2bHUG+AVK1Zo/vz5kRZjgllO3XLLLRFcllPARbvxphkQgLQ5Fy0FoGkx8cf1E2kmAthc6ArUBGjldpzlDR7lBsPKmA8pQ8iUAZbjrA9i69+g055y64PY2lDOQLA2lFvf1FFu7U3j8dhxupiLgTd58uTIc/7Vr36l2267LVpj43DhXLEeBiwwzSP+WGsmAvgoAwKlfxOupS1v9VtzDRxDiLe1vNUBz8rsXPH2VsZ5CThlwMXcYp4BiUN100036d57743WzDhezLf0bRpq82rcWTJtBjj1mGiDj8m2Y4kpt7rtpendzpldv/wnJW9A4zC7u3YsBGAILGVob9uRaDbOFfAwyax7b7zxRo0ePTrSWrY40WrAAcwC/aDF5ONQAUWZgbT09gbJef6pYHYHbnNlBhztBCB5TDFQTGtJY5bxmlnysMa9+uqrI7jsZ+Mh2xxrUIGEFpK3da6tdYEMVNPM7aWR1s+nEqbBArSZZeZoAmBZ3wKRPGCAgDYDnF0tPOE77rhDzLMsg9ibZi1MOwYAEIGKpppGxiF+FFr5qdVMYALGNDKeBzCCR0uZT9E8wNKedkA1sJhbNi9Y9lx33XXRBgbaSh8MBLSTD2kAxoNp0/aMS2yUfpzjzZlKyv+W60Yb7TggAQetogzvGO2jDf1TjnYSKAOuHc9xQAc2e854w2gre8t4yThVtDGTS19xDd2eIOnrEwETIXcH1IBsa4ymAAFBW7+sS4FkSxEAAMnWqwbOroUYzTZzbEsX9omZW/GI0dgXXngh0nBAmoME0I/C1H4EMNGWeNh0e21bhR7vJ51mSfLXIV7fmd66c0Umk7s82aySqWQUx8ECG8iACrgr5LhKpzrnV8qZF629tQUsWm1zJmtUbvjjCeM0saVIGe0Bb0DjUC1t8bZq7naGCUTmlnjYvClMZ7IiZDaGOIzu+koqm+kMf30OO9/mzxUfSGk0PbshxO7lxtvE09l0RhvDVrQHOMcDFlPLDYFrrrkmmleff/75aOmDpgLVTK95vECOwwYocLcG8D8QJiCdKGQy7Ax13g/dJMSuMJnnPgKYQN0CoCz7zgZ0C225fmCigZhtzDTAmId5OgMtvfPOO6N7tMy/wKOe4zDtthdMmgBEykhv6bP9YWZTysRDZHLjGmdp4AHRQjcw4/3E02h+PG/pzZ7LztkZb9RK084N8aaB9NftKY+Abog/rB0gDSammLbkSTNn8tgMd3aYT9lhYg1LPbDQZAaBmWBiS2+VZnLw9gvcOeku2DnidZTxBKAFa2NxvC1pRvuWQvwY6+d/x8yVGadL2Ao5OFvRBjA4V8RopTlalkYL2WHiRjy7SzfccEO0yc8OlGklADG1AI6ntwS0ZPuB/N9C++u+TdAGhPyWjonXby1Q+v/wvruF6cTP9fel0UY0EU0zzeS7ksb5Ig1k9oQxvbfeemt0Y52nLcyBMpCmmVsysdT/A2Gm5WQJmb8K3QGOhJ/NKNNN6E5brc/u+3KUyTrKYALjgbINYZO1MKsRjz8cNBDj57U1qZlQ6tBaymkLXO698igMSxqWNoC2eRINRSMtfBjUfzDMlJwswcB2wo0LY3Na1Gkmu2p7vJ/u+gKYu8WQzfKA2ubCX8OKX6ulDahpKHlL0wZQxJQDjjq2Ax955JFow+Evf/lLBNkAEm+NhpbET0yndhIrtwuJ1226aC5o00ilrbNxDsTM+Bu91M52KWUdnAEEnZLnpORmUwrcrFyAZtLy3M6FPN6t4yB4Rw6OgecpzUjGNLPOo8zFI2aDnLY4LckN/WbkosXpzt0dritaK6azSmUcZV1PSZZF2U5vOp11lWAdmc4oxXldX46DM7IJqJO1vGnppu9t8rAYQIRIHhuAWRkx7ZAn8ydpNBXNZRnD9iAbDixhmGcxtzaXfphWRmbWTmqwyNMxwdLE1o4L3HTRjlyP0dU5wlyXxTTzBECYF4DZKUjaZLJJuV5GrofH1ybfScpJtyt0M3IzKaVTCbkbbk8lEty8dpVK46h4SrFwd10lWMJEIF1lXUdZJyPP5/p4xLNdrpOW72XlAjfdeSeEQeH7YXQ9gMx6fhTSjqus48kLchFg1w/keEF0vkiDAR8D2pnu3Js1UNsaI0eDxxYhcqeMNDJnk5/nltgWnDJlSqShtmGPdtpcirZ2/ZQYtPhFcQKDC7g4TPIb26JRBM8GALslvrIbYALW8wIFQRhpMJoTBI48P6NUslluplW+k4igek460k40k2tCcJ4HgEBZ11eSQRHmlMw68nI5pbEIEcxO7eQ4tD30HTmZpDLphHw3q6bG9Vq0aLEWL1mmdeublMq4SrBm9AO1pdJRGi3NMBB9zuVF2glMQKOlxAS+W+eA/duB8t2AiUxJI0tAkjeweLs8VM4dGZ5Too6508LmgG6EScd0SufRdteGEQM8AxuHSrtII9GCmGaijVFwPIVBXr7H7SNMS0ZZJyU/yMrz8Thb5WZb5DttWrZ4nma+Ok0vT5uqSRNfjLa+Jk2aoilTpmvS5Gn684tT9MrM2WpuT6qprV0ugwNP0cXsZpRIJhT4ngLPUS5wlQWkl1FbS5PGjX1YF198sS7+ySV64KExWru+OdLKFPMYwvQDkXaCoBNsOhNppuP5cr0gCpE2AzYC2mmxTBbbGhtAi5EtafoBssFl64+nHliL8pQ/5WZubS5FM+PpaM6kIR1iw4lNG8lTR97KOCllxJ7nyg8YBFwMXxZz58tzg2gUd5rczsEAcM9jPkoq62AO2xS4rWpau0y33HSdjhx0qA7/9qE6/Dvf0VGDj9KgQYN12LeP0LcOO1zf/NZ39NMRV2rZqjVKItQgjOa8DOafUe25CgMv0uyAczB3ZpKa+/abuvD8H6ihoUG77bGnLr/yKi1etlJBvqjm9oSWfbBK777/vhYvXxFpezRfAtBnsGBy/UhTDWakqdF37Jx2thUk7ZGjyY+0wTQza2Bpw64RP+NgOxBt3dJGfaSZdGCd0QknMG1ktFBnYKmnfXRSDxPB446d9n4TTMwq5hbg3D7iNpIXzZeZbLuyTpt8r11uulFvz3lZZ3zvONVV9VRVeamqKypUW1Wr6uo6lVVUq6KqXjX1DTrtzHP0/rIVSvuhEo6rBI4RloRrD/3OeTKblM+c6aTlZVN6c84snTn0dFVXV+trX/+mxj32uBpb25V2Pb05d57+59pfaujZ52jkjb/SkuUr1NTaJi8IozkUmBFELI0fbCgP5W2Y20wG2xrbAECOJkvka+XI2fLEPPzNk4Q8hwQTA9rtnEknXBAHWkyHBg+TSxs7iV08ZXio0ZzJ3BV5ZSyWPfleLgp4gABmQHBXA+cn6yTkeAnlcim56fWaOulpfe2Q/VVZWqKvHnKQrrrySt06+lbddtsdGnXTLfrVzbdq9G136vmJU9SKM+SHSuFtBqH8fF4J9kHdbLQBH/rZCKKXSaoYempcu1ovPPds9LOGp599TqvXNqotmVFbMq3Hn3paB3/1q6rt3UdDzhiq+YsWq525LAgjiDhdGbzpDfMmJhfArtcpJ5PDtsbIkWMMJHlkGVcgyjCpxNyN4Tc5/FKPrUCOs7WnOUBmakswf9zm8T3g4Fk5CkIu3FVLW6sWLVqoBfPf06qVK6PbQJGHmnUjxyAImBcz8pyMku3tamlpUyIJ4DByXpqbmrV86XItXLhEzS1tCvI5uT7eaavCoF3tzcs15oG7NKChTjWVpTrzjNP0xuuvq72dh62yamlLqbk1qdZEWhnPj4Td2Nqq1esb1Z7KKl9UJHAv4KGsdmFiU+2tamtaJzeTiJyhtrZmNTU3R0uSjONvnA9vv+NODdxtd9X2adDZ51+olWvXd5rvaCnkR5roh7lOLY28XMw5odMqbSvEeHvgEUyBAEk9AClHMagjoAjMnzxQxsNkdpsNJ6jrpyTjpFXIB8okmqS8p/Zki6bMmKqrRl6jI48/WkcOPlSDD/13nXTkUfrhecM0/rHntbYxpYRbkB+kVfDXasXCd3TdL/5HJ54wRGPGPa3FS1fq3vvu09Ahp+iwb3xTxxz1PZ193qV66S/vyitKrt+q0G/S+g/m69ZR16mmolL1db30n8N/rEVLl6s5kVJTW0oZNy/Xz0VzouMmNOHJMRp65ikaNOg7uulXdyib6VDG9dWeSur9xQt06aWX6MxTT9NlP7lYM16epGeen6Ah3z9VQ4YO1SOPP621a5v0zISnNHzYD/X1r3xZVTX1qqzvpz33O0gnnn6uhpx5riZPfVlBmIvmyzTwvVDZoDMfedpup/dpwt4eMSDpx7TUYNsAACjbfjysjXYClPYsVWwzAe0sSWdZaLerI0jJSTbqoYfv06Bjj1TPhnr1rKtQr/qe6lvVU312LFX/up00+Ijv6d6HntKqVjS5TUV3hV6d9JQO+8qXVVvdV5dcdrXOH3ax9tp7L/Wq6qna0lKV9+yr3v0O0PmX3KAVjSnl8knl/UYtX/C6Lh0+TJU9q9XQMFDXXH+TWrmLEubl5KRkNq+sixOWVj6f1PPPPqS9P99PtZXl+vKB39LC+evk+nk1tjbrZ1derp122kkDGvrrpxf/SLNnTdew4eerok+NBu61l0bf9jsteG+hLjzrbPWtrlafmmr1LKtSSWmNetT0V2ndAPXaaTfde//D8jHhQU5erignLCrthdHWH8uefLjpMZLtAXJzfTA3UmdzKz9rxBliDmXqow5NtrkT01sS5FmftarDT+jJRx/UoMO/rR0qK1S1c3/9YPgw/f6uX+uuW27U9wYPVu/KXqqq7K8TTjlXs+YujZyOILFKD9x1s/5ln91U1rNSu+5xgKrrd9agQUfp0h9dpNNPOk5lpbUq2bGf9vrXIzRn3jJ5fqu8zBq9M3uqTjzmSJXvWKm+DQN00fCf6qFHH9cfx4zTQ48+qUcef04zZ81Ra2ujfK9Vy5e+qWOPOUz1NVVqqB+oe+95VFk31B8feEBf+NJ+qqqu0amnDNGqFUu1aOHbGnrO6epRU6EvHnSwxo5/RqtWrtbokdfpu4d/RwP7NahHaYV22Wt/nXDG+Tr13OEacdW1enfBIuXyBXksWdxAGT8vL9+hMJ+PzDbLn80B2F7laCRaajCJ2R1iI4EHxtgZMtNsMDG7JUEhE4361Uvn6XvHHany8nLVNvTXL0aN1rJ1a5TPpeUmGvXM2Ad1yAEHqbysj77xrWP09Isz5GRcuS3rdM2VP9aeu9RFx+5Y3ltnnDlMM16eo0xbo56fME4NDf3Vs6q/+u56sN6av1Ke3yYntVrTJz6pf9v/i6osq1FlVb367bKHdt17X+285+e1xxf2137/8hX9cuQNamxco1yYUCa1WjePulp96mtVX91H5541TDNefU37H3iQelZURR7r5BcnKtnWrOefG6+jjz9Kn6uq0qFHHqvJ02dHc36icZUeefBeHbDvF/S5HmU6Zej5emnWPC34oEXNSU9BviPavYqWIUFebqSdhWgJBMiQ5diG+Wx7x2ZW4xDRODSQJwV//vOfRw9ms0whz9xqGwjMnyXZoE2ut15/uHOUdtuptyrLq3XcyWfojfdXKJsvKpNpkZds0szJL+grBx6k8vJ6HfzVw/Tgo8/KSQVKrFqvH1/4ffXtVaIdS3voiKNP1pw5CxW4Uoef0fTJT6uhX1/tUFan3ff9phZ/0KJ8ge27tXrykXvVr1etSncoV2lplcqq69Wzpk49a2tVXtNbvfruoptH36IVK5YolVyrfK5Nb855Wbvs3E9VZZWqqqjVN/79W6qsrVf/gXvo4YcfUY5tu2xKT0wYoy/965dU02+AzrrgYs2cMz/a9/VS63TXbTfpi3t9XhVVdbroJ1doydp2pfKKTLsfFqIdrGjjIyxEZtYBqu8rBKb/0cEEIhqJiQUsse36cJfl8ssvj34Dw71PAmW2VOmEGbaoLbFUZ5/2XdWU7qDedf108y33qN2Xkl4+8laVz2rO9In6xpcPUVlZrQ465N/1yBMvKMgWNX/2XJ120nfVu1cPDdxtoO6+d6xamj0FToeCTKsmPPoHNezUW6VVdTrmpPO0uiktL0iovXWFbh11teoqy9Wrtq9OOvk0PfHMC5ryyqua9tprmvbqbL04eYbWrmtUsRgq8NuVTHygtauX6NRTTlRlWU/tuEMPlezQQ5W1vfSTS/9Lzc1JZZMZJdqa9etbRqq8plJ9Bu6lEf99gxYvx4P2tO6Dubripz/U7gMHaOdd9tDI0XdqZUtWrW6H2jK+Ch1SsVBULpeX4+eUwQELCwpzeeXx3r3OZRpC394hDhNtBBTaB1jmySuvvDIys+zfmnZyDB8coRI336JFS2bqyG8fopodd1Cv2v4a/8RkJXwpHfIAb0Kp1jWa+sIEfe3ggyINOuLI4zX91TfkpUO9MP5Z/cfXvqLy8s/pO0cM1tz3limbLSiTyCh0WnX9L0eoqqZMVfV9dfXI36g1xUZ3q9asnq8fDztbVT131E59Bujqa65XIusp6flqY+PCzyvIS0GYVxiyDmtSPp9Q4/qVGv6fF6oW56q6QqVl5dr98/tq4pSZSrR7SrS2a+WKJfrJJRepvKZau+5zkG6+/X41txfF/u/CuVP1/dOOU31NtQ446BA9PXG6EoGUDKSMl5fjsvTo3AvNFRU5QRl2tHhSPfBUyG1/iDYoDCaxBeZGvFt+d8qTfrzbgZva7A4BFdjMmxFMX+2aOGWcDj5gd9WXleoLex6gGa+8p8aU1O4UFeZ8tTWv0n2/v1V77DpA5RW1OvX0s/TOu4sUOoEe+v0fdMB+X1JpWYWG/ehSLV2xXjlGspuJ1pHfH3qcepTuoJpe/fTAmKfkBAU5QZsWLJil4448VGU7fE4H7n+wxo4dr7QXKMVarpCXX2AJ0yHPD5XL4bmx8bBev73zFg3o31d11aXq27tGpWU9Vd9nZ136s6vFIA29UO8veFennXGidqyo0N4HfF33j3lOaUdiU+EvUx/TYd88UGWlPXTooMGa8fo8tThFtbsdCgr8BL4gz8lG627uprjsL+eKCsOccux2fUSaiRYC1SAC0CATs+HOPi3vbmDdCUx7INuWJyWZXLMmT3tMB++/u+p27KG9dt1Pkya/oTZHas0UlHEyeuet13TO0JNVU1Wmffb9km7+9e1avaZRfjaj63/xc+3UMEBllTvpF9eM1ooPmlUsBHIz67Rm1TwdfPAX1LOsQv12/rwmvTRzw8Z2o1566WkduN/nVdGjhwYdeqSmTn1VaZYhYU6ZwI9Mm8Na1guidbDntuv558dr//32UXVFmQ458Iu66ueXqrK6SpU1vTX4qFO0fHmjnIyjV16ZrsFHf1tl1TU6/NjTNXHqm3J9yXOSmvDIbfryQXuroqxUx554it6Yv1SZotSazSuZ8VTIF5QL2LTHo8wpzHdEThFrTzSTpQmC31xA8F3rMJkWqIunLQ8Q5kdMKkCtnP5YZ/IQGPc4gYlG2q/WqKO/zjkz36Z582fosK8doNodd9DAvrvpttvu1/xlbVrZmNKb77yt/77qcu0+sEHVleU68eQhmvnanMgcrVq+SD86/wz17TNA/Xc9SPc99IxaE+wmJZT31+vtt6Zq770HqqKyTvvu92W9N3+5coWC1rcu1/0P3KG+deWq2LFURx1xnCZNmq658xfqnfnz9e6i97Vg0VItXbZa6VQm2jSfPftlfe+UY1RbU6m99txD99x1u+a+NUtf/+bX1aOsUl/c/yt69LFnlE5mNH78o/ri/nuptk8fnTPsUr27cI2S6Q456TaNu/8mHbDvLqos76kjjj5Wk199XXOXrNaatqzSTqB8mJMKORVYT7LeDAtR4DZeZGa3ALMrSINiAInNAyUNOANIPn68aSYv2hg5cmR0f5MligWgApNBEMH0CmmtXb9QF18wVHWlO6ihpq/+7d/+Q8NHXKMR/zNSZ5z1fQ0YsJP61FfrsEMP1bhHxivFrRo3rTdnT9OZQwarqrq39vmXQXruxdlKpHJKJdcp76/RkxPuVb9+9aquadBpp1+gpqakXN9VY/sKjRr9/1RbuYMqy8o0cOc99d1jT9ZJQ07X0ccfrxOGnKzjTjpZF140XG++8ZaWLV2kCy84S/361aiutkYXDx8uJ9WuZFuTLhtxmXpWVqu+z0Bd/OMRWrFspUaNulG9+tSo38ABuvSqa7VyXVJeKKXaGvXHO6/Vl/YZqOrqCvXfdQ+des5FuuAnV+ixZycqlWVf2VVHLlDeR0PYYM9FMHNhTsXAVyHs1Jq40D8sHYdosIgBavk4cNLAsT6ZM3lNDk/y8XwQ8yXODyBteYJWRzDbnTYlUus1a/qLOvHwwzSwTz/1LK1WdcOuqurbXw0Ddtbue+ymk044QWPHjNO69S3R3q3vp/XiC4/piEMPVEVNnY47/Yd6fd4K+dHAzijnrtPI665QTW2Famr76YYbf6NU0lV7ok1LVs7Tjy/5gXrVlqmqrFwVZXWqqemjut4Nqu5Vr9q+3CnprcMPP0ZTJk/RTaNu0O679VevXpU68cQT9N6785VJJNWRz+nBhx9Q74YG1ffpr0FHHKPJk6ZFLnx1XYV232cvjb7rbqX8gtJOIdLMaX8ap+OPPkx1dTXqWVWryj4D9K9f/7YmvDAl2hrEjOa5L7phcyBywHIdKuQK6ggDFQJfuQ8xswYhDqg7oNaOOlt+EKONaKuleRsaz9jy/kJ+dYaWmvNj23qAjBwgJ+crzLvKpVv17mszdO1//Vynn3aGBh9/so45eYiGnnO2Rt18s+a89oZamhPyA5wBvK12zXzlT7rqimE696Lz9buxE7RsXbu8vNSR9xVkmjTmobt10Q8v0PkXDte06bPlOtwJ8NTU/oEeHnu3hg87T+eedbbOO2eYzj1vmIaefZ7OveACnXvBeTr3Bxfo7nvu15zZr+uX116tC84/SxddeI4mT5osNxtIOSlwfC1evFA/u2KEvn/OeRpxxX/rlRmz9PDDY3XOD87WZf91uabMmqkkGhYWO/ee1y7UY2Pu04UXnK9jTxqik8/8gUbecpeWrG6ONuF9J6Ni6KoYAg2zx7IEmEV18MvocNMLHbtCsnx3IOPAuoLkOINodbTnty485MULrezlGWgk2olWorVoON4sfZT4BeYEXx1OUgqzalsL+dV6e+EivbVwoZavWa1kmsVyhzy3oKzD6PGiHZnQbZaTXKu2bJvW+45S+aK8XIe8dEbF6CGthNj7bUtmFYSSl+WugCM3l5CfY03YrHR7QqmEp2TKi25PJXldm5PW+qZmZbOBMtz5TyWUzbQpk26N8qEPGMlNYgpdtSZa1MrbxVJZBUFHdEenua1Zzel2JfO+0iwnCgWFXlpyW+WmWrR2zRotXPaBVjYl1ZTJqZ3vxg32dCZs0W8AAAsDSURBVFLK+VIhVDEyhUUFYUG5MK+OAJibHBiDt6U4DpI07YnRJgJADKKZXzYE0EYev+SBabQR82qBW2NoMMdvXJpk/Xz0aEQhm5T8tPIO9xpdJUNP7b6rdMDDT3nlgOFqA0xXhVy7imFCHWFaTjGtlmJKqWIgdkuCtC/5RQWuo3whVJArKEAzYJDLyckllevIKuenVQxz+BvC7/DzHXJzoZzAjW435cKiCrl85F16bkr5vKtioUOBW5RCqcNjKREqLPry853nyeckz88r11GQr5zSHYEyee5/+tH55CWknKd8LoyWIk5RSoZS0u+Ibqmx/Mi7GdYx0eZBHm82LHbCjDRz22BuDmTXciACBqiA5FU2/Dqb33liWlmGsNa0JUm3MLlnl0dVc4GKvhONyEKBnQ9PYUdRQZ6FtC+ERAjDYvTUQD7nqJBzVcRMdwRyFcjNh/JzeXXkO9QRAAGThJBz0eK/WOD4UGHBU76I5+grh5fIRjbAc3kFuVAe5dEDTEXlc3kVC3m5biZabxYKAO5QMUSBGN0c58vHy2SXBuEHOeWLBYXFnLxCKBfN5D23+VAFP7vBiQkU5osKGBcdisAW+BEP39tzI3PKMoV1Jxvv0XXguKBVGzSrO43k+5n2YToNkmki9aaN1Ft72tGGTXR+Zs8Pd3nrJ0+5AxKNZH1JGpCsQ2mPVhI4voSCz8L2kwGAgUUgjaD5AM0AYB4Bafuv1AGDOZAb0Dg8vAAD5weIAAQka0ucHrb2YGaOT5Rgo/0zkNsOEsFvKZhcTXvJA5AAVMqBCEDSODRo4u23364///nPEUjg4fCwrsTE4hDRnkHA+fnYYCG98YX7W7q4z+o/HKBpo5lQ5GVp2xgApEHmpjP1xCw5WEfyJDvvRiCPNuK12tYdaUwwIOMab1oJ1M9gboWWfdhANjjEtEPQxHGzauW0QehABDAmk7dpX3/99dHyA6+V9/yZowNAAhqJaUUr6Zfj7WOayTk+g7kdYQLSYAKOdFw7SRMws0DiuR626XjYmVe92bIDeJhYM7OYWjSSPruCtPxnmvl3gkQbugaEayCps3nSQACS5ca1114bvfCYLTp+Pc2Sw5wcM62YWnN4bE2JRpo2kjaYpD/TzG6AdAXUNY8AuwYEbIE60mgmphGQmEf+jQgmlYeaAYpJZX5EI9FUHB2gmlbadh39mcbTL3n7kOdDXNL1ov5Z8gDY0ndBABZoa9AQvgnIyuPtKEO4tOMYPpamztraEoStOJYbPCnAf5DApAIMDQQkZhSIBPJA7Do/Wr/RyTbz558WJl9+cwFhUxeHZ/Cp42N50rQFlh2D6bQ0wMwp4RjMKCDwUoHGL7kuueSSaBOAHwChgcCyPVagmsPDZoA9ecc56M8Ghl3XZjhGxZ9KmAYCYXWnUcBBeMSWpi3aaB+Ebes9yuNzIzeQWS8CkU1yNBDAgEPzMKeYWMqZFykHMiAZHPRnELnWrQHJdX0qYQKmOyEhNMr5xLWPG8CAo55ytM/gmikFBK8x5Qm64cOHR68OZz5E6+wpdOAB0ZYaZl7RSNPu+HXZ9XwG80PMLAKLCw14JjjKARUvow4NJpCmHsCAYj7kFaU/+9nPNGLEiOhpAHZzDBSQ0UY2y4nJm4YCFXNMf/RLsPN2l48qP+RPiR30zxwbPIv5rpZGkBYoo86EiwZyBwOzR0DwQOInAvxXBu5qXHbZZdGrX1jws7AHpG2/GVC764FmmmllMJhW23wcZ2DXYuyo29LnUwEzDs8gEschxoVHe1ukAxRzybKCdwzwT3F4Dx7vcGcPlToAmvYBzpYZ8TSAMac2z9r5DZJdo+W3BK67+k88TIOAEDYXTHDElgZk12PRELQPbQQOC3puR/F2Sl4OzELf7vpTTwBcPKB5mF/qcG7QTrtlhebaIOkKLX7t3YHamrKSeKN4h9szbULsGnMOEyjXYXlrZ9dA3oQfr6MsbqKsjfVjedpgJslbIE85Dg1CZrmAo4L55LFG5kE2vnkdGo9uYEYBZFttQLNFfhwm8yGaSn8MCgYH5+C89n2IP4rP/wnM+JeIp02wADKYVk8Z6XhsUIjj3l8cMMfQL21sTrLzUIZw0RS0Bs+Sf/XIL5MBxk/m+FErv7biGVWcG0AB0LQwHgPOnBk0EIC2IY55tmWGfYf4d/zEwewqZAMVj+2LGjgTvOXN+TBAxNQx2q2f+Hmop47jAM7j+8AACnft+UkcG9vc/OVfSfEKbrbXMKXUcUOY9mZq0UB2Zpj/bHFPnv4AGNdCzmXn5jq4rvjHrpf4o/h8pJppQo4Di38hS3f3xajjOIRigiFGu4iptzztAGfeJMJmtwXN4lkazCbgmO94Rx3/0Y88+6O0ARJQgMOmN+YTWPRj4CxGo2lrwAFoFoBrsGvr+p3s+3zYd+56zLbmP1KYduHEXT/25Qy0xXYMQqHMQrwc4WHGMGsIPg6OvU+eaCNgOu1fKHO7CbD88xnAGBQAAo6ACTUzivmkDTFtWB9intFYM6U4M1gAu/au35G8XXfX79Fd27+37P8MZhyefTEDZhpmWkeeUc78hhARNNqD1gCD/42Jlwks7tAz1/GKMjQQmADkRffMh5hWg2fmlgGA+ewOImVoHgF4DBhiwNkcyPUZJAO2OaDWrmv894Lr7viPHKaBsxhBGDwEFAfGmg3hs7fJuo5/rsaLATGNbFizSMdU4rAAjJcdPffcc9FDULzmk41tW/cBwTQrDs3mQNNA6syRMQ3kmtA+5j8LDDTzgO3641C3Fpa16w7G31u2RZg24ojjX6IrnHgeATCX2MhGSDgQQGL3xAKag+kDGNrF5jTQ7rvvvggUjgoPOVGPpjHH8aIGtJO+0DDTIoODFtr8ZhC7lnE9aKlpHbsxXC8Qbf4jtu8OAD7x2L6vlf29ILbH8Rs32u1iGX3MR4xMYPBF2fE354LRjuDQAAS6YMGCKKAVLLJZj/FcC5DYIeF1J3iKgOKeHm895gVF/A9LtAtYLAP4cQyBB5rog/7on/MAg3MCIQ6PcoASDKDFBtLAcZzNk/a9gBf3PtE+gmnPxwnU1sAuwTzxQ05+kUuYM2eOeHktdwDQBP4fBwGBY9YAAAh7vzhbWyyscfHRLsAxb5k2mUbxujC0iv4xoQwCXpjLPAgw5kQAIHzMHnlMInlAGjDSBoy0mUjShDhwtI9BCDRMOgF4zMdxkxnXwE8awDjkElx05iT+wysaAxCAAQNNASJA0DKgApm5jDUZcBgMOCRoEoBYpzHvsSA3QAjZ5ibTENMcqzOHhDzgDKYdByQDC0z6wUziXRLQNtM4M5lYGOAxPcTNYlzzukvHBfRJSpewhYXwce9NS5jfLACFcvIIESFbOi5cc+FpAwwgWHvTMNobRNqbJmH+qDNAeLAEyumDQL3BsznOdllM20zjDJ7FAOkOWteyzQH/pAAtMWERm6ANhNWZibN68gQgxSFanjKgc7xBiw8CIFKOGYw7Il01zJwRM5HAYk6zGFgGrCuYOEBLx2F1B8j6iLezsu7af9zKSgBkwkXABLTAAtphmhMHYOXElBOjOQYHzSJv2sbcRbBFtzkftjwhjkMyxwRhAswcEwSIsE3IxF0/8bp4mnaW73pMPG9tiD9JnxKDZnEcEiBsHsK0EQBCbOXm6TJPYfYsGBggxDUIEHE4CIy8OSRxQZKOgzONob2lu7Ynz8fKLR2HYnWbi+NtP0np6N9HAQcoFgBjTgQag7nrGsz0WWwmEYiAMYAmeBPcJ0k4n7Rr/f8vZaLxffjICQAAAABJRU5ErkJggg==;" vertex="1" parent="1">
                    <mxGeometry x="614" y="456" width="73" height="52.68" as="geometry"/>
                </mxCell>
                <mxCell id="4" value="" style="shape=image;verticalLabelPosition=bottom;labelBackgroundColor=#ffffff;verticalAlign=top;imageAspect=0;image=data:image/png,iVBORw0KGgoAAAANSUhEUgAAAFIAAABCCAYAAADE+oEAAAAA4ElEQVR4Ae3SMQ0AAAzDsPEn3ZHwmQLIYfXWiMCRSpEFiU4QZJBIAGV6ZJBIAGV6ZJBIAGV6ZJBIAGV6ZJBIAGV6ZJBIAGV6ZJBIAGV6ZJBIAGV6ZJBIAGV6ZJBIAGV6ZJBIAGV6ZJBIAGV6ZJBIAGV6ZJBIAGV6ZJBIAGV6ZJBIAGV6ZJBIAGV6ZJBIAGV6ZJBIAGV6ZJBIAGV6ZJBIAGV6ZJBIAGV6ZJBIAGV6ZJBIAGV6ZJBIAGV6ZJBIAGV6ZJBIAGV6ZJBIAGV6ZJBIAGV6ZJBIAGV6ZJBIAGV6JIJ8coRAXQPDidwAAAAASUVORK5CYII=;" vertex="1" parent="1">
                    <mxGeometry x="687" y="460" width="49" height="60" as="geometry"/>
                </mxCell>
            </root>
        </mxGraphModel>
    </diagram>
</mxfile>